SplineFontDB: 3.0
FontName: Varela
FullName: Varela
FamilyName: Varela
Weight: Regular
Copyright: Copyright (c) 2011 by Admix Designs. All rights reserved.
Version: 001.001
ItalicAngle: 0
UnderlinePosition: -50
UnderlineWidth: 50
Ascent: 800
Descent: 200
sfntRevision: 0x00010000
LayerCount: 2
Layer: 0 1 "Back"  1
Layer: 1 1 "Fore"  0
NeedsXUIDChange: 1
XUID: [1021 288 713564382 6338304]
FSType: 0
OS2Version: 2
OS2_WeightWidthSlopeOnly: 0
OS2_UseTypoMetrics: 1
CreationTime: 1307347629
ModificationTime: 1307978326
PfmFamily: 33
TTFWeight: 400
TTFWidth: 5
LineGap: 0
VLineGap: 0
Panose: 2 0 0 0 0 0 0 0 0 0
OS2TypoAscent: 215
OS2TypoAOffset: 1
OS2TypoDescent: -85
OS2TypoDOffset: 1
OS2TypoLinegap: 0
OS2WinAscent: 0
OS2WinAOffset: 1
OS2WinDescent: 0
OS2WinDOffset: 1
HheadAscent: 0
HheadAOffset: 1
HheadDescent: 0
HheadDOffset: 1
OS2SubXSize: 700
OS2SubYSize: 650
OS2SubXOff: 0
OS2SubYOff: 140
OS2SupXSize: 700
OS2SupYSize: 650
OS2SupXOff: 0
OS2SupYOff: 477
OS2StrikeYSize: 50
OS2StrikeYPos: 250
OS2Vendor: 'pyrs'
OS2CodePages: 00000001.00000000
OS2UnicodeRanges: 00000001.00000000.00000000.00000000
Lookup: 1 0 0 "'aalt' Access All Alternates lookup 0"  {"'aalt' Access All Alternates lookup 0 subtable"  } ['aalt' ('cyrl' <'dflt' > 'grek' <'dflt' > 'latn' <'AZE ' 'CRT ' 'DEU ' 'MOL ' 'ROM ' 'TRK ' 'dflt' > ) ]
Lookup: 3 0 0 "'aalt' Access All Alternates lookup 1"  {"'aalt' Access All Alternates lookup 1 subtable"  } ['aalt' ('cyrl' <'dflt' > 'grek' <'dflt' > 'latn' <'AZE ' 'CRT ' 'DEU ' 'MOL ' 'ROM ' 'TRK ' 'dflt' > ) ]
Lookup: 1 0 0 "'locl' Localized Forms in Latin lookup 2"  {"'locl' Localized Forms in Latin lookup 2 subtable"  } ['locl' ('latn' <'AZE ' > ) ]
Lookup: 1 0 0 "'locl' Localized Forms in Latin lookup 3"  {"'locl' Localized Forms in Latin lookup 3 subtable"  } ['locl' ('latn' <'CRT ' > ) ]
Lookup: 1 0 0 "'locl' Localized Forms in Latin lookup 4"  {"'locl' Localized Forms in Latin lookup 4 subtable"  } ['locl' ('latn' <'MOL ' > ) ]

StartChar: .notdef
Encoding: 65536 -1 0
Width: 514
Flags: W
HStem: 0 50<100 413> 648 50<100 413>
VStem: 20 50<96 602> 444 50<96 602>
LayerCount: 2
Fore
SplineSet
20 698 m 1,0,-1
 494 698 l 1,1,-1
 494 0 l 1,2,-1
 20 0 l 1,3,-1
 20 698 l 1,0,-1
227 349 m 1,4,-1
 70 602 l 1,5,-1
 70 96 l 1,6,-1
 227 349 l 1,4,-1
100 648 m 1,7,-1
 257 397 l 1,8,-1
 413 648 l 1,9,-1
 100 648 l 1,7,-1
257 302 m 1,10,-1
 100 50 l 1,11,-1
 413 50 l 1,12,-1
 257 302 l 1,10,-1
286 349 m 1,13,-1
 444 96 l 1,14,-1
 444 602 l 1,15,-1
 286 349 l 1,13,-1
EndSplineSet
EndChar

StartChar: exclam
Encoding: 33 33 2
Width: 281
Flags: W
HStem: 0 112<84 196> 678 20G<89 192>
VStem: 89 103<0 112 514.211 698>
LayerCount: 2
Fore
SplineSet
84 0 m 1,0,-1
 84 112 l 1,1,-1
 196 112 l 1,2,-1
 196 0 l 1,3,-1
 84 0 l 1,0,-1
89 698 m 1,4,-1
 192 698 l 1,5,-1
 192 552 l 1,6,-1
 172 193 l 1,7,-1
 108 193 l 1,8,-1
 89 552 l 1,9,-1
 89 698 l 1,4,-1
EndSplineSet
Substitution2: "'c2sc' Capitals to Small Capitals lookup 16 subtable" exclam.smcp
Substitution2: "'aalt' Access All Alternates lookup 0 subtable" exclam.smcp
EndChar

StartChar: quotedbl
Encoding: 34 34 3
Width: 411
Flags: W
HStem: 496 244<85 137 274 326>
VStem: 85 52<496 551.097> 274 52<496 551.097>
LayerCount: 2
Fore
SplineSet
55 740 m 1,0,-1
 168 740 l 1,1,-1
 137 496 l 1,2,-1
 85 496 l 1,3,-1
 55 740 l 1,0,-1
243 740 m 1,4,-1
 356 740 l 1,5,-1
 326 496 l 1,6,-1
 274 496 l 1,7,-1
 243 740 l 1,4,-1
EndSplineSet
EndChar

StartChar: numbersign
Encoding: 35 35 4
Width: 612
Flags: W
HStem: 0 21G<119 193.187 317 391.187> 182 70<46 148 230 346 428 530> 404 70<81 183 265 381 463 565>
LayerCount: 2
Fore
SplineSet
421 655 m 1,0,-1
 492 655 l 1,1,-1
 463 474 l 1,2,-1
 565 474 l 1,3,-1
 565 404 l 1,4,-1
 452 404 l 1,5,-1
 428 252 l 1,6,-1
 530 252 l 1,7,-1
 530 182 l 1,8,-1
 417 182 l 1,9,-1
 388 0 l 1,10,-1
 317 0 l 1,11,-1
 346 182 l 1,12,-1
 219 182 l 1,13,-1
 190 0 l 1,14,-1
 119 0 l 1,15,-1
 148 182 l 1,16,-1
 46 182 l 1,17,-1
 46 252 l 1,18,-1
 159 252 l 1,19,-1
 183 404 l 1,20,-1
 81 404 l 1,21,-1
 81 474 l 1,22,-1
 194 474 l 1,23,-1
 223 655 l 1,24,-1
 294 655 l 1,25,-1
 265 474 l 1,26,-1
 392 474 l 1,27,-1
 421 655 l 1,0,-1
357 252 m 1,28,-1
 381 404 l 1,29,-1
 254 404 l 1,30,-1
 230 252 l 1,31,-1
 357 252 l 1,28,-1
EndSplineSet
EndChar

StartChar: dollar
Encoding: 36 36 5
Width: 612
Flags: W
HStem: -10 85<153.827 289 334 422.14> 44 89<62 110.777> 587 85<447.109 518>
VStem: 54 90<452.381 570.669> 289 45<-105 -10 76 293 398 623 708 803> 479 90<124.626 240.461>
CounterMasks: 1 1c
LayerCount: 2
Fore
SplineSet
569 185 m 0,0,1
 569 104 569 104 505 50 c 128,-1,2
 441 -4 441 -4 334 -10 c 1,3,-1
 334 -105 l 1,4,-1
 289 -105 l 1,5,-1
 289 -10 l 1,6,7
 165 -5 165 -5 62 44 c 1,8,-1
 62 133 l 1,9,-1
 67 133 l 1,10,11
 164 79 164 79 289 75 c 1,12,-1
 289 304 l 1,13,14
 151.140703518 339.266331658 151.140703518 339.266331658 103 385 c 0,15,16
 83 404 83 404 68.5 434.5 c 128,-1,17
 54 465 54 465 54 503 c 0,18,19
 54 586 54 586 116 643.5 c 128,-1,20
 178 701 178 701 289 707 c 1,21,-1
 289 803 l 1,22,-1
 334 803 l 1,23,-1
 334 708 l 1,24,25
 434 704 434 704 518 672 c 1,26,-1
 518 587 l 1,27,-1
 511 587 l 1,28,29
 424 622 424 622 334 625 c 1,30,-1
 334 387 l 1,31,32
 388 374 388 374 420.5 363 c 128,-1,33
 453 352 453 352 492 329.5 c 0,34,35
 569 285.076923077 569 285.076923077 569 185 c 0,0,1
184 587.5 m 128,-1,37
 144 558 144 558 144 511 c 128,-1,38
 144 464 144 464 181 440 c 128,-1,39
 218 416 218 416 289 398 c 1,40,-1
 289 623 l 1,41,36
 224 617 224 617 184 587.5 c 128,-1,37
334 76 m 1,42,43
 479 86 479 86 479 191 c 0,44,45
 479 231 479 231 442.5 252.5 c 128,-1,46
 406 274 406 274 334 293 c 1,47,-1
 334 76 l 1,42,43
EndSplineSet
Substitution2: "'ss01' Style Set 1 lookup 27 subtable" dollar.alt
Substitution2: "'onum' Oldstyle Figures lookup 17 subtable" dollar.oldstyle
Substitution2: "'subs' Subscript lookup 15 subtable" dollar.inferior
Substitution2: "'sinf' Scientific Inferiors lookup 14 subtable" dollar.inferior
Substitution2: "'sups' Superscript lookup 13 subtable" dollar.superior
AlternateSubs2: "'aalt' Access All Alternates lookup 1 subtable" dollar.superior dollar.inferior dollar.oldstyle dollar.alt
EndChar

StartChar: percent
Encoding: 37 37 6
Width: 814
Flags: W
HStem: -18 65<552.513 667.487> -4 21G<148 238.511> 275 65<552.513 667.487> 357 65<146.513 261.487> 650 65<146.513 261.487> 681 20G<576.489 667>
VStem: 43 70<456.995 615.005> 295 70<456.995 615.005> 449 70<81.9954 240.005> 701 70<81.9954 240.005>
LayerCount: 2
Fore
SplineSet
589 701 m 1,0,-1
 667 701 l 1,1,-1
 226 -4 l 1,2,-1
 148 -4 l 1,3,-1
 589 701 l 1,0,-1
204 715 m 128,-1,5
 281 715 281 715 323 664.5 c 128,-1,6
 365 614 365 614 365 536 c 128,-1,7
 365 458 365 458 323 407.5 c 128,-1,8
 281 357 281 357 204 357 c 128,-1,9
 127 357 127 357 85 407.5 c 128,-1,10
 43 458 43 458 43 536 c 128,-1,11
 43 614 43 614 85 664.5 c 128,-1,4
 127 715 127 715 204 715 c 128,-1,5
204 422 m 128,-1,13
 247 422 247 422 271 454 c 128,-1,14
 295 486 295 486 295 536 c 128,-1,15
 295 586 295 586 271 618 c 128,-1,16
 247 650 247 650 204 650 c 128,-1,17
 161 650 161 650 137 618 c 128,-1,18
 113 586 113 586 113 536 c 128,-1,19
 113 486 113 486 137 454 c 128,-1,12
 161 422 161 422 204 422 c 128,-1,13
610 340 m 128,-1,21
 687 340 687 340 729 289.5 c 128,-1,22
 771 239 771 239 771 161 c 128,-1,23
 771 83 771 83 729 32.5 c 128,-1,24
 687 -18 687 -18 610 -18 c 128,-1,25
 533 -18 533 -18 491 32.5 c 128,-1,26
 449 83 449 83 449 161 c 128,-1,27
 449 239 449 239 491 289.5 c 128,-1,20
 533 340 533 340 610 340 c 128,-1,21
610 47 m 128,-1,29
 653 47 653 47 677 79 c 128,-1,30
 701 111 701 111 701 161 c 128,-1,31
 701 211 701 211 677 243 c 128,-1,32
 653 275 653 275 610 275 c 128,-1,33
 567 275 567 275 543 243 c 128,-1,34
 519 211 519 211 519 161 c 128,-1,35
 519 111 519 111 543 79 c 128,-1,28
 567 47 567 47 610 47 c 128,-1,29
EndSplineSet
Ligature2: "Ligature Substitution lookup 29 subtable" zero.numerator fraction zero.numerator
Ligature2: "Ligature Substitution lookup 29 subtable" zero.numerator slash zero.numerator
EndChar

StartChar: ampersand
Encoding: 38 38 7
Width: 732
Flags: W
HStem: -10 77<221.131 408.614> 0 21G<571.788 710> 630 78<241.992 399.507>
VStem: 71 86<125.921 271.625> 123 84<465.249 595.038>
LayerCount: 2
Fore
SplineSet
579 127 m 1,0,-1
 710 3 l 1,1,-1
 710 0 l 1,2,-1
 593 0 l 1,3,-1
 523 66 l 1,4,-1
 519 66 l 1,5,6
 430 -10 430 -10 311.5 -10 c 128,-1,7
 193 -10 193 -10 132 51 c 128,-1,8
 71 112 71 112 71 188 c 128,-1,9
 71 264 71 264 106 311.5 c 128,-1,10
 141 359 141 359 183 386 c 1,11,-1
 183 389 l 1,12,13
 153 425 153 425 138 457 c 128,-1,14
 123 489 123 489 123 533 c 0,15,16
 123 606 123 606 174 657 c 128,-1,17
 225 708 225 708 303 708 c 128,-1,18
 381 708 381 708 451 659 c 1,19,-1
 451 573 l 1,20,-1
 449 573 l 1,21,22
 388 630 388 630 314 630 c 0,23,24
 264 630 264 630 235.5 602.5 c 128,-1,25
 207 575 207 575 207 535.5 c 128,-1,26
 207 496 207 496 226.5 468 c 128,-1,27
 246 440 246 440 307 383 c 2,28,-1
 514 188 l 1,29,-1
 517 188 l 1,30,31
 540 223 540 223 555 260 c 1,32,-1
 645 260 l 1,33,34
 617 183 617 183 579 132 c 1,35,-1
 579 127 l 1,0,-1
460 121 m 1,36,-1
 460 125 l 1,37,-1
 241 330 l 1,38,-1
 236 330 l 1,39,40
 157 277 157 277 157 193 c 0,41,42
 157 138 157 138 200.5 102.5 c 128,-1,43
 244 67 244 67 308 67 c 0,44,45
 394 67 394 67 460 121 c 1,36,-1
EndSplineSet
Substitution2: "'ss01' Style Set 1 lookup 27 subtable" ampersand.alt
Substitution2: "'c2sc' Capitals to Small Capitals lookup 16 subtable" ampersand.smcp
AlternateSubs2: "'aalt' Access All Alternates lookup 1 subtable" ampersand.smcp ampersand.alt
EndChar

StartChar: quotesingle
Encoding: 39 39 8
Width: 238
Flags: W
HStem: 628 112<73 128>
VStem: 73 112<628 740> 128 57<559.304 628>
LayerCount: 2
Fore
SplineSet
73 740 m 1,0,-1
 185 740 l 1,1,-1
 185 628 l 2,2,3
 185 512 185 512 73 465 c 1,4,-1
 73 530 l 1,5,6
 128 560 128 560 128 628 c 1,7,-1
 73 628 l 1,8,-1
 73 740 l 1,0,-1
EndSplineSet
EndChar

StartChar: parenleft
Encoding: 40 40 9
Width: 312
Flags: W
VStem: 51 91<124.312 490.688>
LayerCount: 2
Fore
SplineSet
288 760 m 1,0,-1
 288 757 l 1,1,2
 142 563 142 563 142 307.5 c 128,-1,3
 142 52 142 52 288 -142 c 1,4,-1
 288 -145 l 1,5,-1
 194 -145 l 1,6,7
 51 52 51 52 51 307.5 c 128,-1,8
 51 563 51 563 194 760 c 1,9,-1
 288 760 l 1,0,-1
EndSplineSet
EndChar

StartChar: parenright
Encoding: 41 41 10
Width: 312
Flags: W
VStem: 171 91<124.312 490.688>
LayerCount: 2
Fore
SplineSet
25 757 m 1,0,-1
 25 760 l 1,1,-1
 119 760 l 1,2,3
 262 563 262 563 262 307.5 c 128,-1,4
 262 52 262 52 119 -145 c 1,5,-1
 25 -145 l 1,6,-1
 25 -142 l 1,7,8
 171 52 171 52 171 307.5 c 128,-1,9
 171 563 171 563 25 757 c 1,0,-1
EndSplineSet
EndChar

StartChar: asterisk
Encoding: 42 42 11
Width: 417
Flags: W
HStem: 387 311
VStem: 57 303
LayerCount: 2
Fore
SplineSet
326 436 m 1,0,-1
 222 518 l 1,1,-1
 242 387 l 1,2,-1
 175 387 l 1,3,-1
 194 518 l 1,4,-1
 91 436 l 1,5,-1
 57 494 l 1,6,-1
 180 543 l 1,7,-1
 57 591 l 1,8,-1
 91 650 l 1,9,-1
 194 567 l 1,10,-1
 175 698 l 1,11,-1
 242 698 l 1,12,-1
 222 567 l 1,13,-1
 326 650 l 1,14,-1
 360 591 l 1,15,-1
 237 543 l 1,16,-1
 360 494 l 1,17,-1
 326 436 l 1,0,-1
EndSplineSet
EndChar

StartChar: plus
Encoding: 43 43 12
Width: 562
Flags: W
HStem: 307 77<45 242 320 517>
VStem: 242 78<109 307 384 582>
LayerCount: 2
Fore
SplineSet
45 307 m 1,0,-1
 45 384 l 1,1,-1
 242 384 l 1,2,-1
 242 582 l 1,3,-1
 320 582 l 1,4,-1
 320 384 l 1,5,-1
 517 384 l 1,6,-1
 517 307 l 1,7,-1
 320 307 l 1,8,-1
 320 109 l 1,9,-1
 242 109 l 1,10,-1
 242 307 l 1,11,-1
 45 307 l 1,0,-1
EndSplineSet
EndChar

StartChar: comma
Encoding: 44 44 13
Width: 260
Flags: W
HStem: 0 112<74 129>
VStem: 74 112<0 112> 129 57<-68.696 0>
LayerCount: 2
Fore
SplineSet
74 112 m 1,0,-1
 186 112 l 1,1,-1
 186 0 l 2,2,3
 186 -116 186 -116 74 -163 c 1,4,-1
 74 -98 l 1,5,6
 129 -68 129 -68 129 0 c 1,7,-1
 74 0 l 1,8,-1
 74 112 l 1,0,-1
EndSplineSet
Substitution2: "'subs' Subscript lookup 15 subtable" comma.inferior
Substitution2: "'sinf' Scientific Inferiors lookup 14 subtable" comma.inferior
Substitution2: "'sups' Superscript lookup 13 subtable" comma.superior
AlternateSubs2: "'aalt' Access All Alternates lookup 1 subtable" comma.superior comma.inferior
EndChar

StartChar: hyphen
Encoding: 45 45 14
Width: 408
Flags: W
HStem: 240 81<74 334>
VStem: 74 260<240 321>
LayerCount: 2
Fore
SplineSet
334 240 m 1,0,-1
 74 240 l 1,1,-1
 74 321 l 1,2,-1
 334 321 l 1,3,-1
 334 240 l 1,0,-1
EndSplineSet
Substitution2: "'subs' Subscript lookup 15 subtable" hyphen.inferior
Substitution2: "'sinf' Scientific Inferiors lookup 14 subtable" hyphen.inferior
Substitution2: "'sups' Superscript lookup 13 subtable" hyphen.superior
AlternateSubs2: "'aalt' Access All Alternates lookup 1 subtable" hyphen.superior hyphen.inferior
EndChar

StartChar: period
Encoding: 46 46 15
Width: 260
Flags: W
HStem: 0 112<74 186>
VStem: 74 112<0 112>
LayerCount: 2
Fore
SplineSet
74 0 m 1,0,-1
 74 112 l 1,1,-1
 186 112 l 1,2,-1
 186 0 l 1,3,-1
 74 0 l 1,0,-1
EndSplineSet
Substitution2: "'subs' Subscript lookup 15 subtable" period.inferior
Substitution2: "'sinf' Scientific Inferiors lookup 14 subtable" period.inferior
Substitution2: "'sups' Superscript lookup 13 subtable" period.superior
AlternateSubs2: "'aalt' Access All Alternates lookup 1 subtable" period.superior period.inferior
EndChar

StartChar: slash
Encoding: 47 47 16
Width: 443
Flags: W
LayerCount: 2
Fore
SplineSet
322 751 m 1,0,-1
 408 751 l 1,1,-1
 122 -85 l 1,2,-1
 36 -85 l 1,3,-1
 322 751 l 1,0,-1
EndSplineSet
Substitution2: "'dnom' Denominators lookup 11 subtable" fraction
Substitution2: "'numr' Numerators lookup 10 subtable" fraction
Substitution2: "'frac' Diagonal Fractions lookup 9 subtable" fraction
Substitution2: "'aalt' Access All Alternates lookup 0 subtable" fraction
EndChar

StartChar: zero
Encoding: 48 48 17
Width: 628
Flags: W
HStem: -10 84<232.417 396.841> 623 85<232.417 396.841>
VStem: 43 91<199.522 497.978> 494 91<199.522 497.978>
LayerCount: 2
Fore
SplineSet
112.5 611 m 128,-1,1
 182 708 182 708 313.5 708 c 128,-1,2
 445 708 445 708 515 611 c 128,-1,3
 585 514 585 514 585 349 c 128,-1,4
 585 184 585 184 515 87 c 128,-1,5
 445 -10 445 -10 313.5 -10 c 128,-1,6
 182 -10 182 -10 112.5 87 c 128,-1,7
 43 184 43 184 43 349 c 128,-1,0
 43 514 43 514 112.5 611 c 128,-1,1
314 74 m 128,-1,9
 401 74 401 74 447.5 147 c 128,-1,10
 494 220 494 220 494 348.5 c 128,-1,11
 494 477 494 477 447.5 550 c 128,-1,12
 401 623 401 623 314 623 c 128,-1,13
 227 623 227 623 180.5 550 c 128,-1,14
 134 477 134 477 134 348.5 c 128,-1,15
 134 220 134 220 180.5 147 c 128,-1,8
 227 74 227 74 314 74 c 128,-1,9
EndSplineSet
Substitution2: "'onum' Oldstyle Figures lookup 17 subtable" zero.oldstyle
Substitution2: "'subs' Subscript lookup 15 subtable" zeroinferior
Substitution2: "'sinf' Scientific Inferiors lookup 14 subtable" zeroinferior
Substitution2: "'sups' Superscript lookup 13 subtable" zerosuperior
Substitution2: "'dnom' Denominators lookup 11 subtable" zero.denominator
Substitution2: "'numr' Numerators lookup 10 subtable" zero.numerator
Substitution2: "'frac' Diagonal Fractions lookup 7 subtable" zero.numerator
AlternateSubs2: "'aalt' Access All Alternates lookup 1 subtable" zero.numerator zero.denominator zerosuperior zeroinferior zero.oldstyle
EndChar

StartChar: one
Encoding: 49 49 18
Width: 628
Flags: W
HStem: 0 85<140 296 387 524> 678 20G<264.951 387>
VStem: 296 91<85 591>
LayerCount: 2
Fore
SplineSet
387 85 m 1,0,-1
 524 85 l 1,1,-1
 524 0 l 1,2,-1
 140 0 l 1,3,-1
 140 85 l 1,4,-1
 296 85 l 1,5,-1
 296 591 l 1,6,-1
 292 591 l 1,7,-1
 147 519 l 1,8,-1
 147 616 l 1,9,-1
 303 698 l 1,10,-1
 387 698 l 1,11,-1
 387 85 l 1,0,-1
EndSplineSet
Substitution2: "'onum' Oldstyle Figures lookup 17 subtable" one.oldstyle
Substitution2: "'subs' Subscript lookup 15 subtable" oneinferior
Substitution2: "'sinf' Scientific Inferiors lookup 14 subtable" oneinferior
Substitution2: "'sups' Superscript lookup 13 subtable" onesuperior
Substitution2: "'dnom' Denominators lookup 11 subtable" one.denominator
Substitution2: "'numr' Numerators lookup 10 subtable" one.numerator
Substitution2: "'frac' Diagonal Fractions lookup 7 subtable" one.numerator
AlternateSubs2: "'aalt' Access All Alternates lookup 1 subtable" one.numerator one.denominator onesuperior oneinferior one.oldstyle
EndChar

StartChar: two
Encoding: 50 50 19
Width: 628
Flags: W
HStem: 0 85<157 543> 622 86<175.191 409.864>
VStem: 65 92<85 120.29> 465 88<433.447 571.853>
LayerCount: 2
Fore
SplineSet
553 505 m 0,0,1
 553 456 553 456 527.5 410.5 c 128,-1,2
 502 365 502 365 462.5 331.5 c 128,-1,3
 423 298 423 298 375 263.5 c 128,-1,4
 327 229 327 229 284 203 c 0,5,6
 179.614840989 139.883392226 179.614840989 139.883392226 157 89 c 1,7,-1
 157 85 l 1,8,-1
 543 85 l 1,9,-1
 543 0 l 1,10,-1
 65 0 l 1,11,-1
 65 52 l 2,12,13
 65 101 65 101 94.5 146.5 c 128,-1,14
 124 192 124 192 168.5 225 c 128,-1,15
 213 258 213 258 265 293 c 128,-1,16
 317 328 317 328 361.5 357 c 128,-1,17
 406 386 406 386 435.5 423 c 128,-1,18
 465 460 465 460 465 498 c 0,19,20
 465 622 465 622 307 622 c 0,21,22
 186 622 186 622 95 562 c 1,23,-1
 90 562 l 1,24,-1
 90 651 l 1,25,26
 197 708 197 708 323 708 c 0,27,28
 421 708 421 708 487 651.5 c 128,-1,29
 553 595 553 595 553 505 c 0,0,1
EndSplineSet
Substitution2: "'onum' Oldstyle Figures lookup 17 subtable" two.oldstyle
Substitution2: "'subs' Subscript lookup 15 subtable" twoinferior
Substitution2: "'sinf' Scientific Inferiors lookup 14 subtable" twoinferior
Substitution2: "'sups' Superscript lookup 13 subtable" twosuperior
Substitution2: "'dnom' Denominators lookup 11 subtable" two.denominator
Substitution2: "'numr' Numerators lookup 10 subtable" two.numerator
Substitution2: "'frac' Diagonal Fractions lookup 7 subtable" two.numerator
AlternateSubs2: "'aalt' Access All Alternates lookup 1 subtable" two.numerator two.denominator twosuperior twoinferior two.oldstyle
EndChar

StartChar: three
Encoding: 51 51 20
Width: 628
Flags: W
HStem: -10 87<137.718 401.989> 35 89<73 124.094> 314 84<189 362.237> 623 85<156.385 386.838>
VStem: 437 91<455.929 578.328> 462 91<127.095 254.468>
LayerCount: 2
Fore
SplineSet
409 361 m 1,0,1
 553 325 553 325 553 183 c 0,2,3
 553 91 553 91 480.5 40.5 c 128,-1,4
 408 -10 408 -10 290.5 -10 c 128,-1,5
 173 -10 173 -10 73 35 c 1,6,-1
 73 124 l 1,7,-1
 78 124 l 1,8,9
 166 77 166 77 277 77 c 0,10,11
 406.347826087 77 406.347826087 77 446 134 c 0,12,13
 462 157 462 157 462 188 c 0,14,15
 462 314 462 314 241 314 c 2,16,-1
 189 314 l 1,17,-1
 189 398 l 1,18,-1
 229 398 l 2,19,20
 329 398 329 398 383 428.5 c 128,-1,21
 437 459 437 459 437 519 c 0,22,23
 437 567 437 567 397 595 c 128,-1,24
 357 623 357 623 279 623 c 0,25,26
 167 623 167 623 84 568 c 1,27,-1
 80 568 l 1,28,-1
 80 652 l 1,29,30
 180 708 180 708 291 708 c 128,-1,31
 402 708 402 708 465 661 c 128,-1,32
 528 614 528 614 528 528 c 0,33,34
 528 406 528 406 409 362 c 1,35,-1
 409 361 l 1,0,1
EndSplineSet
Substitution2: "'onum' Oldstyle Figures lookup 17 subtable" three.oldstyle
Substitution2: "'subs' Subscript lookup 15 subtable" threeinferior
Substitution2: "'sinf' Scientific Inferiors lookup 14 subtable" threeinferior
Substitution2: "'sups' Superscript lookup 13 subtable" threesuperior
Substitution2: "'dnom' Denominators lookup 11 subtable" three.denominator
Substitution2: "'numr' Numerators lookup 10 subtable" three.numerator
Substitution2: "'frac' Diagonal Fractions lookup 7 subtable" three.numerator
AlternateSubs2: "'aalt' Access All Alternates lookup 1 subtable" three.numerator three.denominator threesuperior threeinferior three.oldstyle
EndChar

StartChar: four
Encoding: 52 52 21
Width: 628
Flags: W
HStem: 0 21G<388 479> 176 81<128 388 479 591> 678 20G<354.358 479>
VStem: 388 91<0 176 257 593>
LayerCount: 2
Fore
SplineSet
479 257 m 1,0,-1
 591 257 l 1,1,-1
 591 176 l 1,2,-1
 479 176 l 1,3,-1
 479 0 l 1,4,-1
 388 0 l 1,5,-1
 388 176 l 1,6,-1
 29 176 l 1,7,-1
 29 262 l 1,8,-1
 370 698 l 1,9,-1
 479 698 l 1,10,-1
 479 257 l 1,0,-1
388 257 m 1,11,-1
 388 593 l 1,12,-1
 386 593 l 1,13,-1
 128 259 l 1,14,-1
 128 257 l 1,15,-1
 388 257 l 1,11,-1
EndSplineSet
Substitution2: "'onum' Oldstyle Figures lookup 17 subtable" four.oldstyle
Substitution2: "'subs' Subscript lookup 15 subtable" fourinferior
Substitution2: "'sinf' Scientific Inferiors lookup 14 subtable" fourinferior
Substitution2: "'sups' Superscript lookup 13 subtable" foursuperior
Substitution2: "'dnom' Denominators lookup 11 subtable" four.denominator
Substitution2: "'numr' Numerators lookup 10 subtable" four.numerator
Substitution2: "'frac' Diagonal Fractions lookup 7 subtable" four.numerator
AlternateSubs2: "'aalt' Access All Alternates lookup 1 subtable" four.numerator four.denominator foursuperior fourinferior four.oldstyle
EndChar

StartChar: five
Encoding: 53 53 22
Width: 628
Flags: W
HStem: -10 90<166.646 411.195> 355 87<212.278 418.137> 613 85<201 529>
VStem: 480 91<139.361 295.233>
LayerCount: 2
Fore
SplineSet
174 403 m 1,0,1
 247 442 247 442 347.5 442 c 128,-1,2
 448 442 448 442 509.5 379.5 c 128,-1,3
 571 317 571 317 571 216 c 128,-1,4
 571 115 571 115 502 52.5 c 128,-1,5
 433 -10 433 -10 301 -10 c 128,-1,6
 169 -10 169 -10 74 55 c 1,7,-1
 74 152 l 1,8,-1
 78 152 l 1,9,10
 169 80 169 80 285 80 c 0,11,12
 380 80 380 80 430 112 c 128,-1,13
 480 144 480 144 480 213.5 c 128,-1,14
 480 283 480 283 438.5 319 c 128,-1,15
 397 355 397 355 325 355 c 0,16,17
 216 355 216 355 147 297 c 1,18,-1
 68 332 l 1,19,-1
 125 698 l 1,20,-1
 529 698 l 1,21,-1
 529 613 l 1,22,-1
 201 613 l 1,23,-1
 171 403 l 1,24,-1
 174 403 l 1,0,1
EndSplineSet
Substitution2: "'onum' Oldstyle Figures lookup 17 subtable" five.oldstyle
Substitution2: "'subs' Subscript lookup 15 subtable" fiveinferior
Substitution2: "'sinf' Scientific Inferiors lookup 14 subtable" fiveinferior
Substitution2: "'sups' Superscript lookup 13 subtable" fivesuperior
Substitution2: "'dnom' Denominators lookup 11 subtable" five.denominator
Substitution2: "'numr' Numerators lookup 10 subtable" five.numerator
Substitution2: "'frac' Diagonal Fractions lookup 7 subtable" five.numerator
AlternateSubs2: "'aalt' Access All Alternates lookup 1 subtable" five.numerator five.denominator fivesuperior fiveinferior five.oldstyle
EndChar

StartChar: six
Encoding: 54 54 23
Width: 628
Flags: W
HStem: -10 85<244.45 419.668> 369 83<239.5 427.471> 620 88<260.38 471.456>
VStem: 59 87<365 475.95> 489 91<144.554 306.349>
LayerCount: 2
Fore
SplineSet
351 452 m 0,0,1
 454 452 454 452 517 388 c 128,-1,2
 580 324 580 324 580 222 c 128,-1,3
 580 120 580 120 512.5 55 c 128,-1,4
 445 -10 445 -10 333 -10 c 0,5,6
 59 -10 59 -10 59 348 c 0,7,8
 59 479.4375 59 479.4375 121 586 c 0,9,10
 153 641 153 641 212 674.5 c 128,-1,11
 271 708 271 708 360.5 708 c 128,-1,12
 450 708 450 708 537 659 c 1,13,-1
 537 567 l 1,14,-1
 532 567 l 1,15,16
 450 620 450 620 356 620 c 0,17,18
 295 620 295 620 252 594 c 128,-1,19
 209 568 209 568 188 525 c 0,20,21
 150.010322581 447.211612903 150.010322581 447.211612903 146 365 c 1,22,-1
 148 365 l 1,23,24
 216 452 216 452 351 452 c 0,0,1
334 75 m 0,25,26
 403 75 403 75 446 117 c 128,-1,27
 489 159 489 159 489 223 c 128,-1,28
 489 287 489 287 451 328 c 128,-1,29
 413 369 413 369 340 369 c 0,30,31
 210 369 210 369 151 259 c 1,32,33
 178 75 178 75 334 75 c 0,25,26
EndSplineSet
Substitution2: "'onum' Oldstyle Figures lookup 17 subtable" six.oldstyle
Substitution2: "'subs' Subscript lookup 15 subtable" sixinferior
Substitution2: "'sinf' Scientific Inferiors lookup 14 subtable" sixinferior
Substitution2: "'sups' Superscript lookup 13 subtable" sixsuperior
Substitution2: "'dnom' Denominators lookup 11 subtable" six.denominator
Substitution2: "'numr' Numerators lookup 10 subtable" six.numerator
Substitution2: "'frac' Diagonal Fractions lookup 7 subtable" six.numerator
AlternateSubs2: "'aalt' Access All Alternates lookup 1 subtable" six.numerator six.denominator sixsuperior sixinferior six.oldstyle
EndChar

StartChar: seven
Encoding: 55 55 24
Width: 628
Flags: W
HStem: 0 21G<159 272.724> 611 87<65 462>
LayerCount: 2
Fore
SplineSet
65 698 m 1,0,-1
 563 698 l 1,1,-1
 563 617 l 1,2,-1
 263 0 l 1,3,-1
 159 0 l 1,4,-1
 462 607 l 1,5,-1
 462 611 l 1,6,-1
 65 611 l 1,7,-1
 65 698 l 1,0,-1
EndSplineSet
Substitution2: "'onum' Oldstyle Figures lookup 17 subtable" seven.oldstyle
Substitution2: "'subs' Subscript lookup 15 subtable" seveninferior
Substitution2: "'sinf' Scientific Inferiors lookup 14 subtable" seveninferior
Substitution2: "'sups' Superscript lookup 13 subtable" sevensuperior
Substitution2: "'dnom' Denominators lookup 11 subtable" seven.denominator
Substitution2: "'numr' Numerators lookup 10 subtable" seven.numerator
Substitution2: "'frac' Diagonal Fractions lookup 7 subtable" seven.numerator
AlternateSubs2: "'aalt' Access All Alternates lookup 1 subtable" seven.numerator seven.denominator sevensuperior seveninferior seven.oldstyle
EndChar

StartChar: eight
Encoding: 56 56 25
Width: 628
Flags: W
HStem: -10 80<207.612 420.388> 330 82<219.826 408.174> 628 80<220.685 407.315>
VStem: 47 91<134.924 266.407> 80 91<458.931 582.557> 457 91<458.931 582.557> 490 91<134.924 266.407>
LayerCount: 2
Fore
SplineSet
490.5 652 m 128,-1,1
 548 596 548 596 548 532 c 128,-1,2
 548 468 548 468 515.5 429.5 c 128,-1,3
 483 391 483 391 432 374 c 1,4,-1
 432 373 l 1,5,6
 581 323 581 323 581 185 c 0,7,8
 581 113 581 113 522.5 54.5 c 0,9,10
 493 25 493 25 439 7.5 c 128,-1,11
 385 -10 385 -10 314 -10 c 128,-1,12
 243 -10 243 -10 189 7.5 c 128,-1,13
 135 25 135 25 105.5 54.5 c 0,14,15
 47 113 47 113 47 185 c 0,16,17
 47 323 47 323 196 373 c 1,18,-1
 196 374 l 1,19,20
 145 391 145 391 112.5 429.5 c 128,-1,21
 80 468 80 468 80 532 c 128,-1,22
 80 596 80 596 137.5 652 c 128,-1,23
 195 708 195 708 314 708 c 128,-1,0
 433 708 433 708 490.5 652 c 128,-1,1
314 70 m 128,-1,25
 404 70 404 70 447 110.5 c 128,-1,26
 490 151 490 151 490 195 c 0,27,28
 490 259 490 259 439 294.5 c 128,-1,29
 388 330 388 330 314 330 c 128,-1,30
 240 330 240 330 189 294.5 c 128,-1,31
 138 259 138 259 138 195 c 0,32,33
 138 151 138 151 181 110.5 c 128,-1,24
 224 70 224 70 314 70 c 128,-1,25
207.5 597.5 m 128,-1,35
 171 567 171 567 171 522.5 c 128,-1,36
 171 478 171 478 205.5 445 c 128,-1,37
 240 412 240 412 314 412 c 128,-1,38
 388 412 388 412 422.5 445 c 128,-1,39
 457 478 457 478 457 522.5 c 128,-1,40
 457 567 457 567 420.5 597.5 c 128,-1,41
 384 628 384 628 314 628 c 128,-1,34
 244 628 244 628 207.5 597.5 c 128,-1,35
EndSplineSet
Substitution2: "'onum' Oldstyle Figures lookup 17 subtable" eight.oldstyle
Substitution2: "'subs' Subscript lookup 15 subtable" eightinferior
Substitution2: "'sinf' Scientific Inferiors lookup 14 subtable" eightinferior
Substitution2: "'sups' Superscript lookup 13 subtable" eightsuperior
Substitution2: "'dnom' Denominators lookup 11 subtable" eight.denominator
Substitution2: "'numr' Numerators lookup 10 subtable" eight.numerator
Substitution2: "'frac' Diagonal Fractions lookup 7 subtable" eight.numerator
AlternateSubs2: "'aalt' Access All Alternates lookup 1 subtable" eight.numerator eight.denominator eightsuperior eightinferior eight.oldstyle
EndChar

StartChar: nine
Encoding: 57 57 26
Width: 628
Flags: W
HStem: -10 88<156.544 367.62> 246 83<200.529 388.5> 623 85<208.332 383.55>
VStem: 48 91<391.651 553.446> 482 87<222.05 333>
LayerCount: 2
Fore
SplineSet
277 246 m 0,0,1
 174 246 174 246 111 310 c 128,-1,2
 48 374 48 374 48 476 c 128,-1,3
 48 578 48 578 115.5 643 c 128,-1,4
 183 708 183 708 295 708 c 0,5,6
 569 708 569 708 569 350 c 0,7,8
 569 218.5625 569 218.5625 507 112 c 0,9,10
 475 57 475 57 416 23.5 c 128,-1,11
 357 -10 357 -10 267.5 -10 c 128,-1,12
 178 -10 178 -10 91 39 c 1,13,-1
 91 131 l 1,14,-1
 96 131 l 1,15,16
 178 78 178 78 272 78 c 0,17,18
 333 78 333 78 376 104 c 128,-1,19
 419 130 419 130 440 173 c 0,20,21
 477.989677419 250.788387097 477.989677419 250.788387097 482 333 c 1,22,-1
 480 333 l 1,23,24
 412 246 412 246 277 246 c 0,0,1
294 623 m 0,25,26
 225 623 225 623 182 581 c 128,-1,27
 139 539 139 539 139 475 c 128,-1,28
 139 411 139 411 177 370 c 128,-1,29
 215 329 215 329 288 329 c 0,30,31
 418 329 418 329 477 439 c 1,32,33
 450 623 450 623 294 623 c 0,25,26
EndSplineSet
Substitution2: "'onum' Oldstyle Figures lookup 17 subtable" nine.oldstyle
Substitution2: "'subs' Subscript lookup 15 subtable" nineinferior
Substitution2: "'sinf' Scientific Inferiors lookup 14 subtable" nineinferior
Substitution2: "'sups' Superscript lookup 13 subtable" ninesuperior
Substitution2: "'dnom' Denominators lookup 11 subtable" nine.denominator
Substitution2: "'numr' Numerators lookup 10 subtable" nine.numerator
Substitution2: "'frac' Diagonal Fractions lookup 7 subtable" nine.numerator
AlternateSubs2: "'aalt' Access All Alternates lookup 1 subtable" nine.numerator nine.denominator ninesuperior nineinferior nine.oldstyle
EndChar

StartChar: colon
Encoding: 58 58 27
Width: 260
Flags: W
HStem: 0 112<74 186> 398 112<74 186>
VStem: 74 112<0 112 398 510>
LayerCount: 2
Fore
SplineSet
74 398 m 1,0,-1
 74 510 l 1,1,-1
 186 510 l 1,2,-1
 186 398 l 1,3,-1
 74 398 l 1,0,-1
74 0 m 1,4,-1
 74 112 l 1,5,-1
 186 112 l 1,6,-1
 186 0 l 1,7,-1
 74 0 l 1,4,-1
EndSplineSet
EndChar

StartChar: semicolon
Encoding: 59 59 28
Width: 260
Flags: W
HStem: 0 112<74 129> 398 112<74 186>
VStem: 74 112<0 112 398 510> 129 57<-68.696 0>
LayerCount: 2
Fore
SplineSet
74 398 m 1,0,-1
 74 510 l 1,1,-1
 186 510 l 1,2,-1
 186 398 l 1,3,-1
 74 398 l 1,0,-1
74 112 m 1,4,-1
 186 112 l 1,5,-1
 186 0 l 2,6,7
 186 -116 186 -116 74 -163 c 1,8,-1
 74 -98 l 1,9,10
 129 -68 129 -68 129 0 c 1,11,-1
 74 0 l 1,12,-1
 74 112 l 1,4,-1
EndSplineSet
EndChar

StartChar: less
Encoding: 60 60 29
Width: 580
Flags: W
LayerCount: 2
Fore
SplineSet
512 550 m 1,0,-1
 512 462 l 1,1,-1
 145 297 l 1,2,-1
 145 295 l 1,3,-1
 512 130 l 1,4,-1
 512 42 l 1,5,-1
 41 256 l 1,6,-1
 41 336 l 1,7,-1
 512 550 l 1,0,-1
EndSplineSet
EndChar

StartChar: equal
Encoding: 61 61 30
Width: 712
Flags: W
HStem: 180 78<78 634> 404 78<78 634>
LayerCount: 2
Fore
SplineSet
634 404 m 1,0,-1
 78 404 l 1,1,-1
 78 482 l 1,2,-1
 634 482 l 1,3,-1
 634 404 l 1,0,-1
634 180 m 1,4,-1
 78 180 l 1,5,-1
 78 258 l 1,6,-1
 634 258 l 1,7,-1
 634 180 l 1,4,-1
EndSplineSet
EndChar

StartChar: greater
Encoding: 62 62 31
Width: 580
Flags: W
LayerCount: 2
Fore
SplineSet
68 462 m 1,0,-1
 68 550 l 1,1,-1
 539 336 l 1,2,-1
 539 256 l 1,3,-1
 68 42 l 1,4,-1
 68 130 l 1,5,-1
 435 295 l 1,6,-1
 435 297 l 1,7,-1
 68 462 l 1,0,-1
EndSplineSet
EndChar

StartChar: question
Encoding: 63 63 32
Width: 497
Flags: W
HStem: 0 112<164 276> 623 85<115.808 317.33>
VStem: 164 112<0 112> 176 88<193 282.125> 362 90<459.083 582>
LayerCount: 2
Fore
SplineSet
164 0 m 1,0,-1
 164 112 l 1,1,-1
 276 112 l 1,2,-1
 276 0 l 1,3,-1
 164 0 l 1,0,-1
42 655 m 1,4,5
 137 708 137 708 233 708 c 128,-1,6
 329 708 329 708 390.5 657 c 128,-1,7
 452 606 452 606 452 519 c 0,8,9
 452 473 452 473 432.5 437.5 c 128,-1,10
 413 402 413 402 385.5 379 c 128,-1,11
 358 356 358 356 330.5 333.5 c 0,12,13
 264 279.090909091 264 279.090909091 264 205 c 2,14,-1
 264 193 l 1,15,-1
 176 193 l 1,16,-1
 176 209 l 2,17,18
 176 262 176 262 195 303.5 c 128,-1,19
 214 345 214 345 241.5 370.5 c 128,-1,20
 269 396 269 396 296.5 417 c 0,21,22
 362 467.018181818 362 467.018181818 362 514 c 0,23,24
 362 623 362 623 219 623 c 0,25,26
 136 623 136 623 46 564 c 1,27,-1
 42 564 l 1,28,-1
 42 655 l 1,4,5
EndSplineSet
Substitution2: "'c2sc' Capitals to Small Capitals lookup 16 subtable" question.smcp
Substitution2: "'aalt' Access All Alternates lookup 0 subtable" question.smcp
EndChar

StartChar: at
Encoding: 64 64 33
Width: 898
Flags: W
HStem: -83 52<282.153 544.096> 94 69<339.756 488.448> 95 47<632.981 737.648> 442 71<376.925 545.111> 635 53<347.992 602.495>
VStem: 49 52<149.716 387.35> 221 77<204.375 367.101> 800 54<219.934 452.179>
LayerCount: 2
Fore
SplineSet
473 688 m 0,0,1
 631 687 631 687 742.5 590 c 128,-1,2
 854 493 854 493 854 342 c 0,3,4
 854 202.977011494 854 202.977011494 775.5 133.5 c 0,5,6
 732 95 732 95 675 95 c 128,-1,7
 618 95 618 95 590 117 c 128,-1,8
 562 139 562 139 556 169 c 1,9,10
 494 94 494 94 391 94 c 0,11,12
 311 94 311 94 266 143 c 128,-1,13
 221 192 221 192 221 270 c 0,14,15
 221 381 221 381 292 447 c 128,-1,16
 363 513 363 513 458 513 c 0,17,18
 533 513 533 513 586 462 c 1,19,-1
 594 505 l 1,20,-1
 669 505 l 1,21,-1
 628 271 l 1,22,23
 621 215 621 215 621 197 c 128,-1,24
 621 179 621 179 633.5 160.5 c 128,-1,25
 646 142 646 142 671 142 c 0,26,27
 733 142 733 142 766.5 196 c 128,-1,28
 800 250 800 250 800 342 c 128,-1,29
 800 434 800 434 750.5 502.5 c 128,-1,30
 701 571 701 571 628 603 c 128,-1,31
 555 635 555 635 473 635 c 0,32,33
 322 635 322 635 211.5 524.5 c 128,-1,34
 101 414 101 414 101 262 c 0,35,36
 101 188 101 188 134.5 122.5 c 128,-1,37
 168 57 168 57 237.5 13 c 128,-1,38
 307 -31 307 -31 400 -31 c 0,39,40
 523 -31 523 -31 642 31 c 1,41,-1
 632 -29 l 1,42,43
 528 -83 528 -83 400 -83 c 0,44,45
 245 -83 245 -83 147 19 c 128,-1,46
 49 121 49 121 49 262 c 0,47,48
 49 375 49 375 106.5 473 c 128,-1,49
 164 571 164 571 262 629.5 c 128,-1,50
 360 688 360 688 473 688 c 0,0,1
559 303 m 2,51,-1
 575 396 l 1,52,53
 531 442 531 442 463 442 c 128,-1,54
 395 442 395 442 346.5 399 c 128,-1,55
 298 356 298 356 298 280 c 0,56,57
 298 222 298 222 330 192.5 c 128,-1,58
 362 163 362 163 413 163 c 0,59,60
 535 163 535 163 559 303 c 2,51,-1
EndSplineSet
EndChar

StartChar: A
Encoding: 65 65 34
Width: 697
Flags: W
HStem: 0 21G<5 112.38 584.62 692> 179 83<215 482> 678 20G<292.519 404.481>
LayerCount: 2
Fore
SplineSet
593 0 m 1,0,-1
 518 179 l 1,1,-1
 179 179 l 1,2,-1
 104 0 l 1,3,-1
 5 0 l 1,4,-1
 301 698 l 1,5,-1
 396 698 l 1,6,-1
 692 0 l 1,7,-1
 593 0 l 1,0,-1
215 267 m 1,8,-1
 215 262 l 1,9,-1
 482 262 l 1,10,-1
 482 267 l 1,11,-1
 350 586 l 1,12,-1
 348 586 l 1,13,-1
 215 267 l 1,8,-1
EndSplineSet
Substitution2: "'c2sc' Capitals to Small Capitals lookup 16 subtable" a.smcp
Substitution2: "'aalt' Access All Alternates lookup 0 subtable" a.smcp
EndChar

StartChar: B
Encoding: 66 66 35
Width: 693
Flags: W
HStem: 0 85<188 496.438> 314 82<188 465.494> 613 85<188 465.011>
VStem: 97 91<85 314 396 613> 515 87<440.696 568.701> 553 88<133.558 264.72>
LayerCount: 2
Fore
SplineSet
641 196 m 0,0,1
 641 0 641 0 384 0 c 2,2,-1
 97 0 l 1,3,-1
 97 698 l 1,4,-1
 378 698 l 2,5,6
 485 698 485 698 543.5 649 c 128,-1,7
 602 600 602 600 602 517 c 0,8,9
 602 407 602 407 506 364 c 1,10,-1
 506 361 l 1,11,12
 641 318 641 318 641 196 c 0,0,1
188 85 m 1,13,-1
 375 85 l 2,14,15
 472 85 472 85 512.5 115 c 128,-1,16
 553 145 553 145 553 200 c 0,17,18
 553 314 553 314 376 314 c 2,19,-1
 188 314 l 1,20,-1
 188 85 l 1,13,-1
188 396 m 1,21,-1
 354 396 l 2,22,23
 443 396 443 396 479 426 c 128,-1,24
 515 456 515 456 515 506.5 c 128,-1,25
 515 557 515 557 476.5 585 c 128,-1,26
 438 613 438 613 371 613 c 2,27,-1
 188 613 l 1,28,-1
 188 396 l 1,21,-1
EndSplineSet
Substitution2: "'c2sc' Capitals to Small Capitals lookup 16 subtable" b.smcp
Substitution2: "'aalt' Access All Alternates lookup 0 subtable" b.smcp
EndChar

StartChar: C
Encoding: 67 67 36
Width: 698
Flags: W
HStem: -10 87<294.638 544.168> 621 87<294.638 544.168>
VStem: 56 91<230.966 467.034>
LayerCount: 2
Fore
SplineSet
638 553 m 1,0,1
 535 621 535 621 411 621 c 128,-1,2
 287 621 287 621 217 545 c 128,-1,3
 147 469 147 469 147 349 c 128,-1,4
 147 229 147 229 217 153 c 128,-1,5
 287 77 287 77 411 77 c 128,-1,6
 535 77 535 77 638 145 c 1,7,-1
 643 145 l 1,8,-1
 643 55 l 1,9,10
 535 -10 535 -10 406 -10 c 0,11,12
 253 -10 253 -10 154.5 87.5 c 128,-1,13
 56 185 56 185 56 349 c 128,-1,14
 56 513 56 513 154.5 610.5 c 128,-1,15
 253 708 253 708 406 708 c 0,16,17
 535 708 535 708 643 643 c 1,18,-1
 643 553 l 1,19,-1
 638 553 l 1,0,1
EndSplineSet
Substitution2: "'c2sc' Capitals to Small Capitals lookup 16 subtable" c.smcp
Substitution2: "'aalt' Access All Alternates lookup 0 subtable" c.smcp
EndChar

StartChar: D
Encoding: 68 68 37
Width: 750
Flags: W
HStem: 0 85<188 452.318> 613 85<188 451.114>
VStem: 97 91<85 613> 606 90<235.39 461.067>
LayerCount: 2
Fore
SplineSet
343 698 m 2,0,1
 429 698 429 698 498.5 667.5 c 128,-1,2
 568 637 568 637 610 586.5 c 0,3,4
 696 483.095238095 696 483.095238095 696 349 c 0,5,6
 696 241.631578947 696 241.631578947 640.5 154 c 0,7,8
 578.770503597 56.5323741007 578.770503597 56.5323741007 471 20 c 0,9,10
 412 0 412 0 343 0 c 2,11,-1
 97 0 l 1,12,-1
 97 698 l 1,13,-1
 343 698 l 2,0,1
332 85 m 2,14,15
 456 85 456 85 531 158 c 128,-1,16
 606 231 606 231 606 349 c 128,-1,17
 606 467 606 467 531 540 c 128,-1,18
 456 613 456 613 332 613 c 2,19,-1
 188 613 l 1,20,-1
 188 85 l 1,21,-1
 332 85 l 2,14,15
EndSplineSet
Substitution2: "'c2sc' Capitals to Small Capitals lookup 16 subtable" d.smcp
Substitution2: "'aalt' Access All Alternates lookup 0 subtable" d.smcp
EndChar

StartChar: E
Encoding: 69 69 38
Width: 638
Flags: W
HStem: 0 85<188 581> 307 85<188 545> 613 85<188 581>
VStem: 97 91<85 307 392 613>
LayerCount: 2
Fore
SplineSet
581 613 m 1,0,-1
 188 613 l 1,1,-1
 188 392 l 1,2,-1
 545 392 l 1,3,-1
 545 307 l 1,4,-1
 188 307 l 1,5,-1
 188 85 l 1,6,-1
 581 85 l 1,7,-1
 581 0 l 1,8,-1
 97 0 l 1,9,-1
 97 698 l 1,10,-1
 581 698 l 1,11,-1
 581 613 l 1,0,-1
EndSplineSet
Substitution2: "'c2sc' Capitals to Small Capitals lookup 16 subtable" e.smcp
Substitution2: "'aalt' Access All Alternates lookup 0 subtable" e.smcp
EndChar

StartChar: F
Encoding: 70 70 39
Width: 610
Flags: W
HStem: 0 21G<97 188> 307 85<188 534> 613 85<188 569>
VStem: 97 91<0 307 392 613>
LayerCount: 2
Fore
SplineSet
97 698 m 1,0,-1
 569 698 l 1,1,-1
 569 613 l 1,2,-1
 188 613 l 1,3,-1
 188 392 l 1,4,-1
 534 392 l 1,5,-1
 534 307 l 1,6,-1
 188 307 l 1,7,-1
 188 0 l 1,8,-1
 97 0 l 1,9,-1
 97 698 l 1,0,-1
EndSplineSet
Substitution2: "'c2sc' Capitals to Small Capitals lookup 16 subtable" f.smcp
Substitution2: "'aalt' Access All Alternates lookup 0 subtable" f.smcp
EndChar

StartChar: G
Encoding: 71 71 40
Width: 744
Flags: W
HStem: -10 86<299.994 542.755> 301 82<410 593> 620 88<298.926 536.205>
VStem: 55 91<232.631 468.817> 593 80<109.688 301>
LayerCount: 2
Fore
SplineSet
410 383 m 1,0,-1
 673 383 l 1,1,-1
 673 67 l 1,2,3
 544 -10 544 -10 406 -10 c 0,4,5
 249 -10 249 -10 152 90 c 128,-1,6
 55 190 55 190 55 349 c 128,-1,7
 55 508 55 508 155 608 c 128,-1,8
 255 708 255 708 395.5 708 c 128,-1,9
 536 708 536 708 662 631 c 1,10,-1
 662 537 l 1,11,-1
 658 537 l 1,12,13
 535 620 535 620 415.5 620 c 128,-1,14
 296 620 296 620 221 548 c 128,-1,15
 146 476 146 476 146 352.5 c 128,-1,16
 146 229 146 229 219 152.5 c 128,-1,17
 292 76 292 76 418 76 c 0,18,19
 512 76 512 76 593 120 c 1,20,-1
 593 301 l 1,21,-1
 410 301 l 1,22,-1
 410 383 l 1,0,-1
EndSplineSet
Substitution2: "'c2sc' Capitals to Small Capitals lookup 16 subtable" g.smcp
Substitution2: "'aalt' Access All Alternates lookup 0 subtable" g.smcp
EndChar

StartChar: H
Encoding: 72 72 41
Width: 755
Flags: W
HStem: 0 21G<97 188 567 658> 306 85<188 567> 678 20G<97 188 567 658>
VStem: 97 91<0 306 391 698> 567 91<0 306 391 698>
LayerCount: 2
Fore
SplineSet
567 698 m 1,0,-1
 658 698 l 1,1,-1
 658 0 l 1,2,-1
 567 0 l 1,3,-1
 567 306 l 1,4,-1
 188 306 l 1,5,-1
 188 0 l 1,6,-1
 97 0 l 1,7,-1
 97 698 l 1,8,-1
 188 698 l 1,9,-1
 188 391 l 1,10,-1
 567 391 l 1,11,-1
 567 698 l 1,0,-1
EndSplineSet
Substitution2: "'c2sc' Capitals to Small Capitals lookup 16 subtable" h.smcp
Substitution2: "'aalt' Access All Alternates lookup 0 subtable" h.smcp
EndChar

StartChar: I
Encoding: 73 73 42
Width: 285
Flags: W
HStem: 0 21G<97 188> 678 20G<97 188>
VStem: 97 91<0 698>
LayerCount: 2
Fore
SplineSet
188 698 m 1,0,-1
 188 0 l 1,1,-1
 97 0 l 1,2,-1
 97 698 l 1,3,-1
 188 698 l 1,0,-1
EndSplineSet
Substitution2: "'c2sc' Capitals to Small Capitals lookup 16 subtable" i.smcp
Substitution2: "'aalt' Access All Alternates lookup 0 subtable" i.smcp
EndChar

StartChar: J
Encoding: 74 74 43
Width: 466
Flags: W
HStem: -10 86<65.7338 236.342> 678 20G<282 373>
VStem: 282 91<121.863 698>
LayerCount: 2
Fore
SplineSet
282 698 m 1,0,-1
 373 698 l 1,1,-1
 373 230 l 2,2,3
 373 99 373 99 314.5 44.5 c 128,-1,4
 256 -10 256 -10 173.5 -10 c 128,-1,5
 91 -10 91 -10 24 31 c 1,6,-1
 24 121 l 1,7,-1
 28 121 l 1,8,9
 89 76 89 76 152 76 c 128,-1,10
 215 76 215 76 248.5 107 c 128,-1,11
 282 138 282 138 282 224 c 2,12,-1
 282 698 l 1,0,-1
EndSplineSet
Substitution2: "'c2sc' Capitals to Small Capitals lookup 16 subtable" j.smcp
Substitution2: "'aalt' Access All Alternates lookup 0 subtable" j.smcp
EndChar

StartChar: K
Encoding: 75 75 44
Width: 670
Flags: W
HStem: 0 21G<97 188 546.824 673> 678 20G<97 188 509.12 647>
VStem: 97 91<0 225 341 698>
LayerCount: 2
Fore
SplineSet
362 404 m 1,0,-1
 673 0 l 1,1,-1
 562 0 l 1,2,-1
 304 340 l 1,3,-1
 299 340 l 1,4,-1
 188 225 l 1,5,-1
 188 0 l 1,6,-1
 97 0 l 1,7,-1
 97 698 l 1,8,-1
 188 698 l 1,9,-1
 188 341 l 1,10,-1
 191 341 l 1,11,-1
 528 698 l 1,12,-1
 647 698 l 1,13,-1
 362 404 l 1,0,-1
EndSplineSet
Substitution2: "'c2sc' Capitals to Small Capitals lookup 16 subtable" k.smcp
Substitution2: "'aalt' Access All Alternates lookup 0 subtable" k.smcp
EndChar

StartChar: L
Encoding: 76 76 45
Width: 576
Flags: W
HStem: 0 91<188 556> 678 20G<97 188>
VStem: 97 91<91 698>
LayerCount: 2
Fore
SplineSet
556 91 m 1,0,-1
 556 0 l 1,1,-1
 97 0 l 1,2,-1
 97 698 l 1,3,-1
 188 698 l 1,4,-1
 188 91 l 1,5,-1
 556 91 l 1,0,-1
EndSplineSet
Substitution2: "'c2sc' Capitals to Small Capitals lookup 16 subtable" l.smcp
Substitution2: "'aalt' Access All Alternates lookup 0 subtable" l.smcp
EndChar

StartChar: M
Encoding: 77 77 46
Width: 966
Flags: W
HStem: 0 21G<97 188 427.794 538.173 778 869> 678 20G<97 247.141 718.859 869>
VStem: 97 91<0 602> 778 91<0 602>
LayerCount: 2
Fore
SplineSet
727 698 m 1,0,-1
 869 698 l 1,1,-1
 869 0 l 1,2,-1
 778 0 l 1,3,-1
 778 602 l 1,4,-1
 776 602 l 1,5,-1
 530 0 l 1,6,-1
 436 0 l 1,7,-1
 189 602 l 1,8,-1
 188 602 l 1,9,-1
 188 0 l 1,10,-1
 97 0 l 1,11,-1
 97 698 l 1,12,-1
 239 698 l 1,13,-1
 482 101 l 1,14,-1
 484 101 l 1,15,-1
 727 698 l 1,0,-1
EndSplineSet
Substitution2: "'c2sc' Capitals to Small Capitals lookup 16 subtable" m.smcp
Substitution2: "'aalt' Access All Alternates lookup 0 subtable" m.smcp
EndChar

StartChar: N
Encoding: 78 78 47
Width: 803
Flags: W
HStem: 0 21G<97 188 579.948 706> 678 20G<97 223.042 615 706>
VStem: 97 91<0 575> 615 91<124 698>
LayerCount: 2
Fore
SplineSet
615 698 m 1,0,-1
 706 698 l 1,1,-1
 706 0 l 1,2,-1
 594 0 l 1,3,-1
 190 575 l 1,4,-1
 188 575 l 1,5,-1
 188 0 l 1,6,-1
 97 0 l 1,7,-1
 97 698 l 1,8,-1
 209 698 l 1,9,-1
 612 124 l 1,10,-1
 615 124 l 1,11,-1
 615 698 l 1,0,-1
EndSplineSet
Substitution2: "'c2sc' Capitals to Small Capitals lookup 16 subtable" n.smcp
Substitution2: "'aalt' Access All Alternates lookup 0 subtable" n.smcp
EndChar

StartChar: O
Encoding: 79 79 48
Width: 811
Flags: W
HStem: -10 85<292.019 517.46> 623 85<292.019 517.46>
VStem: 55 91<228.903 469.097> 666 91<230.403 467.597>
LayerCount: 2
Fore
SplineSet
406 708 m 128,-1,1
 564 708 564 708 659 608 c 128,-1,2
 754 508 754 508 757 349 c 1,3,4
 754 190 754 190 659 90 c 128,-1,5
 564 -10 564 -10 406 -10 c 128,-1,6
 248 -10 248 -10 153 90 c 128,-1,7
 58 190 58 190 55 349 c 1,8,9
 58 508 58 508 153 608 c 128,-1,0
 248 708 248 708 406 708 c 128,-1,1
215.5 152.5 m 128,-1,11
 285 75 285 75 405.5 75 c 128,-1,12
 526 75 526 75 596 152.5 c 128,-1,13
 666 230 666 230 666 349 c 128,-1,14
 666 468 666 468 596 545.5 c 128,-1,15
 526 623 526 623 405.5 623 c 128,-1,16
 285 623 285 623 215.5 545.5 c 128,-1,17
 146 468 146 468 146 349 c 128,-1,10
 146 230 146 230 215.5 152.5 c 128,-1,11
EndSplineSet
Substitution2: "'c2sc' Capitals to Small Capitals lookup 16 subtable" o.smcp
Substitution2: "'aalt' Access All Alternates lookup 0 subtable" o.smcp
EndChar

StartChar: P
Encoding: 80 80 49
Width: 669
Flags: W
HStem: 0 21G<97 188> 254 86<188 478.686> 612 86<188 478.686>
VStem: 97 91<0 254 340 612> 546 91<402.414 549.586>
LayerCount: 2
Fore
SplineSet
370 698 m 2,0,1
 442 698 442 698 496 678.5 c 128,-1,2
 550 659 550 659 579.5 626 c 128,-1,3
 609 593 609 593 623 555.5 c 128,-1,4
 637 518 637 518 637 476 c 128,-1,5
 637 434 637 434 623 396.5 c 128,-1,6
 609 359 609 359 579.5 326 c 128,-1,7
 550 293 550 293 496 273.5 c 128,-1,8
 442 254 442 254 370 254 c 2,9,-1
 188 254 l 1,10,-1
 188 0 l 1,11,-1
 97 0 l 1,12,-1
 97 698 l 1,13,-1
 370 698 l 2,0,1
361 340 m 2,14,15
 463 340 463 340 504.5 379 c 128,-1,16
 546 418 546 418 546 476 c 128,-1,17
 546 534 546 534 504.5 573 c 128,-1,18
 463 612 463 612 361 612 c 2,19,-1
 188 612 l 1,20,-1
 188 340 l 1,21,-1
 361 340 l 2,14,15
EndSplineSet
Substitution2: "'c2sc' Capitals to Small Capitals lookup 16 subtable" p.smcp
Substitution2: "'aalt' Access All Alternates lookup 0 subtable" p.smcp
EndChar

StartChar: Q
Encoding: 81 81 50
Width: 812
Flags: W
HStem: -10 85<292.019 475.402> 623 85<292.019 517.46>
VStem: 55 91<228.903 469.097> 666 91<230.555 467.597>
LayerCount: 2
Fore
SplineSet
552 18 m 1,0,-1
 552 15 l 1,1,-1
 688 -137 l 1,2,-1
 688 -140 l 1,3,-1
 576 -140 l 1,4,-1
 466 -6 l 1,5,6
 441 -10 441 -10 406 -10 c 0,7,8
 248 -10 248 -10 153 90 c 128,-1,9
 58 190 58 190 55 349 c 1,10,11
 58 508 58 508 153 608 c 128,-1,12
 248 708 248 708 406 708 c 128,-1,13
 564 708 564 708 659 608 c 128,-1,14
 754 508 754 508 757 349 c 1,15,16
 755 232 755 232 700.5 144.5 c 128,-1,17
 646 57 646 57 552 18 c 1,0,-1
215.5 152.5 m 128,-1,19
 285 75 285 75 405.5 75 c 128,-1,20
 526 75 526 75 596 152.5 c 128,-1,21
 666 230 666 230 666 349 c 128,-1,22
 666 468 666 468 596 545.5 c 128,-1,23
 526 623 526 623 405.5 623 c 128,-1,24
 285 623 285 623 215.5 545.5 c 128,-1,25
 146 468 146 468 146 349 c 128,-1,18
 146 230 146 230 215.5 152.5 c 128,-1,19
EndSplineSet
Substitution2: "'c2sc' Capitals to Small Capitals lookup 16 subtable" q.smcp
Substitution2: "'aalt' Access All Alternates lookup 0 subtable" q.smcp
EndChar

StartChar: R
Encoding: 82 82 51
Width: 712
Flags: W
HStem: 0 21G<97 188 552 653> 272 86<188 483.368> 612 86<188 494>
VStem: 97 91<0 272 358 612> 545 91<4.81396 201.253> 556 91<0 173.688 418.62 558.386>
LayerCount: 2
Fore
SplineSet
636 86 m 2,0,-1
 636 62 l 2,1,2
 636 30 636 30 653 4 c 1,3,-1
 653 0 l 1,4,-1
 559 0 l 1,5,6
 545 23 545 23 545 54 c 2,7,-1
 545 70 l 2,8,9
 545 162.421052632 545 162.421052632 526.5 196.5 c 0,10,11
 517 214 517 214 501.5 233.5 c 0,12,13
 470.897435897 272 470.897435897 272 395 272 c 2,14,-1
 188 272 l 1,15,-1
 188 0 l 1,16,-1
 97 0 l 1,17,-1
 97 698 l 1,18,-1
 375 698 l 2,19,20
 511 698 511 698 579 642 c 128,-1,21
 647 586 647 586 647 495 c 0,22,23
 647 434 647 434 614 385.5 c 128,-1,24
 581 337 581 337 518 315 c 1,25,-1
 518 313 l 1,26,27
 636 282 636 282 636 86 c 2,0,-1
369 358 m 2,28,29
 455 358 455 358 505.5 392 c 128,-1,30
 556 426 556 426 556 487 c 128,-1,31
 556 548 556 548 512.5 580 c 128,-1,32
 469 612 469 612 364 612 c 2,33,-1
 188 612 l 1,34,-1
 188 358 l 1,35,-1
 369 358 l 2,28,29
EndSplineSet
Substitution2: "'c2sc' Capitals to Small Capitals lookup 16 subtable" r.smcp
Substitution2: "'aalt' Access All Alternates lookup 0 subtable" r.smcp
EndChar

StartChar: S
Encoding: 83 83 52
Width: 616
Flags: W
HStem: -10 85<156.784 425.862> 44 89<66 112.808> 587 85<451.532 522> 625 83<215.147 469.472>
VStem: 58 90<453.518 569.91> 483 90<124.943 240.366>
LayerCount: 2
Fore
SplineSet
148 510 m 0,0,1
 148 470 148 470 179.5 444 c 128,-1,2
 211 418 211 418 258 407.5 c 128,-1,3
 305 397 305 397 360.5 381.5 c 128,-1,4
 416 366 416 366 463 348 c 128,-1,5
 510 330 510 330 541.5 288.5 c 128,-1,6
 573 247 573 247 573 185 c 0,7,8
 573 99 573 99 502.5 44.5 c 128,-1,9
 432 -10 432 -10 306 -10 c 128,-1,10
 180 -10 180 -10 66 44 c 1,11,-1
 66 133 l 1,12,-1
 71 133 l 1,13,14
 175 75 175 75 308 75 c 0,15,16
 483 75 483 75 483 191 c 0,17,18
 483 247.96 483 247.96 398.5 275 c 0,19,20
 361 287 361 287 316 298 c 128,-1,21
 271 309 271 309 225.5 324 c 128,-1,22
 180 339 180 339 142.5 359.5 c 128,-1,23
 105 380 105 380 81.5 416.5 c 128,-1,24
 58 453 58 453 58 503 c 0,25,26
 58 590 58 590 126.5 649 c 128,-1,27
 195 708 195 708 311.5 708 c 128,-1,28
 428 708 428 708 522 672 c 1,29,-1
 522 587 l 1,30,-1
 515 587 l 1,31,32
 421 625 421 625 334.5 625 c 128,-1,33
 248 625 248 625 198 594.5 c 128,-1,34
 148 564 148 564 148 510 c 0,0,1
EndSplineSet
Substitution2: "'c2sc' Capitals to Small Capitals lookup 16 subtable" s.smcp
Substitution2: "'aalt' Access All Alternates lookup 0 subtable" s.smcp
EndChar

StartChar: T
Encoding: 84 84 53
Width: 611
Flags: W
HStem: 0 21G<260 351> 613 85<19 260 351 592>
VStem: 260 91<0 613>
LayerCount: 2
Fore
SplineSet
592 698 m 1,0,-1
 592 613 l 1,1,-1
 351 613 l 1,2,-1
 351 0 l 1,3,-1
 260 0 l 1,4,-1
 260 613 l 1,5,-1
 19 613 l 1,6,-1
 19 698 l 1,7,-1
 592 698 l 1,0,-1
EndSplineSet
Substitution2: "'c2sc' Capitals to Small Capitals lookup 16 subtable" t.smcp
Substitution2: "'aalt' Access All Alternates lookup 0 subtable" t.smcp
EndChar

StartChar: U
Encoding: 85 85 54
Width: 758
Flags: W
HStem: -10 83<282.81 475.19> 678 20G<92 183 575 666>
VStem: 92 91<166.375 698> 575 91<166.375 698>
LayerCount: 2
Fore
SplineSet
575 698 m 1,0,-1
 666 698 l 1,1,-1
 666 262 l 2,2,3
 666 194 666 194 640.5 140.5 c 128,-1,4
 615 87 615 87 572.5 55 c 128,-1,5
 530 23 530 23 480.5 6.5 c 128,-1,6
 431 -10 431 -10 379 -10 c 128,-1,7
 327 -10 327 -10 277.5 6.5 c 128,-1,8
 228 23 228 23 185.5 55 c 128,-1,9
 143 87 143 87 117.5 140.5 c 128,-1,10
 92 194 92 194 92 262 c 2,11,-1
 92 698 l 1,12,-1
 183 698 l 1,13,-1
 183 259 l 2,14,15
 183 171 183 171 241 122 c 128,-1,16
 299 73 299 73 379 73 c 128,-1,17
 459 73 459 73 517 122 c 128,-1,18
 575 171 575 171 575 259 c 2,19,-1
 575 698 l 1,0,-1
EndSplineSet
Substitution2: "'c2sc' Capitals to Small Capitals lookup 16 subtable" u.smcp
Substitution2: "'aalt' Access All Alternates lookup 0 subtable" u.smcp
EndChar

StartChar: V
Encoding: 86 86 55
Width: 694
Flags: W
HStem: 0 21G<284.748 409.252> 678 20G<5 111.967 583 689>
LayerCount: 2
Fore
SplineSet
591 698 m 1,0,-1
 689 698 l 1,1,-1
 401 0 l 1,2,-1
 293 0 l 1,3,-1
 5 698 l 1,4,-1
 104 698 l 1,5,-1
 345 93 l 1,6,-1
 349 93 l 1,7,-1
 591 698 l 1,0,-1
EndSplineSet
Substitution2: "'c2sc' Capitals to Small Capitals lookup 16 subtable" v.smcp
Substitution2: "'aalt' Access All Alternates lookup 0 subtable" v.smcp
EndChar

StartChar: W
Encoding: 87 87 56
Width: 1007
Flags: W
HStem: 0 21G<233.467 337.273 669.727 773.533> 678 20G<12 113.111 457.819 549.181 893.889 995>
LayerCount: 2
Fore
SplineSet
900 698 m 1,0,-1
 995 698 l 1,1,-1
 767 0 l 1,2,-1
 676 0 l 1,3,-1
 506 542 l 1,4,-1
 501 542 l 1,5,-1
 331 0 l 1,6,-1
 240 0 l 1,7,-1
 12 698 l 1,8,-1
 107 698 l 1,9,-1
 283 122 l 1,10,-1
 286 122 l 1,11,-1
 464 698 l 1,12,-1
 543 698 l 1,13,-1
 721 122 l 1,14,-1
 724 122 l 1,15,-1
 900 698 l 1,0,-1
EndSplineSet
Substitution2: "'c2sc' Capitals to Small Capitals lookup 16 subtable" w.smcp
Substitution2: "'aalt' Access All Alternates lookup 0 subtable" w.smcp
EndChar

StartChar: X
Encoding: 88 88 57
Width: 669
Flags: W
HStem: 0 21G<15 137.714 528.071 656> 678 20G<15 143.748 528.324 653>
LayerCount: 2
Fore
SplineSet
386 350 m 1,0,-1
 656 0 l 1,1,-1
 543 0 l 1,2,-1
 334 280 l 1,3,-1
 329 280 l 1,4,-1
 123 0 l 1,5,-1
 15 0 l 1,6,-1
 283 349 l 1,7,-1
 15 698 l 1,8,-1
 129 698 l 1,9,-1
 334 420 l 1,10,-1
 339 420 l 1,11,-1
 543 698 l 1,12,-1
 653 698 l 1,13,-1
 386 350 l 1,0,-1
EndSplineSet
Substitution2: "'c2sc' Capitals to Small Capitals lookup 16 subtable" x.smcp
Substitution2: "'aalt' Access All Alternates lookup 0 subtable" x.smcp
EndChar

StartChar: Y
Encoding: 89 89 58
Width: 645
Flags: W
HStem: 0 21G<277 368> 678 20G<-7 117.542 527.458 652>
VStem: 277 91<0 295>
LayerCount: 2
Fore
SplineSet
541 698 m 1,0,-1
 652 698 l 1,1,-1
 368 295 l 1,2,-1
 368 0 l 1,3,-1
 277 0 l 1,4,-1
 277 295 l 1,5,-1
 -7 698 l 1,6,-1
 104 698 l 1,7,-1
 320 379 l 1,8,-1
 325 379 l 1,9,-1
 541 698 l 1,0,-1
EndSplineSet
Substitution2: "'c2sc' Capitals to Small Capitals lookup 16 subtable" y.smcp
Substitution2: "'aalt' Access All Alternates lookup 0 subtable" y.smcp
EndChar

StartChar: Z
Encoding: 90 90 59
Width: 638
Flags: W
HStem: 0 85<161 587> 611 87<55 473>
LayerCount: 2
Fore
SplineSet
587 698 m 1,0,-1
 587 616 l 1,1,-1
 161 88 l 1,2,-1
 161 85 l 1,3,-1
 587 85 l 1,4,-1
 587 0 l 1,5,-1
 47 0 l 1,6,-1
 47 80 l 1,7,-1
 473 607 l 1,8,-1
 473 611 l 1,9,-1
 55 611 l 1,10,-1
 55 698 l 1,11,-1
 587 698 l 1,0,-1
EndSplineSet
Substitution2: "'c2sc' Capitals to Small Capitals lookup 16 subtable" z.smcp
Substitution2: "'aalt' Access All Alternates lookup 0 subtable" z.smcp
EndChar

StartChar: bracketleft
Encoding: 91 91 60
Width: 322
Flags: W
HStem: -132 71<166 288> 660 72<166 288>
VStem: 87 201<-132 -61 660 732> 87 79<-61 660>
LayerCount: 2
Fore
SplineSet
288 660 m 1,0,-1
 166 660 l 1,1,-1
 166 -61 l 1,2,-1
 288 -61 l 1,3,-1
 288 -132 l 1,4,-1
 87 -132 l 1,5,-1
 87 732 l 1,6,-1
 288 732 l 1,7,-1
 288 660 l 1,0,-1
EndSplineSet
EndChar

StartChar: backslash
Encoding: 92 92 61
Width: 443
Flags: W
LayerCount: 2
Fore
SplineSet
35 751 m 1,0,-1
 121 751 l 1,1,-1
 407 -85 l 1,2,-1
 321 -85 l 1,3,-1
 35 751 l 1,0,-1
EndSplineSet
EndChar

StartChar: bracketright
Encoding: 93 93 62
Width: 322
Flags: W
HStem: -132 71<34 156> 660 72<34 156>
VStem: 34 201<-132 -61 660 732> 156 79<-61 660>
LayerCount: 2
Fore
SplineSet
156 660 m 1,0,-1
 34 660 l 1,1,-1
 34 732 l 1,2,-1
 235 732 l 1,3,-1
 235 -132 l 1,4,-1
 34 -132 l 1,5,-1
 34 -61 l 1,6,-1
 156 -61 l 1,7,-1
 156 660 l 1,0,-1
EndSplineSet
EndChar

StartChar: asciicircum
Encoding: 94 94 63
Width: 524
Flags: W
HStem: 426 272
LayerCount: 2
Fore
SplineSet
378 426 m 1,0,-1
 262 611 l 1,1,-1
 260 611 l 1,2,-1
 145 426 l 1,3,-1
 65 426 l 1,4,-1
 212 698 l 1,5,-1
 312 698 l 1,6,-1
 459 426 l 1,7,-1
 378 426 l 1,0,-1
EndSplineSet
EndChar

StartChar: underscore
Encoding: 95 95 64
Width: 663
Flags: W
HStem: -147 66<57 606>
LayerCount: 2
Fore
SplineSet
606 -147 m 1,0,-1
 57 -147 l 1,1,-1
 57 -81 l 1,2,-1
 606 -81 l 1,3,-1
 606 -147 l 1,0,-1
EndSplineSet
EndChar

StartChar: grave
Encoding: 96 96 65
Width: 246
Flags: W
HStem: 578 133
VStem: 35 175
LayerCount: 2
Fore
SplineSet
35 711 m 1,0,-1
 134 711 l 1,1,-1
 210 578 l 1,2,-1
 148 578 l 1,3,-1
 35 711 l 1,0,-1
EndSplineSet
EndChar

StartChar: a
Encoding: 97 97 66
Width: 555
Flags: W
HStem: -10 80<153.376 310.243> 0 21G<396.562 480> 229 73<164.427 389> 400 82<88 149.29> 434 86<132.087 345.78>
VStem: 38 91<93.8725 198.023> 389 91<23.2727 64 123.356 229 302 391.684> 400 80<0 40.7273>
LayerCount: 2
Fore
SplineSet
88 482 m 1,0,1
 175 520 175 520 274.5 520 c 128,-1,2
 374 520 374 520 427 462 c 128,-1,3
 480 404 480 404 480 323 c 2,4,-1
 480 0 l 1,5,-1
 400 0 l 1,6,-1
 389 64 l 1,7,-1
 386 64 l 1,8,9
 314 -10 314 -10 201 -10 c 0,10,11
 133 -10 133 -10 85.5 31 c 128,-1,12
 38 72 38 72 38 143 c 128,-1,13
 38 214 38 214 96.5 258 c 128,-1,14
 155 302 155 302 268 302 c 2,15,-1
 389 302 l 1,16,-1
 389 310 l 2,17,18
 389 376 389 376 356.5 405 c 128,-1,19
 324 434 324 434 244 434 c 128,-1,20
 164 434 164 434 94 400 c 1,21,-1
 88 400 l 1,22,-1
 88 482 l 1,0,1
389 145 m 1,23,-1
 389 229 l 1,24,-1
 280 229 l 2,25,26
 129 229 129 229 129 149.5 c 128,-1,27
 129 70 129 70 235 70 c 0,28,29
 279 70 279 70 320 91.5 c 128,-1,30
 361 113 361 113 389 145 c 1,23,-1
EndSplineSet
Substitution2: "Single Substitution lookup 30 subtable" ordfeminine
Substitution2: "'ss01' Style Set 1 lookup 27 subtable" a.alt
Substitution2: "'smcp' Lowercase to Small Capitals lookup 22 subtable" a.smcp
AlternateSubs2: "'aalt' Access All Alternates lookup 1 subtable" ordfeminine a.smcp a.alt
EndChar

StartChar: b
Encoding: 98 98 67
Width: 631
Flags: W
HStem: -10 85<244.388 413.695> 0 21G<79 162.438> 435 85<244.388 413.695>
VStem: 79 91<128.394 381.606 446 730> 79 80<0 40.7273> 492 91<155.294 354.706>
LayerCount: 2
Fore
SplineSet
341 520 m 128,-1,1
 438 520 438 520 510.5 448 c 128,-1,2
 583 376 583 376 583 255 c 128,-1,3
 583 134 583 134 510.5 62 c 128,-1,4
 438 -10 438 -10 341 -10 c 128,-1,5
 244 -10 244 -10 173 64 c 1,6,-1
 170 64 l 1,7,-1
 159 0 l 1,8,-1
 79 0 l 1,9,-1
 79 730 l 1,10,-1
 170 730 l 1,11,-1
 170 446 l 1,12,-1
 173 446 l 1,13,0
 244 520 244 520 341 520 c 128,-1,1
328 75 m 0,14,15
 402 75 402 75 447 122 c 128,-1,16
 492 169 492 169 492 255 c 128,-1,17
 492 341 492 341 447 388 c 128,-1,18
 402 435 402 435 328 435 c 0,19,20
 238 435 238 435 170 360 c 1,21,-1
 170 150 l 1,22,23
 238 75 238 75 328 75 c 0,14,15
EndSplineSet
Substitution2: "'smcp' Lowercase to Small Capitals lookup 22 subtable" b.smcp
Substitution2: "'aalt' Access All Alternates lookup 0 subtable" b.smcp
EndChar

StartChar: c
Encoding: 99 99 68
Width: 536
Flags: W
HStem: -10 85<224.668 428.879> 435 85<224.668 428.879>
VStem: 46 91<161.94 348.06>
LayerCount: 2
Fore
SplineSet
482 385 m 1,0,1
 408 435 408 435 321.5 435 c 128,-1,2
 235 435 235 435 186 385.5 c 128,-1,3
 137 336 137 336 137 255 c 128,-1,4
 137 174 137 174 186 124.5 c 128,-1,5
 235 75 235 75 321.5 75 c 128,-1,6
 408 75 408 75 482 125 c 1,7,-1
 486 125 l 1,8,-1
 486 39 l 1,9,10
 403 -10 403 -10 313 -10 c 0,11,12
 202 -10 202 -10 124 62 c 128,-1,13
 46 134 46 134 46 255 c 128,-1,14
 46 376 46 376 124 448 c 128,-1,15
 202 520 202 520 313 520 c 0,16,17
 403 520 403 520 486 471 c 1,18,-1
 486 385 l 1,19,-1
 482 385 l 1,0,1
EndSplineSet
Substitution2: "'smcp' Lowercase to Small Capitals lookup 22 subtable" c.smcp
Substitution2: "'aalt' Access All Alternates lookup 0 subtable" c.smcp
EndChar

StartChar: d
Encoding: 100 100 69
Width: 631
Flags: W
HStem: -10 85<217.305 386.612> 0 21G<468.562 552> 435 85<217.305 386.612>
VStem: 48 91<155.294 354.706> 461 91<128.394 381.606 446 730> 472 80<0 40.7273>
LayerCount: 2
Fore
SplineSet
290 520 m 128,-1,1
 387 520 387 520 458 446 c 1,2,-1
 461 446 l 1,3,-1
 461 730 l 1,4,-1
 552 730 l 1,5,-1
 552 0 l 1,6,-1
 472 0 l 1,7,-1
 461 64 l 1,8,-1
 458 64 l 1,9,10
 387 -10 387 -10 290 -10 c 128,-1,11
 193 -10 193 -10 120.5 62 c 128,-1,12
 48 134 48 134 48 255 c 128,-1,13
 48 376 48 376 120.5 448 c 128,-1,0
 193 520 193 520 290 520 c 128,-1,1
303 75 m 0,14,15
 393 75 393 75 461 150 c 1,16,-1
 461 360 l 1,17,18
 393 435 393 435 303 435 c 0,19,20
 229 435 229 435 184 388 c 128,-1,21
 139 341 139 341 139 255 c 128,-1,22
 139 169 139 169 184 122 c 128,-1,23
 229 75 229 75 303 75 c 0,14,15
EndSplineSet
Substitution2: "'smcp' Lowercase to Small Capitals lookup 22 subtable" d.smcp
Substitution2: "'aalt' Access All Alternates lookup 0 subtable" d.smcp
EndChar

StartChar: e
Encoding: 101 101 70
Width: 570
Flags: W
HStem: -10 85<219.273 438.427> 223 74<141 436> 443 77<210.684 365.463>
VStem: 49 92<153.191 223 297 373.328>
LayerCount: 2
Fore
SplineSet
527 255 m 2,0,-1
 527 223 l 1,1,-1
 141 223 l 1,2,3
 149 153 149 153 193 114 c 128,-1,4
 237 75 237 75 326.5 75 c 128,-1,5
 416 75 416 75 492 125 c 1,6,-1
 497 125 l 1,7,-1
 497 37 l 1,8,9
 413 -10 413 -10 299.5 -10 c 128,-1,10
 186 -10 186 -10 117.5 59.5 c 128,-1,11
 49 129 49 129 49 247.5 c 128,-1,12
 49 366 49 366 110 443 c 128,-1,13
 171 520 171 520 288 520 c 128,-1,14
 405 520 405 520 466 443 c 128,-1,15
 527 366 527 366 527 255 c 2,0,-1
141 297 m 1,16,-1
 436 297 l 1,17,18
 432 369 432 369 387.5 406 c 128,-1,19
 343 443 343 443 288 443 c 128,-1,20
 233 443 233 443 189 406 c 128,-1,21
 145 369 145 369 141 297 c 1,16,-1
EndSplineSet
Substitution2: "'smcp' Lowercase to Small Capitals lookup 22 subtable" e.smcp
Substitution2: "'aalt' Access All Alternates lookup 0 subtable" e.smcp
EndChar

StartChar: f
Encoding: 102 102 71
Width: 380
Flags: W
HStem: 0 21G<117 208> 432 78<24 117 208 364> 640 75<301.624 364> 653 87<227.929 358.321>
VStem: 117 91<0 432 510 633.399>
LayerCount: 2
Fore
SplineSet
357 640 m 1,0,1
 320 653 320 653 284.5 653 c 128,-1,2
 249 653 249 653 228.5 634 c 128,-1,3
 208 615 208 615 208 565 c 2,4,-1
 208 510 l 1,5,-1
 364 510 l 1,6,-1
 364 432 l 1,7,-1
 208 432 l 1,8,-1
 208 0 l 1,9,-1
 117 0 l 1,10,-1
 117 432 l 1,11,-1
 24 432 l 1,12,-1
 24 510 l 1,13,-1
 117 510 l 1,14,-1
 117 568 l 2,15,16
 117 655 117 655 161.5 697.5 c 128,-1,17
 206 740 206 740 262.5 740 c 128,-1,18
 319 740 319 740 364 715 c 1,19,-1
 364 640 l 1,20,-1
 357 640 l 1,0,1
EndSplineSet
Substitution2: "'smcp' Lowercase to Small Capitals lookup 22 subtable" f.smcp
Substitution2: "'aalt' Access All Alternates lookup 0 subtable" f.smcp
EndChar

StartChar: g
Encoding: 103 103 72
Width: 631
Flags: W
HStem: -240 86<177.48 398.779> 0 83<218.833 387.502> 437 83<218.833 387.502> 490 20G<468.562 552>
VStem: 48 91<162.763 357.237> 461 91<-89.5 74 137.651 382.349 446 486.727> 472 80<469.273 510>
LayerCount: 2
Fore
SplineSet
472 510 m 1,0,-1
 552 510 l 1,1,-1
 552 22 l 2,2,3
 552 -104 552 -104 491 -172 c 128,-1,4
 430 -240 430 -240 314.5 -240 c 128,-1,5
 199 -240 199 -240 104 -189 c 1,6,-1
 104 -99 l 1,7,-1
 109 -99 l 1,8,9
 194 -154 194 -154 308 -154 c 0,10,11
 461 -154 461 -154 461 9 c 2,12,-1
 461 74 l 1,13,-1
 458 74 l 1,14,15
 389 0 389 0 293 0 c 128,-1,16
 197 0 197 0 122.5 68.5 c 128,-1,17
 48 137 48 137 48 260 c 128,-1,18
 48 383 48 383 122.5 451.5 c 128,-1,19
 197 520 197 520 293 520 c 128,-1,20
 389 520 389 520 458 446 c 1,21,-1
 461 446 l 1,22,-1
 472 510 l 1,0,-1
461 157 m 1,23,-1
 461 363 l 1,24,25
 389 437 389 437 311.5 437 c 128,-1,26
 234 437 234 437 186.5 391.5 c 128,-1,27
 139 346 139 346 139 260 c 128,-1,28
 139 174 139 174 186.5 128.5 c 128,-1,29
 234 83 234 83 311.5 83 c 128,-1,30
 389 83 389 83 461 157 c 1,23,-1
EndSplineSet
Substitution2: "'smcp' Lowercase to Small Capitals lookup 22 subtable" g.smcp
Substitution2: "'aalt' Access All Alternates lookup 0 subtable" g.smcp
EndChar

StartChar: h
Encoding: 104 104 73
Width: 609
Flags: W
HStem: 0 21G<79 170 444 535> 436 84<260.952 406.968>
VStem: 79 91<0 365.102 431 730> 444 91<0 396.598>
LayerCount: 2
Fore
SplineSet
356 520 m 0,0,1
 439 520 439 520 487 464 c 128,-1,2
 535 408 535 408 535 324 c 2,3,-1
 535 0 l 1,4,-1
 444 0 l 1,5,-1
 444 314 l 2,6,7
 444 436 444 436 334 436 c 0,8,9
 247 436 247 436 170 340 c 1,10,-1
 170 0 l 1,11,-1
 79 0 l 1,12,-1
 79 730 l 1,13,-1
 170 730 l 1,14,-1
 170 431 l 1,15,-1
 173 431 l 1,16,17
 254 520 254 520 356 520 c 0,0,1
EndSplineSet
Substitution2: "'smcp' Lowercase to Small Capitals lookup 22 subtable" h.smcp
Substitution2: "'aalt' Access All Alternates lookup 0 subtable" h.smcp
EndChar

StartChar: i
Encoding: 105 105 74
Width: 257
Flags: W
HStem: 0 21G<83 174> 490 20G<83 174> 618 98<80 178>
VStem: 83 91<0 510 618 716>
LayerCount: 2
Fore
SplineSet
83 0 m 1,0,-1
 83 510 l 1,1,-1
 174 510 l 1,2,-1
 174 0 l 1,3,-1
 83 0 l 1,0,-1
178 716 m 1,4,-1
 178 618 l 1,5,-1
 80 618 l 1,6,-1
 80 716 l 1,7,-1
 178 716 l 1,4,-1
EndSplineSet
Substitution2: "'smcp' Lowercase to Small Capitals lookup 23 subtable" idotaccent.smcp
Substitution2: "'smcp' Lowercase to Small Capitals lookup 22 subtable" i.smcp
Substitution2: "'smcp' Lowercase to Small Capitals in Latin lookup 21 subtable" i.smcp
AlternateSubs2: "'aalt' Access All Alternates lookup 1 subtable" i.smcp idotaccent.smcp
EndChar

StartChar: j
Encoding: 106 106 75
Width: 257
Flags: W
HStem: -240 80<-31.4362 72.0391> -227 75<-32 25.6725> 490 20G<83 174> 618 98<80 178>
VStem: 83 91<-148.65 510 618 716>
LayerCount: 2
Fore
SplineSet
80 716 m 1,0,-1
 178 716 l 1,1,-1
 178 618 l 1,2,-1
 80 618 l 1,3,-1
 80 716 l 1,0,-1
83 -101 m 2,4,-1
 83 510 l 1,5,-1
 174 510 l 1,6,-1
 174 -103 l 2,7,8
 174 -165 174 -165 142.5 -202.5 c 128,-1,9
 111 -240 111 -240 43 -240 c 0,10,11
 0 -240 0 -240 -32 -227 c 1,12,-1
 -32 -152 l 1,13,-1
 -24 -152 l 1,14,15
 0 -160 0 -160 26.5 -160 c 128,-1,16
 53 -160 53 -160 68 -149 c 128,-1,17
 83 -138 83 -138 83 -101 c 2,4,-1
EndSplineSet
Substitution2: "'smcp' Lowercase to Small Capitals lookup 22 subtable" j.smcp
Substitution2: "'aalt' Access All Alternates lookup 0 subtable" j.smcp
EndChar

StartChar: k
Encoding: 107 107 76
Width: 546
Flags: W
HStem: 0 21G<79 170 412.062 539> 490 20G<374.529 516>
VStem: 79 91<0 167 283 730>
LayerCount: 2
Fore
SplineSet
309 305 m 1,0,-1
 539 0 l 1,1,-1
 427 0 l 1,2,-1
 247 241 l 1,3,-1
 244 241 l 1,4,-1
 170 167 l 1,5,-1
 170 0 l 1,6,-1
 79 0 l 1,7,-1
 79 730 l 1,8,-1
 170 730 l 1,9,-1
 170 283 l 1,10,-1
 173 283 l 1,11,-1
 394 510 l 1,12,-1
 516 510 l 1,13,-1
 309 305 l 1,0,-1
EndSplineSet
Substitution2: "'smcp' Lowercase to Small Capitals lookup 22 subtable" k.smcp
Substitution2: "'aalt' Access All Alternates lookup 0 subtable" k.smcp
EndChar

StartChar: l
Encoding: 108 108 77
Width: 265
Flags: W
HStem: 0 21G<87 178>
VStem: 87 91<0 730>
LayerCount: 2
Fore
SplineSet
178 730 m 1,0,-1
 178 0 l 1,1,-1
 87 0 l 1,2,-1
 87 730 l 1,3,-1
 178 730 l 1,0,-1
EndSplineSet
Substitution2: "'smcp' Lowercase to Small Capitals lookup 22 subtable" l.smcp
Substitution2: "'aalt' Access All Alternates lookup 0 subtable" l.smcp
EndChar

StartChar: m
Encoding: 109 109 78
Width: 919
Flags: W
HStem: 0 21G<79 170 416 507 753 844> 436 84<248.69 384.66 579.237 720.694> 490 20G<79 162.438>
VStem: 79 91<0 370.164 431 486.727> 79 80<469.273 510> 416 91<0 370.164> 753 91<0 401.589>
LayerCount: 2
Fore
SplineSet
677 520 m 0,0,1
 759 520 759 520 801.5 462 c 128,-1,2
 844 404 844 404 844 328 c 2,3,-1
 844 0 l 1,4,-1
 753 0 l 1,5,-1
 753 310 l 2,6,7
 753 375 753 375 729.5 405.5 c 128,-1,8
 706 436 706 436 651 436 c 0,9,10
 565 436 565 436 507 340 c 1,11,-1
 507 0 l 1,12,-1
 416 0 l 1,13,-1
 416 310 l 2,14,15
 416 375 416 375 393 405.5 c 128,-1,16
 370 436 370 436 314 436 c 0,17,18
 228 436 228 436 170 340 c 1,19,-1
 170 0 l 1,20,-1
 79 0 l 1,21,-1
 79 510 l 1,22,-1
 159 510 l 1,23,-1
 170 446 l 1,24,-1
 170 431 l 1,25,-1
 172 431 l 1,26,27
 236 520 236 520 340 520 c 0,28,29
 396 520 396 520 435.5 491 c 128,-1,30
 475 462 475 462 492 419 c 1,31,-1
 495 419 l 1,32,33
 556 520 556 520 677 520 c 0,0,1
EndSplineSet
Substitution2: "'smcp' Lowercase to Small Capitals lookup 22 subtable" m.smcp
Substitution2: "'aalt' Access All Alternates lookup 0 subtable" m.smcp
EndChar

StartChar: n
Encoding: 110 110 79
Width: 609
Flags: W
HStem: 0 21G<79 170 444 535> 436 84<260.585 406.968> 490 20G<79 162.438>
VStem: 79 91<0 365.102 431 486.727> 79 80<469.273 510> 444 91<0 396.598>
LayerCount: 2
Fore
SplineSet
356 520 m 0,0,1
 439 520 439 520 487 464 c 128,-1,2
 535 408 535 408 535 324 c 2,3,-1
 535 0 l 1,4,-1
 444 0 l 1,5,-1
 444 314 l 2,6,7
 444 436 444 436 334 436 c 0,8,9
 247 436 247 436 170 340 c 1,10,-1
 170 0 l 1,11,-1
 79 0 l 1,12,-1
 79 510 l 1,13,-1
 159 510 l 1,14,-1
 170 446 l 1,15,-1
 170 431 l 1,16,-1
 172 431 l 1,17,18
 253 520 253 520 356 520 c 0,0,1
EndSplineSet
Substitution2: "'smcp' Lowercase to Small Capitals lookup 22 subtable" n.smcp
Substitution2: "'aalt' Access All Alternates lookup 0 subtable" n.smcp
EndChar

StartChar: o
Encoding: 111 111 80
Width: 608
Flags: W
HStem: -10 83<220.629 386.91> 437 83<220.629 386.91>
VStem: 48 91<155.909 356.011> 469 91<155.909 356.011>
LayerCount: 2
Fore
SplineSet
118 447 m 128,-1,1
 188 520 188 520 303.5 520 c 128,-1,2
 419 520 419 520 489.5 447 c 128,-1,3
 560 374 560 374 560 255 c 128,-1,4
 560 136 560 136 489.5 63 c 128,-1,5
 419 -10 419 -10 303.5 -10 c 128,-1,6
 188 -10 188 -10 118 63 c 128,-1,7
 48 136 48 136 48 255 c 128,-1,0
 48 374 48 374 118 447 c 128,-1,1
304 73 m 128,-1,9
 370 73 370 73 419.5 118.5 c 128,-1,10
 469 164 469 164 469 255.5 c 128,-1,11
 469 347 469 347 419.5 392 c 128,-1,12
 370 437 370 437 304 437 c 128,-1,13
 238 437 238 437 188.5 392 c 128,-1,14
 139 347 139 347 139 255.5 c 128,-1,15
 139 164 139 164 188.5 118.5 c 128,-1,8
 238 73 238 73 304 73 c 128,-1,9
EndSplineSet
Substitution2: "Single Substitution lookup 30 subtable" ordmasculine
Substitution2: "'smcp' Lowercase to Small Capitals lookup 22 subtable" o.smcp
AlternateSubs2: "'aalt' Access All Alternates lookup 1 subtable" ordmasculine o.smcp
EndChar

StartChar: p
Encoding: 112 112 81
Width: 631
Flags: W
HStem: -10 85<244.388 413.695> 435 85<244.388 413.695> 490 20G<79 162.438>
VStem: 79 91<-230 64 128.394 381.606> 79 80<469.273 510> 492 91<155.294 354.706>
LayerCount: 2
Fore
SplineSet
341 -10 m 128,-1,1
 244 -10 244 -10 173 64 c 1,2,-1
 170 64 l 1,3,-1
 170 -230 l 1,4,-1
 79 -230 l 1,5,-1
 79 510 l 1,6,-1
 159 510 l 1,7,-1
 170 446 l 1,8,-1
 173 446 l 1,9,10
 244 520 244 520 341 520 c 128,-1,11
 438 520 438 520 510.5 448 c 128,-1,12
 583 376 583 376 583 255 c 128,-1,13
 583 134 583 134 510.5 62 c 128,-1,0
 438 -10 438 -10 341 -10 c 128,-1,1
328 435 m 0,14,15
 238 435 238 435 170 360 c 1,16,-1
 170 150 l 1,17,18
 238 75 238 75 328 75 c 0,19,20
 402 75 402 75 447 122 c 128,-1,21
 492 169 492 169 492 255 c 128,-1,22
 492 341 492 341 447 388 c 128,-1,23
 402 435 402 435 328 435 c 0,14,15
EndSplineSet
Substitution2: "'smcp' Lowercase to Small Capitals lookup 22 subtable" p.smcp
Substitution2: "'aalt' Access All Alternates lookup 0 subtable" p.smcp
EndChar

StartChar: q
Encoding: 113 113 82
Width: 631
Flags: W
HStem: -10 85<217.305 386.612> 435 85<217.305 386.612> 490 20G<468.562 552>
VStem: 48 91<155.294 354.706> 461 91<-230 64 128.394 381.606> 472 80<469.273 510>
LayerCount: 2
Fore
SplineSet
290 -10 m 128,-1,1
 193 -10 193 -10 120.5 62 c 128,-1,2
 48 134 48 134 48 255 c 128,-1,3
 48 376 48 376 120.5 448 c 128,-1,4
 193 520 193 520 290 520 c 128,-1,5
 387 520 387 520 458 446 c 1,6,-1
 461 446 l 1,7,-1
 472 510 l 1,8,-1
 552 510 l 1,9,-1
 552 -230 l 1,10,-1
 461 -230 l 1,11,-1
 461 64 l 1,12,-1
 458 64 l 1,13,0
 387 -10 387 -10 290 -10 c 128,-1,1
303 435 m 0,14,15
 229 435 229 435 184 388 c 128,-1,16
 139 341 139 341 139 255 c 128,-1,17
 139 169 139 169 184 122 c 128,-1,18
 229 75 229 75 303 75 c 0,19,20
 393 75 393 75 461 150 c 1,21,-1
 461 360 l 1,22,23
 393 435 393 435 303 435 c 0,14,15
EndSplineSet
Substitution2: "'smcp' Lowercase to Small Capitals lookup 22 subtable" q.smcp
Substitution2: "'aalt' Access All Alternates lookup 0 subtable" q.smcp
EndChar

StartChar: r
Encoding: 114 114 83
Width: 387
Flags: W
HStem: 0 21G<79 170> 433 87<257.948 368> 490 20G<79 162.438>
VStem: 79 91<0 370.968 431 486.727> 79 80<469.273 510>
LayerCount: 2
Fore
SplineSet
360 520 m 2,0,-1
 368 520 l 1,1,-1
 368 433 l 1,2,-1
 360 433 l 2,3,4
 301 433 301 433 250 410 c 128,-1,5
 199 387 199 387 170 346 c 1,6,-1
 170 0 l 1,7,-1
 79 0 l 1,8,-1
 79 510 l 1,9,-1
 159 510 l 1,10,-1
 170 446 l 1,11,-1
 170 431 l 1,12,-1
 172 431 l 1,13,14
 244 520 244 520 360 520 c 2,0,-1
EndSplineSet
Substitution2: "'smcp' Lowercase to Small Capitals lookup 22 subtable" r.smcp
Substitution2: "'aalt' Access All Alternates lookup 0 subtable" r.smcp
EndChar

StartChar: s
Encoding: 115 115 84
Width: 480
Flags: W
HStem: -10 84<118.538 329.146> 437 83<168.459 378.283>
VStem: 52 87<328.982 411.003> 352 88<96.2882 177.038>
LayerCount: 2
Fore
SplineSet
169.5 417.5 m 128,-1,1
 139 398 139 398 139 368.5 c 128,-1,2
 139 339 139 339 170 323 c 128,-1,3
 201 307 201 307 245.5 297.5 c 128,-1,4
 290 288 290 288 334 274 c 128,-1,5
 378 260 378 260 409 226 c 128,-1,6
 440 192 440 192 440 133 c 128,-1,7
 440 74 440 74 389.5 32 c 128,-1,8
 339 -10 339 -10 239.5 -10 c 128,-1,9
 140 -10 140 -10 58 35 c 1,10,-1
 58 122 l 1,11,-1
 63 122 l 1,12,13
 144 74 144 74 241 74 c 0,14,15
 352 74 352 74 352 145 c 0,16,17
 352 168 352 168 321 182.5 c 128,-1,18
 290 197 290 197 246 207 c 128,-1,19
 202 217 202 217 158 231 c 128,-1,20
 114 245 114 245 83 278 c 128,-1,21
 52 311 52 311 52 362 c 0,22,23
 52 432 52 432 102.5 476 c 128,-1,24
 153 520 153 520 240 520 c 128,-1,25
 327 520 327 520 402 492 c 1,26,-1
 402 409 l 1,27,-1
 395 409 l 1,28,29
 328 437 328 437 264 437 c 128,-1,0
 200 437 200 437 169.5 417.5 c 128,-1,1
EndSplineSet
Substitution2: "'smcp' Lowercase to Small Capitals lookup 22 subtable" s.smcp
Substitution2: "'aalt' Access All Alternates lookup 0 subtable" s.smcp
EndChar

StartChar: t
Encoding: 116 116 85
Width: 384
Flags: W
HStem: -10 80<211.705 343.281> 12 74<275.891 348> 432 78<203 348>
VStem: 112 91<80.5244 432>
LayerCount: 2
Fore
SplineSet
348 432 m 1,0,-1
 203 432 l 1,1,-1
 203 130 l 2,2,3
 203 88.2173913043 203 88.2173913043 226.5 78 c 0,4,5
 244.9 70 244.9 70 274.95 70 c 128,-1,6
 305 70 305 70 341 86 c 1,7,-1
 348 86 l 1,8,-1
 348 12 l 1,9,10
 306 -10 306 -10 258 -10 c 0,11,12
 112 -10 112 -10 112 122 c 2,13,-1
 112 432 l 1,14,-1
 17 432 l 1,15,-1
 17 438 l 1,16,-1
 203 620 l 1,17,-1
 203 510 l 1,18,-1
 348 510 l 1,19,-1
 348 432 l 1,0,-1
EndSplineSet
Substitution2: "'smcp' Lowercase to Small Capitals lookup 22 subtable" t.smcp
Substitution2: "'aalt' Access All Alternates lookup 0 subtable" t.smcp
EndChar

StartChar: u
Encoding: 117 117 86
Width: 610
Flags: W
HStem: -10 84<203.032 349.415> 0 21G<447.562 531> 490 20G<75 166 440 531>
VStem: 75 91<113.402 510> 440 91<23.2727 79 144.898 510> 451 80<0 40.7273>
LayerCount: 2
Fore
SplineSet
254 -10 m 0,0,1
 171 -10 171 -10 123 46 c 128,-1,2
 75 102 75 102 75 186 c 2,3,-1
 75 510 l 1,4,-1
 166 510 l 1,5,-1
 166 196 l 2,6,7
 166 74 166 74 276 74 c 0,8,9
 363 74 363 74 440 170 c 1,10,-1
 440 510 l 1,11,-1
 531 510 l 1,12,-1
 531 0 l 1,13,-1
 451 0 l 1,14,-1
 440 64 l 1,15,-1
 440 79 l 1,16,-1
 438 79 l 1,17,18
 357 -10 357 -10 254 -10 c 0,0,1
EndSplineSet
Substitution2: "'smcp' Lowercase to Small Capitals lookup 22 subtable" u.smcp
Substitution2: "'aalt' Access All Alternates lookup 0 subtable" u.smcp
EndChar

StartChar: v
Encoding: 118 118 87
Width: 530
Flags: W
HStem: 0 21G<211.608 318.392> 490 20G<6 112.861 417.139 524>
LayerCount: 2
Fore
SplineSet
425 510 m 1,0,-1
 524 510 l 1,1,-1
 310 0 l 1,2,-1
 220 0 l 1,3,-1
 6 510 l 1,4,-1
 105 510 l 1,5,-1
 263 108 l 1,6,-1
 267 108 l 1,7,-1
 425 510 l 1,0,-1
EndSplineSet
Substitution2: "'smcp' Lowercase to Small Capitals lookup 22 subtable" v.smcp
Substitution2: "'aalt' Access All Alternates lookup 0 subtable" v.smcp
EndChar

StartChar: w
Encoding: 119 119 88
Width: 785
Flags: W
HStem: 0 21G<179.137 281.356 503.644 605.863> 490 20G<11 113.05 348.8 436.2 671.95 774>
LayerCount: 2
Fore
SplineSet
678 510 m 1,0,-1
 774 510 l 1,1,-1
 599 0 l 1,2,-1
 510 0 l 1,3,-1
 394 365 l 1,4,-1
 391 365 l 1,5,-1
 275 0 l 1,6,-1
 186 0 l 1,7,-1
 11 510 l 1,8,-1
 107 510 l 1,9,-1
 228 110 l 1,10,-1
 231 110 l 1,11,-1
 355 510 l 1,12,-1
 430 510 l 1,13,-1
 554 110 l 1,14,-1
 557 110 l 1,15,-1
 678 510 l 1,0,-1
EndSplineSet
Substitution2: "'smcp' Lowercase to Small Capitals lookup 22 subtable" w.smcp
Substitution2: "'aalt' Access All Alternates lookup 0 subtable" w.smcp
EndChar

StartChar: x
Encoding: 120 120 89
Width: 542
Flags: W
HStem: 0 21G<21 149.365 391.862 521> 490 20G<21 149.835 392.495 521>
LayerCount: 2
Fore
SplineSet
521 510 m 1,0,-1
 324 258 l 1,1,-1
 521 0 l 1,2,-1
 407 0 l 1,3,-1
 270 181 l 1,4,-1
 265 181 l 1,5,-1
 135 0 l 1,6,-1
 21 0 l 1,7,-1
 217 252 l 1,8,-1
 21 510 l 1,9,-1
 135 510 l 1,10,-1
 270 328 l 1,11,-1
 275 328 l 1,12,-1
 407 510 l 1,13,-1
 521 510 l 1,0,-1
EndSplineSet
Substitution2: "'smcp' Lowercase to Small Capitals lookup 22 subtable" x.smcp
Substitution2: "'aalt' Access All Alternates lookup 0 subtable" x.smcp
EndChar

StartChar: y
Encoding: 121 121 90
Width: 533
Flags: W
HStem: 490 20G<5 110.94 422.861 529>
LayerCount: 2
Fore
SplineSet
529 510 m 1,0,-1
 222 -230 l 1,1,-1
 130 -230 l 1,2,-1
 216 -8 l 1,3,-1
 5 510 l 1,4,-1
 103 510 l 1,5,-1
 263 107 l 1,6,-1
 267 107 l 1,7,-1
 431 510 l 1,8,-1
 529 510 l 1,0,-1
EndSplineSet
Substitution2: "'smcp' Lowercase to Small Capitals lookup 22 subtable" y.smcp
Substitution2: "'aalt' Access All Alternates lookup 0 subtable" y.smcp
EndChar

StartChar: z
Encoding: 122 122 91
Width: 499
Flags: W
HStem: 0 85<159 448> 425 85<55 339>
LayerCount: 2
Fore
SplineSet
448 510 m 1,0,-1
 448 425 l 1,1,-1
 159 88 l 1,2,-1
 159 85 l 1,3,-1
 448 85 l 1,4,-1
 448 0 l 1,5,-1
 46 0 l 1,6,-1
 46 84 l 1,7,-1
 339 421 l 1,8,-1
 339 425 l 1,9,-1
 55 425 l 1,10,-1
 55 510 l 1,11,-1
 448 510 l 1,0,-1
EndSplineSet
Substitution2: "'smcp' Lowercase to Small Capitals lookup 22 subtable" z.smcp
Substitution2: "'aalt' Access All Alternates lookup 0 subtable" z.smcp
EndChar

StartChar: braceleft
Encoding: 123 123 92
Width: 344
Flags: W
HStem: -145 70<211.25 311> 270 74<14 99.6863> 689 70<211.25 311>
VStem: 129 78<-52.2645 242.788 370.999 666.265>
CounterMasks: 1 e0
LayerCount: 2
Fore
SplineSet
207 425 m 2,0,1
 207 340 207 340 117 307 c 1,2,-1
 117 306 l 1,3,4
 207 273 207 273 207 189 c 2,5,-1
 207 -33 l 2,6,7
 207 -45 207 -45 209.5 -52.5 c 128,-1,8
 212 -60 212 -60 226 -67.5 c 128,-1,9
 240 -75 240 -75 266 -75 c 2,10,-1
 311 -75 l 1,11,-1
 311 -145 l 1,12,-1
 269 -145 l 2,13,14
 202 -145 202 -145 165.5 -119 c 128,-1,15
 129 -93 129 -93 129 -25 c 2,16,-1
 129 186 l 2,17,18
 129 203 129 203 126.5 213.5 c 128,-1,19
 124 224 124 224 113.5 237 c 0,20,21
 93.2468619247 262.075313808 93.2468619247 262.075313808 14 270 c 1,22,-1
 14 344 l 1,23,24
 93.2468619247 351.924686192 93.2468619247 351.924686192 113.5 377 c 0,25,26
 124 390 124 390 126.5 400.5 c 128,-1,27
 129 411 129 411 129 428 c 2,28,-1
 129 639 l 2,29,30
 129 707 129 707 165.5 733 c 128,-1,31
 202 759 202 759 269 759 c 2,32,-1
 311 759 l 1,33,-1
 311 689 l 1,34,-1
 266 689 l 2,35,36
 240 689 240 689 226 681.5 c 128,-1,37
 212 674 212 674 209.5 666.5 c 128,-1,38
 207 659 207 659 207 647 c 2,39,-1
 207 425 l 2,0,1
EndSplineSet
EndChar

StartChar: bar
Encoding: 124 124 93
Width: 253
Flags: W
VStem: 86 81<-191 736>
LayerCount: 2
Fore
SplineSet
167 736 m 1,0,-1
 167 -191 l 1,1,-1
 86 -191 l 1,2,-1
 86 736 l 1,3,-1
 167 736 l 1,0,-1
EndSplineSet
EndChar

StartChar: braceright
Encoding: 125 125 94
Width: 344
Flags: W
HStem: -145 70<33 132.75> 270 74<244.314 330> 689 70<33 132.75>
VStem: 137 78<-52.2645 242.788 370.999 666.265>
CounterMasks: 1 e0
LayerCount: 2
Fore
SplineSet
137 425 m 2,0,-1
 137 647 l 2,1,2
 137 659 137 659 134.5 666.5 c 128,-1,3
 132 674 132 674 118 681.5 c 128,-1,4
 104 689 104 689 78 689 c 2,5,-1
 33 689 l 1,6,-1
 33 759 l 1,7,-1
 75 759 l 2,8,9
 142 759 142 759 178.5 733 c 128,-1,10
 215 707 215 707 215 639 c 2,11,-1
 215 428 l 2,12,13
 215 411 215 411 217.5 400.5 c 128,-1,14
 220 390 220 390 230.5 377 c 0,15,16
 250.753138075 351.924686192 250.753138075 351.924686192 330 344 c 1,17,-1
 330 270 l 1,18,19
 250.753138075 262.075313808 250.753138075 262.075313808 230.5 237 c 0,20,21
 220 224 220 224 217.5 213.5 c 128,-1,22
 215 203 215 203 215 186 c 2,23,-1
 215 -25 l 2,24,25
 215 -93 215 -93 178.5 -119 c 128,-1,26
 142 -145 142 -145 75 -145 c 2,27,-1
 33 -145 l 1,28,-1
 33 -75 l 1,29,-1
 78 -75 l 2,30,31
 104 -75 104 -75 118 -67.5 c 128,-1,32
 132 -60 132 -60 134.5 -52.5 c 128,-1,33
 137 -45 137 -45 137 -33 c 2,34,-1
 137 189 l 2,35,36
 137 273 137 273 227 306 c 1,37,-1
 227 307 l 1,38,39
 137 340 137 340 137 425 c 2,0,-1
EndSplineSet
EndChar

StartChar: asciitilde
Encoding: 126 126 95
Width: 638
Flags: W
HStem: 206 85<373.164 500.118> 282 85<141.779 269.049>
VStem: 71 50<215 261.739> 521 50<311.691 359>
LayerCount: 2
Fore
SplineSet
521 359 m 1,0,-1
 571 359 l 1,1,2
 562 284 562 284 527 245 c 128,-1,3
 492 206 492 206 443.5 206 c 128,-1,4
 395 206 395 206 349 225 c 128,-1,5
 303 244 303 244 263.5 263 c 128,-1,6
 224 282 224 282 194 282 c 0,7,8
 135 282 135 282 121 215 c 1,9,-1
 71 215 l 1,10,11
 79 289 79 289 114.5 328 c 128,-1,12
 150 367 150 367 198.5 367 c 128,-1,13
 247 367 247 367 293 348 c 128,-1,14
 339 329 339 329 379 310 c 128,-1,15
 419 291 419 291 448 291 c 0,16,17
 507 291 507 291 521 359 c 1,0,-1
EndSplineSet
EndChar

StartChar: exclamdown
Encoding: 161 161 97
Width: 259
Flags: W
HStem: 398 112<73 185>
VStem: 78 103<-188 -4.21053 398 510>
LayerCount: 2
Fore
SplineSet
73 510 m 1,0,-1
 185 510 l 1,1,-1
 185 398 l 1,2,-1
 73 398 l 1,3,-1
 73 510 l 1,0,-1
78 -188 m 1,4,-1
 78 -42 l 1,5,-1
 97 317 l 1,6,-1
 161 317 l 1,7,-1
 181 -42 l 1,8,-1
 181 -188 l 1,9,-1
 78 -188 l 1,4,-1
EndSplineSet
Substitution2: "'c2sc' Capitals to Small Capitals lookup 16 subtable" exclamdown.smcp
Substitution2: "'aalt' Access All Alternates lookup 0 subtable" exclamdown.smcp
EndChar

StartChar: cent
Encoding: 162 162 98
Width: 551
Flags: W
HStem: -10 85<273.771 426.85> 435 85<223.217 335>
VStem: 44 91<159.724 348.06>
LayerCount: 2
Fore
SplineSet
480 385 m 1,0,1
 435 414 435 414 391 425 c 1,2,-1
 273 79 l 1,3,4
 292 75 292 75 319 75 c 0,5,6
 406 75 406 75 480 125 c 1,7,-1
 484 125 l 1,8,-1
 484 39 l 1,9,10
 401 -10 401 -10 311 -10 c 0,11,12
 274 -10 274 -10 245 -3 c 1,13,-1
 205 -118 l 1,14,-1
 146 -118 l 1,15,-1
 192 15 l 1,16,17
 125 46 125 46 84.5 108 c 128,-1,18
 44 170 44 170 44 255 c 0,19,20
 44 376 44 376 122 448 c 128,-1,21
 200 520 200 520 311 520 c 0,22,23
 331 520 331 520 363 516 c 1,24,-1
 397 615 l 1,25,-1
 456 615 l 1,26,-1
 418 502 l 1,27,28
 448 492 448 492 484 471 c 1,29,-1
 484 385 l 1,30,-1
 480 385 l 1,0,1
335 434 m 1,31,-1
 319 435 l 1,32,33
 233 435 233 435 184 385.5 c 128,-1,34
 135 336 135 336 135 255 c 0,35,36
 135 143 135 143 220 97 c 1,37,-1
 335 434 l 1,31,-1
EndSplineSet
Substitution2: "'ss01' Style Set 1 lookup 27 subtable" cent.alt
Substitution2: "'subs' Subscript lookup 15 subtable" cent.inferior
Substitution2: "'sinf' Scientific Inferiors lookup 14 subtable" cent.inferior
Substitution2: "'sups' Superscript lookup 13 subtable" cent.superior
AlternateSubs2: "'aalt' Access All Alternates lookup 1 subtable" cent.superior cent.inferior cent.alt
EndChar

StartChar: sterling
Encoding: 163 163 99
Width: 604
Flags: W
HStem: -10 88<345.533 529.835> 22 89<508.547 552> 35 83<224.194 334.078> 307 45<44 157 261 446> 580 90<479.649 532> 620 88<267.627 487.88>
VStem: 125 91<393.868 571.294> 175 90<159.286 307>
LayerCount: 2
Fore
SplineSet
223 118 m 1,0,-1
 248 119 l 1,1,2
 288 119 288 119 349 98.5 c 128,-1,3
 410 78 410 78 454.5 78 c 128,-1,4
 499 78 499 78 548 111 c 1,5,-1
 552 111 l 1,6,-1
 552 22 l 1,7,8
 492 -10 492 -10 443 -10 c 128,-1,9
 394 -10 394 -10 337 12.5 c 128,-1,10
 280 35 280 35 237 35 c 0,11,12
 168 35 168 35 114 -10 c 1,13,-1
 59 36 l 1,14,15
 175 141 175 141 175 255 c 0,16,17
 175 282 175 282 169 307 c 1,18,-1
 44 307 l 1,19,-1
 44 352 l 1,20,-1
 157 352 l 1,21,22
 155 358 155 358 150 374 c 2,23,-1
 142.5 398 l 2,24,25
 125 454 125 454 125 502 c 0,26,27
 125 598 125 598 191.5 653 c 128,-1,28
 258 708 258 708 357 708 c 128,-1,29
 456 708 456 708 532 670 c 1,30,-1
 532 580 l 1,31,-1
 527 580 l 1,32,33
 456 620 456 620 371.5 620 c 128,-1,34
 287 620 287 620 251.5 587 c 128,-1,35
 216 554 216 554 216 506 c 0,36,37
 216 463.647058824 216 463.647058824 232 412.823529412 c 128,-1,38
 248 362 248 362 251 352 c 1,39,-1
 446 352 l 1,40,-1
 446 307 l 1,41,-1
 261 307 l 1,42,43
 265 287 265 287 265 261 c 0,44,45
 265 184 265 184 223 118 c 1,0,-1
EndSplineSet
EndChar

StartChar: currency
Encoding: 164 164 100
Width: 668
Flags: W
HStem: 112 82<254.055 413.945> 505 81<254.635 413.365>
VStem: 97 81<269.778 428.872> 490 81<269.778 428.872>
LayerCount: 2
Fore
SplineSet
571 349 m 128,-1,1
 571 273 571 273 526 210 c 1,2,-1
 598 137 l 1,3,-1
 546 85 l 1,4,-1
 473 158 l 1,5,6
 411 112 411 112 334 112 c 128,-1,7
 257 112 257 112 195 158 c 1,8,-1
 122 85 l 1,9,-1
 70 137 l 1,10,-1
 142 210 l 1,11,12
 97 273 97 273 97 349 c 128,-1,13
 97 425 97 425 142 489 c 1,14,-1
 70 561 l 1,15,-1
 122 613 l 1,16,-1
 195 541 l 1,17,18
 258 586 258 586 334 586 c 128,-1,19
 410 586 410 586 473 541 c 1,20,-1
 546 613 l 1,21,-1
 598 561 l 1,22,-1
 526 489 l 1,23,0
 571 425 571 425 571 349 c 128,-1,1
334 194 m 128,-1,25
 399 194 399 194 444.5 239.5 c 128,-1,26
 490 285 490 285 490 349.5 c 128,-1,27
 490 414 490 414 444 459.5 c 128,-1,28
 398 505 398 505 334 505 c 128,-1,29
 270 505 270 505 224 459.5 c 128,-1,30
 178 414 178 414 178 349.5 c 128,-1,31
 178 285 178 285 223.5 239.5 c 128,-1,24
 269 194 269 194 334 194 c 128,-1,25
EndSplineSet
EndChar

StartChar: yen
Encoding: 165 165 101
Width: 658
Flags: W
HStem: 0 21G<284 374> 124 75<111 284 374 546> 290 75<111 241 417 546> 678 20G<37 159.42 498.58 621>
VStem: 284 90<0 124 199 290>
LayerCount: 2
Fore
SplineSet
621 698 m 1,0,-1
 417 365 l 1,1,-1
 546 365 l 1,2,-1
 546 290 l 1,3,-1
 374 290 l 1,4,-1
 374 199 l 1,5,-1
 546 199 l 1,6,-1
 546 124 l 1,7,-1
 374 124 l 1,8,-1
 374 0 l 1,9,-1
 284 0 l 1,10,-1
 284 124 l 1,11,-1
 111 124 l 1,12,-1
 111 199 l 1,13,-1
 284 199 l 1,14,-1
 284 290 l 1,15,-1
 111 290 l 1,16,-1
 111 365 l 1,17,-1
 241 365 l 1,18,-1
 37 698 l 1,19,-1
 148 698 l 1,20,-1
 329 381 l 1,21,-1
 510 698 l 1,22,-1
 621 698 l 1,0,-1
EndSplineSet
EndChar

StartChar: section
Encoding: 167 167 102
Width: 529
Flags: W
HStem: -103 84<123.538 336.094> 591 85<379.804 445> 624 84<199.887 411.981>
VStem: 57 84<270.721 378.68> 91 86<513.864 601.479> 359 86<3.72607 90.5946> 395 84<226.848 334.787>
LayerCount: 2
Fore
SplineSet
177 554 m 0,0,1
 177 511.119402985 177 511.119402985 255.5 483 c 0,2,3
 340.923076923 452.400688863 340.923076923 452.400688863 400.5 419.5 c 0,4,5
 434 401 434 401 456.5 368 c 128,-1,6
 479 335 479 335 479 292 c 0,7,8
 479 197 479 197 380 165 c 1,9,10
 445 121 445 121 445 51 c 128,-1,11
 445 -19 445 -19 394.5 -61 c 128,-1,12
 344 -103 344 -103 244.5 -103 c 128,-1,13
 145 -103 145 -103 63 -58 c 1,14,-1
 63 29 l 1,15,-1
 68 29 l 1,16,17
 149 -19 149 -19 246 -19 c 0,18,19
 359 -19 359 -19 359 51 c 0,20,21
 359 78 359 78 328 98 c 128,-1,22
 297 118 297 118 252.5 133.5 c 128,-1,23
 208 149 208 149 163.5 169 c 128,-1,24
 119 189 119 189 88 225.5 c 128,-1,25
 57 262 57 262 57 313 c 0,26,27
 57 406 57 406 155 439 c 1,28,29
 91 486 91 486 91 555 c 128,-1,30
 91 624 91 624 141.5 666 c 128,-1,31
 192 708 192 708 281.5 708 c 128,-1,32
 371 708 371 708 445 676 c 1,33,-1
 445 591 l 1,34,-1
 438 591 l 1,35,36
 370 624 370 624 290 624 c 0,37,38
 177 624 177 624 177 554 c 0,0,1
320 198 m 1,39,40
 395 216 395 216 395 286 c 0,41,42
 395 325.142857143 395 325.142857143 355 348 c 0,43,44
 321.252631579 367.284210526 321.252631579 367.284210526 277.126315789 383.142105263 c 128,-1,45
 233 399 233 399 215 407 c 1,46,47
 141 389 141 389 141 319 c 0,48,49
 141 279.857142857 141 279.857142857 181 257 c 0,50,51
 208.176470588 241.470588235 208.176470588 241.470588235 255.588235294 223.235294118 c 128,-1,52
 303 205 303 205 320 198 c 1,39,40
EndSplineSet
EndChar

StartChar: dieresis
Encoding: 168 168 103
Width: 400
Flags: W
HStem: 578 96<66 162 234 330>
VStem: 66 96<578 674> 234 96<578 674>
LayerCount: 2
Fore
SplineSet
66 578 m 1,0,-1
 66 674 l 1,1,-1
 162 674 l 1,2,-1
 162 578 l 1,3,-1
 66 578 l 1,0,-1
234 578 m 1,4,-1
 234 674 l 1,5,-1
 330 674 l 1,6,-1
 330 578 l 1,7,-1
 234 578 l 1,4,-1
EndSplineSet
EndChar

StartChar: copyright
Encoding: 169 169 104
Width: 819
Flags: W
HStem: -10 52<296.14 523.418> 145 61<344.217 489.605> 492 61<343.99 489.233> 656 52<296.14 523.418>
VStem: 51 52<235.299 463.142> 223 67<263.387 434.613> 717 52<234.924 463.076>
LayerCount: 2
Fore
SplineSet
410 708 m 128,-1,1
 558 708 558 708 663.5 603 c 128,-1,2
 769 498 769 498 769 349 c 128,-1,3
 769 200 769 200 663.5 95 c 128,-1,4
 558 -10 558 -10 410 -10 c 128,-1,5
 262 -10 262 -10 156.5 95 c 128,-1,6
 51 200 51 200 51 349 c 128,-1,7
 51 498 51 498 156.5 603 c 128,-1,0
 262 708 262 708 410 708 c 128,-1,1
193 132.5 m 128,-1,9
 283 42 283 42 409.5 42 c 128,-1,10
 536 42 536 42 626.5 132 c 128,-1,11
 717 222 717 222 717 349 c 128,-1,12
 717 476 717 476 626.5 566 c 128,-1,13
 536 656 536 656 409.5 656 c 128,-1,14
 283 656 283 656 193 566 c 128,-1,15
 103 476 103 476 103 349.5 c 128,-1,8
 103 223 103 223 193 132.5 c 128,-1,9
416 206 m 0,16,17
 499 206 499 206 530 283 c 1,18,-1
 597 283 l 1,19,20
 580 219 580 219 532 182 c 128,-1,21
 484 145 484 145 416 145 c 0,22,23
 330 145 330 145 276.5 201 c 128,-1,24
 223 257 223 257 223 349 c 128,-1,25
 223 441 223 441 276.5 497 c 128,-1,26
 330 553 330 553 407.5 553 c 128,-1,27
 485 553 485 553 532.5 516.5 c 128,-1,28
 580 480 580 480 597 415 c 1,29,-1
 530 415 l 1,30,31
 499 492 499 492 416 492 c 0,32,33
 356 492 356 492 323 451 c 128,-1,34
 290 410 290 410 290 349 c 128,-1,35
 290 288 290 288 323 247 c 128,-1,36
 356 206 356 206 416 206 c 0,16,17
EndSplineSet
EndChar

StartChar: ordfeminine
Encoding: 170 170 105
Width: 485
Flags: W
HStem: 229 56<72 399> 339 65<160.262 285.327> 499 54<164.498 318> 614 66<114 185.329> 640 68<130.043 297.324>
VStem: 81 72<413.433 485.433> 318 72<346 386 431.551 499 553 619.369> 325 65<346 386>
LayerCount: 2
Fore
SplineSet
197 339 m 0,0,1
 149 339 149 339 115 368 c 128,-1,2
 81 397 81 397 81 447 c 128,-1,3
 81 497 81 497 121.5 525 c 128,-1,4
 162 553 162 553 242 553 c 2,5,-1
 318 553 l 1,6,-1
 318 555 l 2,7,8
 318 600 318 600 297 620 c 128,-1,9
 276 640 276 640 227.5 640 c 128,-1,10
 179 640 179 640 118 614 c 1,11,-1
 114 614 l 1,12,-1
 114 680 l 1,13,14
 181 708 181 708 248.5 708 c 128,-1,15
 316 708 316 708 353 667 c 128,-1,16
 390 626 390 626 390 569 c 2,17,-1
 390 346 l 1,18,-1
 325 346 l 1,19,-1
 318 386 l 1,20,-1
 316 386 l 1,21,22
 275 339 275 339 197 339 c 0,0,1
250 499 m 2,23,24
 153 499 153 499 153 451.5 c 128,-1,25
 153 404 153 404 220 404 c 0,26,27
 275 404 275 404 318 451 c 1,28,-1
 318 499 l 1,29,-1
 250 499 l 2,23,24
72 285 m 1,30,-1
 399 285 l 1,31,-1
 399 229 l 1,32,-1
 72 229 l 1,33,-1
 72 285 l 1,30,-1
EndSplineSet
Substitution2: "'ss01' Style Set 1 lookup 27 subtable" ordfeminine.alt
Substitution2: "'aalt' Access All Alternates lookup 0 subtable" ordfeminine.alt
EndChar

StartChar: guillemotleft
Encoding: 171 171 106
Width: 585
Flags: W
LayerCount: 2
Fore
SplineSet
327 479 m 1,0,-1
 134 255 l 1,1,-1
 327 32 l 1,2,-1
 223 32 l 1,3,-1
 37 255 l 1,4,-1
 223 479 l 1,5,-1
 327 479 l 1,0,-1
342 255 m 1,6,-1
 535 32 l 1,7,-1
 431 32 l 1,8,-1
 245 255 l 1,9,-1
 431 479 l 1,10,-1
 535 479 l 1,11,-1
 342 255 l 1,6,-1
EndSplineSet
EndChar

StartChar: logicalnot
Encoding: 172 172 107
Width: 579
Flags: W
HStem: 311 72<78 421>
VStem: 421 75<173 311>
LayerCount: 2
Fore
SplineSet
78 311 m 1,0,-1
 78 383 l 1,1,-1
 496 383 l 1,2,-1
 496 173 l 1,3,-1
 421 173 l 1,4,-1
 421 311 l 1,5,-1
 78 311 l 1,0,-1
EndSplineSet
EndChar

StartChar: registered
Encoding: 174 174 108
Width: 819
Flags: W
HStem: -10 52<296.14 523.418> 299 59<328 485.699> 490 58<328 494.914> 656 52<296.14 523.418>
VStem: 51 52<235.299 463.142> 261 67<150 299 358 490> 505 68<154.655 272.855> 512 66<378.84 471.584> 717 52<234.924 463.076>
LayerCount: 2
Fore
SplineSet
410 708 m 128,-1,1
 558 708 558 708 663.5 603 c 128,-1,2
 769 498 769 498 769 349 c 128,-1,3
 769 200 769 200 663.5 95 c 128,-1,4
 558 -10 558 -10 410 -10 c 128,-1,5
 262 -10 262 -10 156.5 95 c 128,-1,6
 51 200 51 200 51 349 c 128,-1,7
 51 498 51 498 156.5 603 c 128,-1,0
 262 708 262 708 410 708 c 128,-1,1
193 132.5 m 128,-1,9
 283 42 283 42 409.5 42 c 128,-1,10
 536 42 536 42 626.5 132 c 128,-1,11
 717 222 717 222 717 349 c 128,-1,12
 717 476 717 476 626.5 566 c 128,-1,13
 536 656 536 656 409.5 656 c 128,-1,14
 283 656 283 656 193 566 c 128,-1,15
 103 476 103 476 103 349.5 c 128,-1,8
 103 223 103 223 193 132.5 c 128,-1,9
573 192 m 2,16,17
 573 175 573 175 585 154 c 1,18,-1
 585 150 l 1,19,-1
 518 150 l 1,20,21
 505 169 505 169 505 189 c 2,22,-1
 505 197 l 2,23,24
 505 253.142857143 505 253.142857143 490 273.5 c 0,25,26
 471.210526316 299 471.210526316 299 432 299 c 2,27,-1
 328 299 l 1,28,-1
 328 150 l 1,29,-1
 261 150 l 1,30,-1
 261 548 l 1,31,-1
 421 548 l 2,32,33
 500 548 500 548 539 515 c 128,-1,34
 578 482 578 482 578 428 c 0,35,36
 578 360 578 360 505 332 c 1,37,-1
 505 331 l 1,38,39
 533 321 533 321 553 290.5 c 128,-1,40
 573 260 573 260 573 206 c 2,41,-1
 573 192 l 2,16,17
418 358 m 2,42,43
 461 358 461 358 486.5 375.5 c 128,-1,44
 512 393 512 393 512 426 c 0,45,46
 512 490 512 490 416 490 c 2,47,-1
 328 490 l 1,48,-1
 328 358 l 1,49,-1
 418 358 l 2,42,43
EndSplineSet
EndChar

StartChar: macron
Encoding: 175 175 109
Width: 312
Flags: W
HStem: 588 60<13 297>
VStem: 13 284<588 648>
LayerCount: 2
Fore
SplineSet
297 648 m 1,0,-1
 297 588 l 1,1,-1
 13 588 l 1,2,-1
 13 648 l 1,3,-1
 297 648 l 1,0,-1
EndSplineSet
EndChar

StartChar: degree
Encoding: 176 176 110
Width: 378
Flags: W
HStem: 434 52<132.326 245.355> 656 52<132.326 245.355>
VStem: 52 52<514.326 627.355> 274 52<514.326 627.355>
LayerCount: 2
Fore
SplineSet
92.5 668 m 128,-1,1
 133 708 133 708 189.5 708 c 128,-1,2
 246 708 246 708 286 668 c 128,-1,3
 326 628 326 628 326 571.5 c 128,-1,4
 326 515 326 515 286 474.5 c 128,-1,5
 246 434 246 434 189.5 434 c 128,-1,6
 133 434 133 434 92.5 474.5 c 128,-1,7
 52 515 52 515 52 571.5 c 128,-1,0
 52 628 52 628 92.5 668 c 128,-1,1
189 486 m 128,-1,9
 224 486 224 486 249 511 c 128,-1,10
 274 536 274 536 274 571 c 128,-1,11
 274 606 274 606 249 631 c 128,-1,12
 224 656 224 656 189 656 c 128,-1,13
 154 656 154 656 129 631 c 128,-1,14
 104 606 104 606 104 571 c 128,-1,15
 104 536 104 536 129 511 c 128,-1,8
 154 486 154 486 189 486 c 128,-1,9
EndSplineSet
EndChar

StartChar: plusminus
Encoding: 177 177 111
Width: 606
Flags: W
HStem: 0 77<67 539> 342 77<67 264 342 539>
VStem: 264 78<150 342 419 611>
LayerCount: 2
Fore
SplineSet
67 0 m 1,0,-1
 67 77 l 1,1,-1
 539 77 l 1,2,-1
 539 0 l 1,3,-1
 67 0 l 1,0,-1
67 342 m 1,4,-1
 67 419 l 1,5,-1
 264 419 l 1,6,-1
 264 611 l 1,7,-1
 342 611 l 1,8,-1
 342 419 l 1,9,-1
 539 419 l 1,10,-1
 539 342 l 1,11,-1
 342 342 l 1,12,-1
 342 150 l 1,13,-1
 264 150 l 1,14,-1
 264 342 l 1,15,-1
 67 342 l 1,4,-1
EndSplineSet
EndChar

StartChar: twosuperior
Encoding: 178 178 112
Width: 370
Flags: W
HStem: 451 59<114 317> 750 65<57 94.4713> 789 61<86.625 247.351>
VStem: 43 71<510 533.388> 260 63<685.28 775.653>
LayerCount: 2
Fore
SplineSet
285.5 816.5 m 128,-1,1
 323 783 323 783 323 739 c 128,-1,2
 323 695 323 695 295 659 c 128,-1,3
 267 623 267 623 232.5 601 c 0,4,5
 129.222580645 535.141935484 129.222580645 535.141935484 114 513 c 1,6,-1
 114 510 l 1,7,-1
 317 510 l 1,8,-1
 317 451 l 1,9,-1
 43 451 l 1,10,-1
 43 490 l 2,11,12
 43 529 43 529 77 564.5 c 128,-1,13
 111 600 111 600 151.5 622.5 c 0,14,15
 260 682.777777778 260 682.777777778 260 729 c 0,16,17
 260 789 260 789 183.5 789 c 128,-1,18
 107 789 107 789 61 750 c 1,19,-1
 57 750 l 1,20,-1
 57 815 l 1,21,22
 117 850 117 850 182.5 850 c 128,-1,0
 248 850 248 850 285.5 816.5 c 128,-1,1
EndSplineSet
Substitution2: "'subs' Subscript lookup 15 subtable" twoinferior
Substitution2: "'sinf' Scientific Inferiors lookup 14 subtable" twoinferior
Substitution2: "'dnom' Denominators lookup 11 subtable" two.denominator
Substitution2: "'numr' Numerators lookup 10 subtable" two.numerator
Substitution2: "'frac' Diagonal Fractions lookup 7 subtable" two.numerator
AlternateSubs2: "'aalt' Access All Alternates lookup 1 subtable" two.numerator two.denominator twoinferior
EndChar

StartChar: threesuperior
Encoding: 179 179 113
Width: 370
Flags: W
HStem: 445 62<65.9324 246.822> 473 62<48 110.403> 621 60<111 229.223> 756 60<52 99.0093> 789 61<75.8718 236.478>
VStem: 246 62<698.911 777.029> 259 63<520.733 601.331>
LayerCount: 2
Fore
SplineSet
308 744 m 0,0,1
 308 679 308 679 248 655 c 1,2,-1
 248 653 l 1,3,4
 322 630 322 630 322 557 c 0,5,6
 322 509 322 509 286.5 477 c 128,-1,7
 251 445 251 445 177.5 445 c 128,-1,8
 104 445 104 445 48 473 c 1,9,-1
 48 535 l 1,10,-1
 53 535 l 1,11,12
 104 507 104 507 167 507 c 0,13,14
 259 507 259 507 259 559 c 0,15,16
 259 621 259 621 147 621 c 2,17,-1
 111 621 l 1,18,-1
 111 681 l 1,19,-1
 140 681 l 2,20,21
 246 681 246 681 246 739 c 0,22,23
 246 789 246 789 168 789 c 0,24,25
 105 789 105 789 57 756 c 1,26,-1
 52 756 l 1,27,-1
 52 816 l 1,28,29
 111 850 111 850 176 850 c 128,-1,30
 241 850 241 850 274.5 820.5 c 128,-1,31
 308 791 308 791 308 744 c 0,0,1
EndSplineSet
Substitution2: "'subs' Subscript lookup 15 subtable" threeinferior
Substitution2: "'sinf' Scientific Inferiors lookup 14 subtable" threeinferior
Substitution2: "'dnom' Denominators lookup 11 subtable" three.denominator
Substitution2: "'numr' Numerators lookup 10 subtable" three.numerator
Substitution2: "'frac' Diagonal Fractions lookup 7 subtable" three.numerator
AlternateSubs2: "'aalt' Access All Alternates lookup 1 subtable" three.numerator three.denominator threeinferior
EndChar

StartChar: acute
Encoding: 180 180 114
Width: 240
Flags: W
HStem: 578 133
VStem: 35 175
LayerCount: 2
Fore
SplineSet
111 711 m 1,0,-1
 210 711 l 1,1,-1
 97 578 l 1,2,-1
 35 578 l 1,3,-1
 111 711 l 1,0,-1
EndSplineSet
EndChar

StartChar: mu
Encoding: 181 181 115
Width: 604
Flags: W
HStem: -10 84<212.004 364.836> 0 21G<456.562 540> 490 20G<84 175 449 540>
VStem: 84 91<-213 16 112.602 510> 449 91<23.2727 79 144.898 510> 460 80<0 40.7273>
LayerCount: 2
Fore
SplineSet
84 -213 m 1,0,-1
 84 510 l 1,1,-1
 175 510 l 1,2,-1
 175 196 l 2,3,4
 175 74 175 74 285 74 c 0,5,6
 372 74 372 74 449 170 c 1,7,-1
 449 510 l 1,8,-1
 540 510 l 1,9,-1
 540 0 l 1,10,-1
 460 0 l 1,11,-1
 449 64 l 1,12,-1
 449 79 l 1,13,-1
 447 79 l 1,14,15
 408 36 408 36 369 13 c 128,-1,16
 330 -10 330 -10 274.5 -10 c 128,-1,17
 219 -10 219 -10 178 16 c 1,18,-1
 175 16 l 1,19,-1
 175 -213 l 1,20,-1
 84 -213 l 1,0,-1
EndSplineSet
EndChar

StartChar: paragraph
Encoding: 182 182 116
Width: 732
Flags: W
HStem: 619 79<411 523 602 683>
VStem: 39 372<336.344 545.656> 332 79<-219 184> 523 79<-219 619>
LayerCount: 2
Fore
SplineSet
683 698 m 1,0,-1
 683 619 l 1,1,-1
 602 619 l 1,2,-1
 602 -219 l 1,3,-1
 523 -219 l 1,4,-1
 523 619 l 1,5,-1
 411 619 l 1,6,-1
 411 -219 l 1,7,-1
 332 -219 l 1,8,-1
 332 184 l 1,9,-1
 296 184 l 2,10,11
 190 184 190 184 114.5 259 c 128,-1,12
 39 334 39 334 39 441 c 128,-1,13
 39 548 39 548 114.5 623 c 128,-1,14
 190 698 190 698 296 698 c 2,15,-1
 683 698 l 1,0,-1
EndSplineSet
EndChar

StartChar: periodcentered
Encoding: 183 183 117
Width: 260
Flags: W
HStem: 229 112<74 186>
VStem: 74 112<229 341>
LayerCount: 2
Fore
SplineSet
74 229 m 1,0,-1
 74 341 l 1,1,-1
 186 341 l 1,2,-1
 186 229 l 1,3,-1
 74 229 l 1,0,-1
EndSplineSet
EndChar

StartChar: cedilla
Encoding: 184 184 118
Width: 307
Flags: W
HStem: -221 43<67.1964 183.793> -101 42<146.347 201>
VStem: 190 67<-171.182 -106.26>
LayerCount: 2
Fore
SplineSet
146 -63 m 1,0,1
 162 -59 162 -59 188 -59 c 128,-1,2
 214 -59 214 -59 235.5 -78.5 c 128,-1,3
 257 -98 257 -98 257 -129 c 0,4,5
 257 -221 257 -221 146 -221 c 0,6,7
 94 -221 94 -221 48 -190 c 1,8,-1
 64 -155 l 1,9,10
 101 -178 101 -178 133 -178 c 0,11,12
 190 -178 190 -178 190 -132 c 0,13,14
 190 -117 190 -117 180 -109 c 128,-1,15
 170 -101 170 -101 150.5 -101 c 128,-1,16
 131 -101 131 -101 108 -113 c 1,17,-1
 79 -97 l 1,18,-1
 150 17 l 1,19,-1
 192 17 l 1,20,-1
 146 -63 l 1,0,1
EndSplineSet
EndChar

StartChar: onesuperior
Encoding: 185 185 119
Width: 370
Flags: W
HStem: 451 59<84 168 232 307>
VStem: 168 64<510 768>
LayerCount: 2
Fore
SplineSet
232 510 m 1,0,-1
 307 510 l 1,1,-1
 307 451 l 1,2,-1
 84 451 l 1,3,-1
 84 510 l 1,4,-1
 168 510 l 1,5,-1
 168 768 l 1,6,-1
 164 768 l 1,7,-1
 88 731 l 1,8,-1
 88 797 l 1,9,-1
 178 844 l 1,10,-1
 232 844 l 1,11,-1
 232 510 l 1,0,-1
EndSplineSet
Substitution2: "'subs' Subscript lookup 15 subtable" oneinferior
Substitution2: "'sinf' Scientific Inferiors lookup 14 subtable" oneinferior
Substitution2: "'dnom' Denominators lookup 11 subtable" one.denominator
Substitution2: "'numr' Numerators lookup 10 subtable" one.numerator
Substitution2: "'frac' Diagonal Fractions lookup 7 subtable" one.numerator
AlternateSubs2: "'aalt' Access All Alternates lookup 1 subtable" one.numerator one.denominator oneinferior
EndChar

StartChar: ordmasculine
Encoding: 186 186 120
Width: 514
Flags: W
HStem: 229 56<75 439> 339 64<193.842 320.158> 645 63<193.842 320.158>
VStem: 79 72<444.857 603.401> 363 72<444.857 603.401>
LayerCount: 2
Fore
SplineSet
257 708 m 128,-1,1
 338 708 338 708 386.5 657.5 c 128,-1,2
 435 607 435 607 435 524 c 128,-1,3
 435 441 435 441 386.5 390 c 128,-1,4
 338 339 338 339 257 339 c 128,-1,5
 176 339 176 339 127.5 390 c 128,-1,6
 79 441 79 441 79 524 c 128,-1,7
 79 607 79 607 127.5 657.5 c 128,-1,0
 176 708 176 708 257 708 c 128,-1,1
257 403 m 128,-1,9
 299 403 299 403 331 433.5 c 128,-1,10
 363 464 363 464 363 524.5 c 128,-1,11
 363 585 363 585 331 615 c 128,-1,12
 299 645 299 645 257 645 c 128,-1,13
 215 645 215 645 183 615 c 128,-1,14
 151 585 151 585 151 524.5 c 128,-1,15
 151 464 151 464 183 433.5 c 128,-1,8
 215 403 215 403 257 403 c 128,-1,9
75 285 m 1,16,-1
 439 285 l 1,17,-1
 439 229 l 1,18,-1
 75 229 l 1,19,-1
 75 285 l 1,16,-1
EndSplineSet
Substitution2: "'ss01' Style Set 1 lookup 27 subtable" ordmasculine.alt
Substitution2: "'aalt' Access All Alternates lookup 0 subtable" ordmasculine.alt
EndChar

StartChar: guillemotright
Encoding: 187 187 121
Width: 585
Flags: W
LayerCount: 2
Fore
SplineSet
451 255 m 1,0,-1
 258 479 l 1,1,-1
 362 479 l 1,2,-1
 548 255 l 1,3,-1
 362 32 l 1,4,-1
 258 32 l 1,5,-1
 451 255 l 1,0,-1
50 32 m 1,6,-1
 243 255 l 1,7,-1
 50 479 l 1,8,-1
 154 479 l 1,9,-1
 340 255 l 1,10,-1
 154 32 l 1,11,-1
 50 32 l 1,6,-1
EndSplineSet
EndChar

StartChar: onequarter
Encoding: 188 188 122
Width: 940
Flags: W
HStem: 0 21G<737 801> 96 59<616 737 801 862> 310 59<91 175 239 314> 683 20G<146.702 239>
VStem: 175 64<369 627> 737 64<0 96 155 312>
LayerCount: 2
Fore
SplineSet
239 369 m 1,0,-1
 314 369 l 1,1,-1
 314 310 l 1,2,-1
 91 310 l 1,3,-1
 91 369 l 1,4,-1
 175 369 l 1,5,-1
 175 627 l 1,6,-1
 171 627 l 1,7,-1
 95 590 l 1,8,-1
 95 656 l 1,9,-1
 185 703 l 1,10,-1
 239 703 l 1,11,-1
 239 369 l 1,0,-1
727 710 m 1,12,-1
 288 -14 l 1,13,-1
 208 -14 l 1,14,-1
 647 710 l 1,15,-1
 727 710 l 1,12,-1
801 155 m 1,16,-1
 862 155 l 1,17,-1
 862 96 l 1,18,-1
 801 96 l 1,19,-1
 801 0 l 1,20,-1
 737 0 l 1,21,-1
 737 96 l 1,22,-1
 543 96 l 1,23,-1
 543 152 l 1,24,-1
 731 393 l 1,25,-1
 801 393 l 1,26,-1
 801 155 l 1,16,-1
737 155 m 1,27,-1
 737 312 l 1,28,-1
 735 312 l 1,29,-1
 616 157 l 1,30,-1
 616 155 l 1,31,-1
 737 155 l 1,27,-1
EndSplineSet
Ligature2: "Ligature Substitution lookup 28 subtable" one.numerator fraction four.numerator
Ligature2: "Ligature Substitution lookup 28 subtable" one.numerator slash four.numerator
EndChar

StartChar: onehalf
Encoding: 189 189 123
Width: 940
Flags: W
HStem: 0 59<652 855> 299 65<595 632.471> 310 59<85 169 233 308> 338 61<624.625 785.351> 683 20G<140.702 233>
VStem: 169 64<369 627> 581 71<59 82.3883> 798 63<234.28 324.653>
LayerCount: 2
Fore
SplineSet
823.5 365.5 m 128,-1,1
 861 332 861 332 861 288 c 128,-1,2
 861 244 861 244 833 208 c 128,-1,3
 805 172 805 172 770.5 150 c 0,4,5
 667.222580645 84.1419354839 667.222580645 84.1419354839 652 62 c 1,6,-1
 652 59 l 1,7,-1
 855 59 l 1,8,-1
 855 0 l 1,9,-1
 581 0 l 1,10,-1
 581 39 l 2,11,12
 581 78 581 78 615 113.5 c 128,-1,13
 649 149 649 149 689.5 171.5 c 0,14,15
 798 231.777777778 798 231.777777778 798 278 c 0,16,17
 798 338 798 338 721.5 338 c 128,-1,18
 645 338 645 338 599 299 c 1,19,-1
 595 299 l 1,20,-1
 595 364 l 1,21,22
 655 399 655 399 720.5 399 c 128,-1,0
 786 399 786 399 823.5 365.5 c 128,-1,1
721 710 m 1,23,-1
 282 -14 l 1,24,-1
 202 -14 l 1,25,-1
 641 710 l 1,26,-1
 721 710 l 1,23,-1
233 369 m 1,27,-1
 308 369 l 1,28,-1
 308 310 l 1,29,-1
 85 310 l 1,30,-1
 85 369 l 1,31,-1
 169 369 l 1,32,-1
 169 627 l 1,33,-1
 165 627 l 1,34,-1
 89 590 l 1,35,-1
 89 656 l 1,36,-1
 179 703 l 1,37,-1
 233 703 l 1,38,-1
 233 369 l 1,27,-1
EndSplineSet
Ligature2: "Ligature Substitution lookup 28 subtable" one.numerator fraction two.numerator
Ligature2: "Ligature Substitution lookup 28 subtable" one.numerator slash two.numerator
EndChar

StartChar: threequarters
Encoding: 190 190 124
Width: 940
Flags: W
HStem: 0 21G<751 815> 96 59<630 751 815 876> 304 62<92.9324 273.822> 332 62<75 137.403> 480 60<138 256.223> 615 60<79 126.009> 648 61<102.872 263.478>
VStem: 273 62<557.911 636.029> 286 63<379.733 460.331> 751 64<0 96 155 312>
LayerCount: 2
Fore
SplineSet
741 710 m 1,0,-1
 302 -14 l 1,1,-1
 222 -14 l 1,2,-1
 661 710 l 1,3,-1
 741 710 l 1,0,-1
815 155 m 1,4,-1
 876 155 l 1,5,-1
 876 96 l 1,6,-1
 815 96 l 1,7,-1
 815 0 l 1,8,-1
 751 0 l 1,9,-1
 751 96 l 1,10,-1
 557 96 l 1,11,-1
 557 152 l 1,12,-1
 745 393 l 1,13,-1
 815 393 l 1,14,-1
 815 155 l 1,4,-1
751 155 m 1,15,-1
 751 312 l 1,16,-1
 749 312 l 1,17,-1
 630 157 l 1,18,-1
 630 155 l 1,19,-1
 751 155 l 1,15,-1
335 603 m 0,20,21
 335 538 335 538 275 514 c 1,22,-1
 275 512 l 1,23,24
 349 489 349 489 349 416 c 0,25,26
 349 368 349 368 313.5 336 c 128,-1,27
 278 304 278 304 204.5 304 c 128,-1,28
 131 304 131 304 75 332 c 1,29,-1
 75 394 l 1,30,-1
 80 394 l 1,31,32
 131 366 131 366 194 366 c 0,33,34
 286 366 286 366 286 418 c 0,35,36
 286 480 286 480 174 480 c 2,37,-1
 138 480 l 1,38,-1
 138 540 l 1,39,-1
 167 540 l 2,40,41
 273 540 273 540 273 598 c 0,42,43
 273 648 273 648 195 648 c 0,44,45
 132 648 132 648 84 615 c 1,46,-1
 79 615 l 1,47,-1
 79 675 l 1,48,49
 138 709 138 709 203 709 c 128,-1,50
 268 709 268 709 301.5 679.5 c 128,-1,51
 335 650 335 650 335 603 c 0,20,21
EndSplineSet
Ligature2: "Ligature Substitution lookup 28 subtable" three.numerator fraction four.numerator
Ligature2: "Ligature Substitution lookup 28 subtable" three.numerator slash four.numerator
EndChar

StartChar: questiondown
Encoding: 191 191 125
Width: 488
Flags: W
HStem: -198 85<174.67 376.192> 398 112<216 328>
VStem: 40 90<-71.9999 50.917> 216 112<398 510> 228 88<227.875 317>
LayerCount: 2
Fore
SplineSet
328 510 m 1,0,-1
 328 398 l 1,1,-1
 216 398 l 1,2,-1
 216 510 l 1,3,-1
 328 510 l 1,0,-1
450 -145 m 1,4,5
 355 -198 355 -198 259 -198 c 128,-1,6
 163 -198 163 -198 101.5 -147 c 128,-1,7
 40 -96 40 -96 40 -9 c 0,8,9
 40 37 40 37 59.5 72.5 c 128,-1,10
 79 108 79 108 106.5 131 c 128,-1,11
 134 154 134 154 161.5 176.5 c 0,12,13
 228 230.909090909 228 230.909090909 228 305 c 2,14,-1
 228 317 l 1,15,-1
 316 317 l 1,16,-1
 316 301 l 2,17,18
 316 248 316 248 297 206.5 c 128,-1,19
 278 165 278 165 250.5 139.5 c 128,-1,20
 223 114 223 114 195.5 93 c 0,21,22
 130 42.9818181818 130 42.9818181818 130 -4 c 0,23,24
 130 -113 130 -113 273 -113 c 0,25,26
 356 -113 356 -113 446 -54 c 1,27,-1
 450 -54 l 1,28,-1
 450 -145 l 1,4,5
EndSplineSet
Substitution2: "'c2sc' Capitals to Small Capitals lookup 16 subtable" questiondown.smcp
Substitution2: "'aalt' Access All Alternates lookup 0 subtable" questiondown.smcp
EndChar

StartChar: Agrave
Encoding: 192 192 126
Width: 697
Flags: W
HStem: 0 21G<5 112.38 584.62 692> 179 83<215 482> 678 20G<292.519 404.481>
LayerCount: 2
Fore
SplineSet
223 883 m 1,0,-1
 322 883 l 1,1,-1
 398 750 l 1,2,-1
 336 750 l 1,3,-1
 223 883 l 1,0,-1
593 0 m 1,4,-1
 518 179 l 1,5,-1
 179 179 l 1,6,-1
 104 0 l 1,7,-1
 5 0 l 1,8,-1
 301 698 l 1,9,-1
 396 698 l 1,10,-1
 692 0 l 1,11,-1
 593 0 l 1,4,-1
215 267 m 1,12,-1
 215 262 l 1,13,-1
 482 262 l 1,14,-1
 482 267 l 1,15,-1
 350 586 l 1,16,-1
 348 586 l 1,17,-1
 215 267 l 1,12,-1
EndSplineSet
Substitution2: "'c2sc' Capitals to Small Capitals lookup 16 subtable" agrave.smcp
Substitution2: "'aalt' Access All Alternates lookup 0 subtable" agrave.smcp
EndChar

StartChar: Aacute
Encoding: 193 193 127
Width: 697
Flags: W
HStem: 0 21G<5 112.38 584.62 692> 179 83<215 482> 678 20G<292.519 404.481>
LayerCount: 2
Fore
SplineSet
375 883 m 1,0,-1
 474 883 l 1,1,-1
 361 750 l 1,2,-1
 299 750 l 1,3,-1
 375 883 l 1,0,-1
593 0 m 1,4,-1
 518 179 l 1,5,-1
 179 179 l 1,6,-1
 104 0 l 1,7,-1
 5 0 l 1,8,-1
 301 698 l 1,9,-1
 396 698 l 1,10,-1
 692 0 l 1,11,-1
 593 0 l 1,4,-1
215 267 m 1,12,-1
 215 262 l 1,13,-1
 482 262 l 1,14,-1
 482 267 l 1,15,-1
 350 586 l 1,16,-1
 348 586 l 1,17,-1
 215 267 l 1,12,-1
EndSplineSet
Substitution2: "'c2sc' Capitals to Small Capitals lookup 16 subtable" aacute.smcp
Substitution2: "'aalt' Access All Alternates lookup 0 subtable" aacute.smcp
EndChar

StartChar: Acircumflex
Encoding: 194 194 128
Width: 697
Flags: W
HStem: 0 21G<5 112.38 584.62 692> 179 83<215 482> 678 20G<292.519 404.481>
LayerCount: 2
Fore
SplineSet
390 873 m 1,0,-1
 503 750 l 1,1,-1
 424 750 l 1,2,-1
 349 823 l 1,3,-1
 274 750 l 1,4,-1
 195 750 l 1,5,-1
 308 873 l 1,6,-1
 390 873 l 1,0,-1
593 0 m 1,7,-1
 518 179 l 1,8,-1
 179 179 l 1,9,-1
 104 0 l 1,10,-1
 5 0 l 1,11,-1
 301 698 l 1,12,-1
 396 698 l 1,13,-1
 692 0 l 1,14,-1
 593 0 l 1,7,-1
215 267 m 1,15,-1
 215 262 l 1,16,-1
 482 262 l 1,17,-1
 482 267 l 1,18,-1
 350 586 l 1,19,-1
 348 586 l 1,20,-1
 215 267 l 1,15,-1
EndSplineSet
Substitution2: "'c2sc' Capitals to Small Capitals lookup 16 subtable" acircumflex.smcp
Substitution2: "'aalt' Access All Alternates lookup 0 subtable" acircumflex.smcp
EndChar

StartChar: Atilde
Encoding: 195 195 129
Width: 697
Flags: W
HStem: 0 21G<5 112.38 584.62 692> 179 83<215 482> 678 20G<292.519 404.481> 745 69<355.083 462.467> 793 68<239.112 343.68>
VStem: 187 44<750 786.914> 469 45<819.545 855>
LayerCount: 2
Fore
SplineSet
469 855 m 1,0,-1
 514 855 l 1,1,2
 510 801 510 801 486.5 773 c 128,-1,3
 463 745 463 745 430.5 745 c 128,-1,4
 398 745 398 745 348.5 769 c 128,-1,5
 299 793 299 793 274 793 c 0,6,7
 241 793 241 793 231 750 c 1,8,-1
 187 750 l 1,9,10
 191 804 191 804 214.5 832.5 c 128,-1,11
 238 861 238 861 270 861 c 128,-1,12
 302 861 302 861 351 837.5 c 128,-1,13
 400 814 400 814 427 814 c 0,14,15
 461 814 461 814 469 855 c 1,0,-1
593 0 m 1,16,-1
 518 179 l 1,17,-1
 179 179 l 1,18,-1
 104 0 l 1,19,-1
 5 0 l 1,20,-1
 301 698 l 1,21,-1
 396 698 l 1,22,-1
 692 0 l 1,23,-1
 593 0 l 1,16,-1
215 267 m 1,24,-1
 215 262 l 1,25,-1
 482 262 l 1,26,-1
 482 267 l 1,27,-1
 350 586 l 1,28,-1
 348 586 l 1,29,-1
 215 267 l 1,24,-1
EndSplineSet
Substitution2: "'c2sc' Capitals to Small Capitals lookup 16 subtable" atilde.smcp
Substitution2: "'aalt' Access All Alternates lookup 0 subtable" atilde.smcp
EndChar

StartChar: Adieresis
Encoding: 196 196 130
Width: 697
Flags: W
HStem: 0 21G<5 112.38 584.62 692> 179 83<215 482> 678 20G<292.519 404.481> 750 96<217 313 385 481>
VStem: 217 96<750 846> 385 96<750 846>
LayerCount: 2
Fore
SplineSet
593 0 m 1,0,-1
 518 179 l 1,1,-1
 179 179 l 1,2,-1
 104 0 l 1,3,-1
 5 0 l 1,4,-1
 301 698 l 1,5,-1
 396 698 l 1,6,-1
 692 0 l 1,7,-1
 593 0 l 1,0,-1
215 267 m 1,8,-1
 215 262 l 1,9,-1
 482 262 l 1,10,-1
 482 267 l 1,11,-1
 350 586 l 1,12,-1
 348 586 l 1,13,-1
 215 267 l 1,8,-1
217 750 m 1,14,-1
 217 846 l 1,15,-1
 313 846 l 1,16,-1
 313 750 l 1,17,-1
 217 750 l 1,14,-1
385 750 m 1,18,-1
 385 846 l 1,19,-1
 481 846 l 1,20,-1
 481 750 l 1,21,-1
 385 750 l 1,18,-1
EndSplineSet
Substitution2: "'c2sc' Capitals to Small Capitals lookup 16 subtable" adieresis.smcp
Substitution2: "'aalt' Access All Alternates lookup 0 subtable" adieresis.smcp
EndChar

StartChar: Aring
Encoding: 197 197 131
Width: 697
Flags: W
HStem: 0 21G<5 112.38 584.62 692> 179 83<215 482> 678 20G<292.519 404.481> 730 45<311.859 386.141> 873 45<311.859 386.141>
VStem: 255 45<786.859 861.141> 398 45<786.859 861.141>
LayerCount: 2
Fore
SplineSet
349 918 m 128,-1,1
 388 918 388 918 415.5 890.5 c 128,-1,2
 443 863 443 863 443 824 c 128,-1,3
 443 785 443 785 415.5 757.5 c 128,-1,4
 388 730 388 730 349 730 c 128,-1,5
 310 730 310 730 282.5 757.5 c 128,-1,6
 255 785 255 785 255 824 c 128,-1,7
 255 863 255 863 282.5 890.5 c 128,-1,0
 310 918 310 918 349 918 c 128,-1,1
349 775 m 128,-1,9
 369 775 369 775 383.5 789.5 c 128,-1,10
 398 804 398 804 398 824 c 128,-1,11
 398 844 398 844 383.5 858.5 c 128,-1,12
 369 873 369 873 349 873 c 128,-1,13
 329 873 329 873 314.5 858.5 c 128,-1,14
 300 844 300 844 300 824 c 128,-1,15
 300 804 300 804 314.5 789.5 c 128,-1,8
 329 775 329 775 349 775 c 128,-1,9
593 0 m 1,16,-1
 518 179 l 1,17,-1
 179 179 l 1,18,-1
 104 0 l 1,19,-1
 5 0 l 1,20,-1
 301 698 l 1,21,-1
 396 698 l 1,22,-1
 692 0 l 1,23,-1
 593 0 l 1,16,-1
215 267 m 1,24,-1
 215 262 l 1,25,-1
 482 262 l 1,26,-1
 482 267 l 1,27,-1
 350 586 l 1,28,-1
 348 586 l 1,29,-1
 215 267 l 1,24,-1
EndSplineSet
Substitution2: "'c2sc' Capitals to Small Capitals lookup 16 subtable" aring.smcp
Substitution2: "'aalt' Access All Alternates lookup 0 subtable" aring.smcp
EndChar

StartChar: AE
Encoding: 198 198 132
Width: 1040
Flags: W
HStem: 0 85<590 983> 179 83<247 499> 307 85<590 947> 613 85<474 499 590 983>
VStem: 499 91<85 179 262 307 392 613>
LayerCount: 2
Fore
SplineSet
983 613 m 1,0,-1
 590 613 l 1,1,-1
 590 392 l 1,2,-1
 947 392 l 1,3,-1
 947 307 l 1,4,-1
 590 307 l 1,5,-1
 590 85 l 1,6,-1
 983 85 l 1,7,-1
 983 0 l 1,8,-1
 499 0 l 1,9,-1
 499 179 l 1,10,-1
 191 179 l 1,11,-1
 75 0 l 1,12,-1
 -33 0 l 1,13,-1
 427 698 l 1,14,-1
 983 698 l 1,15,-1
 983 613 l 1,0,-1
499 262 m 1,16,-1
 499 613 l 1,17,-1
 474 613 l 1,18,-1
 247 265 l 1,19,-1
 247 262 l 1,20,-1
 499 262 l 1,16,-1
EndSplineSet
Substitution2: "'c2sc' Capitals to Small Capitals lookup 16 subtable" ae.smcp
Substitution2: "'aalt' Access All Alternates lookup 0 subtable" ae.smcp
EndChar

StartChar: Ccedilla
Encoding: 199 199 133
Width: 698
Flags: W
HStem: -221 43<302.196 418.793> -101 42<381.347 436> -10 87<411 542.335> 621 87<294.638 544.168>
VStem: 56 91<231.399 468.056> 425 67<-171.182 -106.26>
LayerCount: 2
Fore
SplineSet
381 -63 m 1,0,1
 397 -59 397 -59 423 -59 c 128,-1,2
 449 -59 449 -59 470.5 -78.5 c 128,-1,3
 492 -98 492 -98 492 -129 c 0,4,5
 492 -221 492 -221 381 -221 c 0,6,7
 329 -221 329 -221 283 -190 c 1,8,-1
 299 -155 l 1,9,10
 336 -178 336 -178 368 -178 c 0,11,12
 425 -178 425 -178 425 -132 c 0,13,14
 425 -117 425 -117 415 -109 c 128,-1,15
 405 -101 405 -101 385.5 -101 c 128,-1,16
 366 -101 366 -101 343 -113 c 1,17,-1
 314 -97 l 1,18,-1
 369 -8 l 1,19,20
 231 4 231 4 143.5 100 c 128,-1,21
 56 196 56 196 56 354.5 c 128,-1,22
 56 513 56 513 154.5 610.5 c 128,-1,23
 253 708 253 708 406 708 c 0,24,25
 535 708 535 708 643 643 c 1,26,-1
 643 553 l 1,27,-1
 638 553 l 1,28,29
 535 621 535 621 411 621 c 128,-1,30
 287 621 287 621 217 545 c 128,-1,31
 147 469 147 469 147 349 c 128,-1,32
 147 229 147 229 217 153 c 128,-1,33
 287 77 287 77 411 77 c 128,-1,34
 535 77 535 77 638 145 c 1,35,-1
 643 145 l 1,36,-1
 643 55 l 1,37,38
 536 -9 536 -9 411 -10 c 1,39,-1
 381 -63 l 1,0,1
EndSplineSet
Substitution2: "'c2sc' Capitals to Small Capitals lookup 16 subtable" ccedilla.smcp
Substitution2: "'aalt' Access All Alternates lookup 0 subtable" ccedilla.smcp
EndChar

StartChar: Egrave
Encoding: 200 200 134
Width: 638
Flags: W
HStem: 0 85<188 581> 307 85<188 545> 613 85<188 581>
VStem: 97 91<85 307 392 613>
LayerCount: 2
Fore
SplineSet
581 613 m 1,0,-1
 188 613 l 1,1,-1
 188 392 l 1,2,-1
 545 392 l 1,3,-1
 545 307 l 1,4,-1
 188 307 l 1,5,-1
 188 85 l 1,6,-1
 581 85 l 1,7,-1
 581 0 l 1,8,-1
 97 0 l 1,9,-1
 97 698 l 1,10,-1
 581 698 l 1,11,-1
 581 613 l 1,0,-1
218 883 m 1,12,-1
 317 883 l 1,13,-1
 393 750 l 1,14,-1
 331 750 l 1,15,-1
 218 883 l 1,12,-1
EndSplineSet
Substitution2: "'c2sc' Capitals to Small Capitals lookup 16 subtable" egrave.smcp
Substitution2: "'aalt' Access All Alternates lookup 0 subtable" egrave.smcp
EndChar

StartChar: Eacute
Encoding: 201 201 135
Width: 638
Flags: W
HStem: 0 85<188 581> 307 85<188 545> 613 85<188 581>
VStem: 97 91<85 307 392 613>
LayerCount: 2
Fore
SplineSet
581 613 m 1,0,-1
 188 613 l 1,1,-1
 188 392 l 1,2,-1
 545 392 l 1,3,-1
 545 307 l 1,4,-1
 188 307 l 1,5,-1
 188 85 l 1,6,-1
 581 85 l 1,7,-1
 581 0 l 1,8,-1
 97 0 l 1,9,-1
 97 698 l 1,10,-1
 581 698 l 1,11,-1
 581 613 l 1,0,-1
365 883 m 1,12,-1
 464 883 l 1,13,-1
 351 750 l 1,14,-1
 289 750 l 1,15,-1
 365 883 l 1,12,-1
EndSplineSet
Substitution2: "'c2sc' Capitals to Small Capitals lookup 16 subtable" eacute.smcp
Substitution2: "'aalt' Access All Alternates lookup 0 subtable" eacute.smcp
EndChar

StartChar: Ecircumflex
Encoding: 202 202 136
Width: 638
Flags: W
HStem: 0 85<188 581> 307 85<188 545> 613 85<188 581>
VStem: 97 91<85 307 392 613>
LayerCount: 2
Fore
SplineSet
581 613 m 1,0,-1
 188 613 l 1,1,-1
 188 392 l 1,2,-1
 545 392 l 1,3,-1
 545 307 l 1,4,-1
 188 307 l 1,5,-1
 188 85 l 1,6,-1
 581 85 l 1,7,-1
 581 0 l 1,8,-1
 97 0 l 1,9,-1
 97 698 l 1,10,-1
 581 698 l 1,11,-1
 581 613 l 1,0,-1
390 873 m 1,12,-1
 503 750 l 1,13,-1
 424 750 l 1,14,-1
 349 823 l 1,15,-1
 274 750 l 1,16,-1
 195 750 l 1,17,-1
 308 873 l 1,18,-1
 390 873 l 1,12,-1
EndSplineSet
Substitution2: "'c2sc' Capitals to Small Capitals lookup 16 subtable" ecircumflex.smcp
Substitution2: "'aalt' Access All Alternates lookup 0 subtable" ecircumflex.smcp
EndChar

StartChar: Edieresis
Encoding: 203 203 137
Width: 638
Flags: W
HStem: 0 85<188 581> 307 85<188 545> 613 85<188 581> 750 96<206 302 374 470>
VStem: 97 91<85 307 392 613> 206 96<750 846> 374 96<750 846>
LayerCount: 2
Fore
SplineSet
581 613 m 1,0,-1
 188 613 l 1,1,-1
 188 392 l 1,2,-1
 545 392 l 1,3,-1
 545 307 l 1,4,-1
 188 307 l 1,5,-1
 188 85 l 1,6,-1
 581 85 l 1,7,-1
 581 0 l 1,8,-1
 97 0 l 1,9,-1
 97 698 l 1,10,-1
 581 698 l 1,11,-1
 581 613 l 1,0,-1
206 750 m 1,12,-1
 206 846 l 1,13,-1
 302 846 l 1,14,-1
 302 750 l 1,15,-1
 206 750 l 1,12,-1
374 750 m 1,16,-1
 374 846 l 1,17,-1
 470 846 l 1,18,-1
 470 750 l 1,19,-1
 374 750 l 1,16,-1
EndSplineSet
Substitution2: "'c2sc' Capitals to Small Capitals lookup 16 subtable" edieresis.smcp
Substitution2: "'aalt' Access All Alternates lookup 0 subtable" edieresis.smcp
EndChar

StartChar: Igrave
Encoding: 204 204 138
Width: 285
Flags: W
HStem: 0 21G<97 188> 678 20G<97 188>
VStem: 97 91<0 698>
LayerCount: 2
Fore
SplineSet
188 698 m 1,0,-1
 188 0 l 1,1,-1
 97 0 l 1,2,-1
 97 698 l 1,3,-1
 188 698 l 1,0,-1
22 883 m 1,4,-1
 121 883 l 1,5,-1
 197 750 l 1,6,-1
 135 750 l 1,7,-1
 22 883 l 1,4,-1
EndSplineSet
Substitution2: "'c2sc' Capitals to Small Capitals lookup 16 subtable" igrave.smcp
Substitution2: "'aalt' Access All Alternates lookup 0 subtable" igrave.smcp
EndChar

StartChar: Iacute
Encoding: 205 205 139
Width: 285
Flags: W
HStem: 0 21G<97 188> 678 20G<97 188>
VStem: 97 91<0 698>
LayerCount: 2
Fore
SplineSet
188 698 m 1,0,-1
 188 0 l 1,1,-1
 97 0 l 1,2,-1
 97 698 l 1,3,-1
 188 698 l 1,0,-1
164 883 m 1,4,-1
 263 883 l 1,5,-1
 150 750 l 1,6,-1
 88 750 l 1,7,-1
 164 883 l 1,4,-1
EndSplineSet
Substitution2: "'c2sc' Capitals to Small Capitals lookup 16 subtable" iacute.smcp
Substitution2: "'aalt' Access All Alternates lookup 0 subtable" iacute.smcp
EndChar

StartChar: Icircumflex
Encoding: 206 206 140
Width: 285
Flags: W
HStem: 0 21G<97 188> 678 20G<97 188>
VStem: 97 91<0 698>
LayerCount: 2
Fore
SplineSet
188 698 m 1,0,-1
 188 0 l 1,1,-1
 97 0 l 1,2,-1
 97 698 l 1,3,-1
 188 698 l 1,0,-1
183 873 m 1,4,-1
 296 750 l 1,5,-1
 217 750 l 1,6,-1
 142 823 l 1,7,-1
 67 750 l 1,8,-1
 -12 750 l 1,9,-1
 101 873 l 1,10,-1
 183 873 l 1,4,-1
EndSplineSet
Substitution2: "'c2sc' Capitals to Small Capitals lookup 16 subtable" icircumflex.smcp
Substitution2: "'aalt' Access All Alternates lookup 0 subtable" icircumflex.smcp
EndChar

StartChar: Idieresis
Encoding: 207 207 141
Width: 285
Flags: W
HStem: 0 21G<97 188> 678 20G<97 188> 750 96<10 106 178 274>
VStem: 10 96<750 846> 97 91<0 698> 178 96<750 846>
LayerCount: 2
Fore
SplineSet
188 698 m 1,0,-1
 188 0 l 1,1,-1
 97 0 l 1,2,-1
 97 698 l 1,3,-1
 188 698 l 1,0,-1
10 750 m 1,4,-1
 10 846 l 1,5,-1
 106 846 l 1,6,-1
 106 750 l 1,7,-1
 10 750 l 1,4,-1
178 750 m 1,8,-1
 178 846 l 1,9,-1
 274 846 l 1,10,-1
 274 750 l 1,11,-1
 178 750 l 1,8,-1
EndSplineSet
Substitution2: "'c2sc' Capitals to Small Capitals lookup 16 subtable" idieresis.smcp
Substitution2: "'aalt' Access All Alternates lookup 0 subtable" idieresis.smcp
EndChar

StartChar: Eth
Encoding: 208 208 142
Width: 757
Flags: W
HStem: 0 85<195 459.318> 315 67<22 104 195 341> 613 85<195 458.114>
VStem: 104 91<85 315 382 613> 613 90<235.39 461.067>
LayerCount: 2
Fore
SplineSet
22 315 m 1,0,-1
 22 382 l 1,1,-1
 104 382 l 1,2,-1
 104 698 l 1,3,-1
 350 698 l 2,4,5
 436 698 436 698 505.5 667.5 c 128,-1,6
 575 637 575 637 617 586.5 c 0,7,8
 703 483.095238095 703 483.095238095 703 349 c 0,9,10
 703 241.631578947 703 241.631578947 647.5 154 c 0,11,12
 585.770503597 56.5323741007 585.770503597 56.5323741007 478 20 c 0,13,14
 419 0 419 0 350 0 c 2,15,-1
 104 0 l 1,16,-1
 104 315 l 1,17,-1
 22 315 l 1,0,-1
339 85 m 2,18,19
 463 85 463 85 538 158 c 128,-1,20
 613 231 613 231 613 349 c 128,-1,21
 613 467 613 467 538 540 c 128,-1,22
 463 613 463 613 339 613 c 2,23,-1
 195 613 l 1,24,-1
 195 382 l 1,25,-1
 341 382 l 1,26,-1
 341 315 l 1,27,-1
 195 315 l 1,28,-1
 195 85 l 1,29,-1
 339 85 l 2,18,19
EndSplineSet
Substitution2: "'c2sc' Capitals to Small Capitals lookup 16 subtable" eth.smcp
Substitution2: "'aalt' Access All Alternates lookup 0 subtable" eth.smcp
EndChar

StartChar: Ntilde
Encoding: 209 209 143
Width: 803
Flags: W
HStem: 0 21G<97 188 579.948 706> 678 20G<97 223.042 615 706> 745 69<411.083 518.467> 793 68<295.112 399.68>
VStem: 97 91<0 575> 243 44<750 786.914> 525 45<819.545 855> 615 91<124 698>
LayerCount: 2
Fore
SplineSet
615 698 m 1,0,-1
 706 698 l 1,1,-1
 706 0 l 1,2,-1
 594 0 l 1,3,-1
 190 575 l 1,4,-1
 188 575 l 1,5,-1
 188 0 l 1,6,-1
 97 0 l 1,7,-1
 97 698 l 1,8,-1
 209 698 l 1,9,-1
 612 124 l 1,10,-1
 615 124 l 1,11,-1
 615 698 l 1,0,-1
525 855 m 1,12,-1
 570 855 l 1,13,14
 566 801 566 801 542.5 773 c 128,-1,15
 519 745 519 745 486.5 745 c 128,-1,16
 454 745 454 745 404.5 769 c 128,-1,17
 355 793 355 793 330 793 c 0,18,19
 297 793 297 793 287 750 c 1,20,-1
 243 750 l 1,21,22
 247 804 247 804 270.5 832.5 c 128,-1,23
 294 861 294 861 326 861 c 128,-1,24
 358 861 358 861 407 837.5 c 128,-1,25
 456 814 456 814 483 814 c 0,26,27
 517 814 517 814 525 855 c 1,12,-1
EndSplineSet
Substitution2: "'c2sc' Capitals to Small Capitals lookup 16 subtable" ntilde.smcp
Substitution2: "'aalt' Access All Alternates lookup 0 subtable" ntilde.smcp
EndChar

StartChar: Ograve
Encoding: 210 210 144
Width: 811
Flags: W
HStem: -10 85<292.019 517.46> 623 85<292.019 517.46>
VStem: 55 91<228.903 469.097> 666 91<230.403 467.597>
LayerCount: 2
Fore
SplineSet
406 708 m 128,-1,1
 564 708 564 708 659 608 c 128,-1,2
 754 508 754 508 757 349 c 1,3,4
 754 190 754 190 659 90 c 128,-1,5
 564 -10 564 -10 406 -10 c 128,-1,6
 248 -10 248 -10 153 90 c 128,-1,7
 58 190 58 190 55 349 c 1,8,9
 58 508 58 508 153 608 c 128,-1,0
 248 708 248 708 406 708 c 128,-1,1
215.5 152.5 m 128,-1,11
 285 75 285 75 405.5 75 c 128,-1,12
 526 75 526 75 596 152.5 c 128,-1,13
 666 230 666 230 666 349 c 128,-1,14
 666 468 666 468 596 545.5 c 128,-1,15
 526 623 526 623 405.5 623 c 128,-1,16
 285 623 285 623 215.5 545.5 c 128,-1,17
 146 468 146 468 146 349 c 128,-1,10
 146 230 146 230 215.5 152.5 c 128,-1,11
288 883 m 1,18,-1
 387 883 l 1,19,-1
 463 750 l 1,20,-1
 401 750 l 1,21,-1
 288 883 l 1,18,-1
EndSplineSet
Substitution2: "'c2sc' Capitals to Small Capitals lookup 16 subtable" ograve.smcp
Substitution2: "'aalt' Access All Alternates lookup 0 subtable" ograve.smcp
EndChar

StartChar: Oacute
Encoding: 211 211 145
Width: 811
Flags: W
HStem: -10 85<292.019 517.46> 623 85<292.019 517.46>
VStem: 55 91<228.903 469.097> 666 91<230.403 467.597>
LayerCount: 2
Fore
SplineSet
406 708 m 128,-1,1
 564 708 564 708 659 608 c 128,-1,2
 754 508 754 508 757 349 c 1,3,4
 754 190 754 190 659 90 c 128,-1,5
 564 -10 564 -10 406 -10 c 128,-1,6
 248 -10 248 -10 153 90 c 128,-1,7
 58 190 58 190 55 349 c 1,8,9
 58 508 58 508 153 608 c 128,-1,0
 248 708 248 708 406 708 c 128,-1,1
215.5 152.5 m 128,-1,11
 285 75 285 75 405.5 75 c 128,-1,12
 526 75 526 75 596 152.5 c 128,-1,13
 666 230 666 230 666 349 c 128,-1,14
 666 468 666 468 596 545.5 c 128,-1,15
 526 623 526 623 405.5 623 c 128,-1,16
 285 623 285 623 215.5 545.5 c 128,-1,17
 146 468 146 468 146 349 c 128,-1,10
 146 230 146 230 215.5 152.5 c 128,-1,11
425 883 m 1,18,-1
 524 883 l 1,19,-1
 411 750 l 1,20,-1
 349 750 l 1,21,-1
 425 883 l 1,18,-1
EndSplineSet
Substitution2: "'c2sc' Capitals to Small Capitals lookup 16 subtable" oacute.smcp
Substitution2: "'aalt' Access All Alternates lookup 0 subtable" oacute.smcp
EndChar

StartChar: Ocircumflex
Encoding: 212 212 146
Width: 811
Flags: W
HStem: -10 85<292.019 517.46> 623 85<292.019 517.46>
VStem: 55 91<228.903 469.097> 666 91<230.403 467.597>
LayerCount: 2
Fore
SplineSet
406 708 m 128,-1,1
 564 708 564 708 659 608 c 128,-1,2
 754 508 754 508 757 349 c 1,3,4
 754 190 754 190 659 90 c 128,-1,5
 564 -10 564 -10 406 -10 c 128,-1,6
 248 -10 248 -10 153 90 c 128,-1,7
 58 190 58 190 55 349 c 1,8,9
 58 508 58 508 153 608 c 128,-1,0
 248 708 248 708 406 708 c 128,-1,1
215.5 152.5 m 128,-1,11
 285 75 285 75 405.5 75 c 128,-1,12
 526 75 526 75 596 152.5 c 128,-1,13
 666 230 666 230 666 349 c 128,-1,14
 666 468 666 468 596 545.5 c 128,-1,15
 526 623 526 623 405.5 623 c 128,-1,16
 285 623 285 623 215.5 545.5 c 128,-1,17
 146 468 146 468 146 349 c 128,-1,10
 146 230 146 230 215.5 152.5 c 128,-1,11
447 873 m 1,18,-1
 560 750 l 1,19,-1
 481 750 l 1,20,-1
 406 823 l 1,21,-1
 331 750 l 1,22,-1
 252 750 l 1,23,-1
 365 873 l 1,24,-1
 447 873 l 1,18,-1
EndSplineSet
Substitution2: "'c2sc' Capitals to Small Capitals lookup 16 subtable" ocircumflex.smcp
Substitution2: "'aalt' Access All Alternates lookup 0 subtable" ocircumflex.smcp
EndChar

StartChar: Otilde
Encoding: 213 213 147
Width: 811
Flags: W
HStem: -10 85<292.019 517.46> 623 85<292.019 517.46> 745 69<411.083 518.467> 793 68<295.112 399.68>
VStem: 55 91<228.903 469.097> 243 44<750 786.914> 525 45<819.545 855> 666 91<230.403 467.597>
LayerCount: 2
Fore
SplineSet
406 708 m 128,-1,1
 564 708 564 708 659 608 c 128,-1,2
 754 508 754 508 757 349 c 1,3,4
 754 190 754 190 659 90 c 128,-1,5
 564 -10 564 -10 406 -10 c 128,-1,6
 248 -10 248 -10 153 90 c 128,-1,7
 58 190 58 190 55 349 c 1,8,9
 58 508 58 508 153 608 c 128,-1,0
 248 708 248 708 406 708 c 128,-1,1
215.5 152.5 m 128,-1,11
 285 75 285 75 405.5 75 c 128,-1,12
 526 75 526 75 596 152.5 c 128,-1,13
 666 230 666 230 666 349 c 128,-1,14
 666 468 666 468 596 545.5 c 128,-1,15
 526 623 526 623 405.5 623 c 128,-1,16
 285 623 285 623 215.5 545.5 c 128,-1,17
 146 468 146 468 146 349 c 128,-1,10
 146 230 146 230 215.5 152.5 c 128,-1,11
525 855 m 1,18,-1
 570 855 l 1,19,20
 566 801 566 801 542.5 773 c 128,-1,21
 519 745 519 745 486.5 745 c 128,-1,22
 454 745 454 745 404.5 769 c 128,-1,23
 355 793 355 793 330 793 c 0,24,25
 297 793 297 793 287 750 c 1,26,-1
 243 750 l 1,27,28
 247 804 247 804 270.5 832.5 c 128,-1,29
 294 861 294 861 326 861 c 128,-1,30
 358 861 358 861 407 837.5 c 128,-1,31
 456 814 456 814 483 814 c 0,32,33
 517 814 517 814 525 855 c 1,18,-1
EndSplineSet
Substitution2: "'c2sc' Capitals to Small Capitals lookup 16 subtable" otilde.smcp
Substitution2: "'aalt' Access All Alternates lookup 0 subtable" otilde.smcp
EndChar

StartChar: Odieresis
Encoding: 214 214 148
Width: 811
Flags: W
HStem: -10 85<292.019 517.46> 623 85<292.019 517.46> 750 96<274 370 442 538>
VStem: 55 91<228.903 469.097> 274 96<750 846> 442 96<750 846> 666 91<230.403 467.597>
LayerCount: 2
Fore
SplineSet
406 708 m 128,-1,1
 564 708 564 708 659 608 c 128,-1,2
 754 508 754 508 757 349 c 1,3,4
 754 190 754 190 659 90 c 128,-1,5
 564 -10 564 -10 406 -10 c 128,-1,6
 248 -10 248 -10 153 90 c 128,-1,7
 58 190 58 190 55 349 c 1,8,9
 58 508 58 508 153 608 c 128,-1,0
 248 708 248 708 406 708 c 128,-1,1
215.5 152.5 m 128,-1,11
 285 75 285 75 405.5 75 c 128,-1,12
 526 75 526 75 596 152.5 c 128,-1,13
 666 230 666 230 666 349 c 128,-1,14
 666 468 666 468 596 545.5 c 128,-1,15
 526 623 526 623 405.5 623 c 128,-1,16
 285 623 285 623 215.5 545.5 c 128,-1,17
 146 468 146 468 146 349 c 128,-1,10
 146 230 146 230 215.5 152.5 c 128,-1,11
274 750 m 1,18,-1
 274 846 l 1,19,-1
 370 846 l 1,20,-1
 370 750 l 1,21,-1
 274 750 l 1,18,-1
442 750 m 1,22,-1
 442 846 l 1,23,-1
 538 846 l 1,24,-1
 538 750 l 1,25,-1
 442 750 l 1,22,-1
EndSplineSet
Substitution2: "'c2sc' Capitals to Small Capitals lookup 16 subtable" odieresis.smcp
Substitution2: "'aalt' Access All Alternates lookup 0 subtable" odieresis.smcp
EndChar

StartChar: multiply
Encoding: 215 215 149
Width: 563
Flags: W
LayerCount: 2
Fore
SplineSet
506 430 m 1,0,-1
 335 259 l 1,1,-1
 335 257 l 1,2,-1
 506 86 l 1,3,-1
 452 33 l 1,4,-1
 282 204 l 1,5,-1
 280 204 l 1,6,-1
 109 34 l 1,7,-1
 56 87 l 1,8,-1
 227 257 l 1,9,-1
 227 259 l 1,10,-1
 57 430 l 1,11,-1
 110 483 l 1,12,-1
 280 312 l 1,13,-1
 282 312 l 1,14,-1
 453 483 l 1,15,-1
 506 430 l 1,0,-1
EndSplineSet
EndChar

StartChar: Oslash
Encoding: 216 216 150
Width: 811
Flags: W
HStem: -10 85<295.854 517.515> 623 85<292.074 518.677>
VStem: 55 91<228.491 468.475> 666 91<233.238 471.066>
LayerCount: 2
Fore
SplineSet
635 631 m 1,0,1
 754 531 754 531 757 349 c 1,2,3
 754 190 754 190 659 90 c 128,-1,4
 564 -10 564 -10 406 -10 c 0,5,6
 302 -10 302 -10 219 38 c 1,7,-1
 171 -30 l 1,8,-1
 130 -1 l 1,9,-1
 178 67 l 1,10,11
 60 165 60 165 55 349 c 1,12,13
 58 508 58 508 153 608 c 128,-1,14
 248 708 248 708 406 708 c 0,15,16
 513 708 513 708 594 660 c 1,17,-1
 642 729 l 1,18,-1
 683 700 l 1,19,-1
 635 631 l 1,0,1
215.5 545.5 m 128,-1,21
 146 468 146 468 146 342.5 c 128,-1,22
 146 217 146 217 229 140 c 1,23,-1
 544 589 l 1,24,25
 485 623 485 623 406 623 c 0,26,20
 285 623 285 623 215.5 545.5 c 128,-1,21
406 75 m 0,27,28
 526 75 526 75 596 152.5 c 128,-1,29
 666 230 666 230 666 356 c 128,-1,30
 666 482 666 482 584 559 c 1,31,-1
 269 110 l 1,32,33
 329 75 329 75 406 75 c 0,27,28
EndSplineSet
Substitution2: "'c2sc' Capitals to Small Capitals lookup 16 subtable" oslash.smcp
Substitution2: "'aalt' Access All Alternates lookup 0 subtable" oslash.smcp
EndChar

StartChar: Ugrave
Encoding: 217 217 151
Width: 758
Flags: W
HStem: -10 83<282.81 475.19> 678 20G<92 183 575 666>
VStem: 92 91<166.375 698> 575 91<166.375 698>
LayerCount: 2
Fore
SplineSet
575 698 m 1,0,-1
 666 698 l 1,1,-1
 666 262 l 2,2,3
 666 194 666 194 640.5 140.5 c 128,-1,4
 615 87 615 87 572.5 55 c 128,-1,5
 530 23 530 23 480.5 6.5 c 128,-1,6
 431 -10 431 -10 379 -10 c 128,-1,7
 327 -10 327 -10 277.5 6.5 c 128,-1,8
 228 23 228 23 185.5 55 c 128,-1,9
 143 87 143 87 117.5 140.5 c 128,-1,10
 92 194 92 194 92 262 c 2,11,-1
 92 698 l 1,12,-1
 183 698 l 1,13,-1
 183 259 l 2,14,15
 183 171 183 171 241 122 c 128,-1,16
 299 73 299 73 379 73 c 128,-1,17
 459 73 459 73 517 122 c 128,-1,18
 575 171 575 171 575 259 c 2,19,-1
 575 698 l 1,0,-1
267 883 m 1,20,-1
 366 883 l 1,21,-1
 442 750 l 1,22,-1
 380 750 l 1,23,-1
 267 883 l 1,20,-1
EndSplineSet
Substitution2: "'c2sc' Capitals to Small Capitals lookup 16 subtable" ugrave.smcp
Substitution2: "'aalt' Access All Alternates lookup 0 subtable" ugrave.smcp
EndChar

StartChar: Uacute
Encoding: 218 218 152
Width: 758
Flags: W
HStem: -10 83<282.81 475.19> 678 20G<92 183 575 666>
VStem: 92 91<166.375 698> 575 91<166.375 698>
LayerCount: 2
Fore
SplineSet
575 698 m 1,0,-1
 666 698 l 1,1,-1
 666 262 l 2,2,3
 666 194 666 194 640.5 140.5 c 128,-1,4
 615 87 615 87 572.5 55 c 128,-1,5
 530 23 530 23 480.5 6.5 c 128,-1,6
 431 -10 431 -10 379 -10 c 128,-1,7
 327 -10 327 -10 277.5 6.5 c 128,-1,8
 228 23 228 23 185.5 55 c 128,-1,9
 143 87 143 87 117.5 140.5 c 128,-1,10
 92 194 92 194 92 262 c 2,11,-1
 92 698 l 1,12,-1
 183 698 l 1,13,-1
 183 259 l 2,14,15
 183 171 183 171 241 122 c 128,-1,16
 299 73 299 73 379 73 c 128,-1,17
 459 73 459 73 517 122 c 128,-1,18
 575 171 575 171 575 259 c 2,19,-1
 575 698 l 1,0,-1
392 883 m 1,20,-1
 491 883 l 1,21,-1
 378 750 l 1,22,-1
 316 750 l 1,23,-1
 392 883 l 1,20,-1
EndSplineSet
Substitution2: "'c2sc' Capitals to Small Capitals lookup 16 subtable" uacute.smcp
Substitution2: "'aalt' Access All Alternates lookup 0 subtable" uacute.smcp
EndChar

StartChar: Ucircumflex
Encoding: 219 219 153
Width: 758
Flags: W
HStem: -10 83<282.81 475.19> 678 20G<92 183 575 666>
VStem: 92 91<166.375 698> 575 91<166.375 698>
LayerCount: 2
Fore
SplineSet
575 698 m 1,0,-1
 666 698 l 1,1,-1
 666 262 l 2,2,3
 666 194 666 194 640.5 140.5 c 128,-1,4
 615 87 615 87 572.5 55 c 128,-1,5
 530 23 530 23 480.5 6.5 c 128,-1,6
 431 -10 431 -10 379 -10 c 128,-1,7
 327 -10 327 -10 277.5 6.5 c 128,-1,8
 228 23 228 23 185.5 55 c 128,-1,9
 143 87 143 87 117.5 140.5 c 128,-1,10
 92 194 92 194 92 262 c 2,11,-1
 92 698 l 1,12,-1
 183 698 l 1,13,-1
 183 259 l 2,14,15
 183 171 183 171 241 122 c 128,-1,16
 299 73 299 73 379 73 c 128,-1,17
 459 73 459 73 517 122 c 128,-1,18
 575 171 575 171 575 259 c 2,19,-1
 575 698 l 1,0,-1
420 873 m 1,20,-1
 533 750 l 1,21,-1
 454 750 l 1,22,-1
 379 823 l 1,23,-1
 304 750 l 1,24,-1
 225 750 l 1,25,-1
 338 873 l 1,26,-1
 420 873 l 1,20,-1
EndSplineSet
Substitution2: "'c2sc' Capitals to Small Capitals lookup 16 subtable" ucircumflex.smcp
Substitution2: "'aalt' Access All Alternates lookup 0 subtable" ucircumflex.smcp
EndChar

StartChar: Udieresis
Encoding: 220 220 154
Width: 758
Flags: W
HStem: -10 83<282.81 475.19> 678 20G<92 183 575 666> 750 96<247 343 415 511>
VStem: 92 91<166.375 698> 247 96<750 846> 415 96<750 846> 575 91<166.375 698>
LayerCount: 2
Fore
SplineSet
575 698 m 1,0,-1
 666 698 l 1,1,-1
 666 262 l 2,2,3
 666 194 666 194 640.5 140.5 c 128,-1,4
 615 87 615 87 572.5 55 c 128,-1,5
 530 23 530 23 480.5 6.5 c 128,-1,6
 431 -10 431 -10 379 -10 c 128,-1,7
 327 -10 327 -10 277.5 6.5 c 128,-1,8
 228 23 228 23 185.5 55 c 128,-1,9
 143 87 143 87 117.5 140.5 c 128,-1,10
 92 194 92 194 92 262 c 2,11,-1
 92 698 l 1,12,-1
 183 698 l 1,13,-1
 183 259 l 2,14,15
 183 171 183 171 241 122 c 128,-1,16
 299 73 299 73 379 73 c 128,-1,17
 459 73 459 73 517 122 c 128,-1,18
 575 171 575 171 575 259 c 2,19,-1
 575 698 l 1,0,-1
247 750 m 1,20,-1
 247 846 l 1,21,-1
 343 846 l 1,22,-1
 343 750 l 1,23,-1
 247 750 l 1,20,-1
415 750 m 1,24,-1
 415 846 l 1,25,-1
 511 846 l 1,26,-1
 511 750 l 1,27,-1
 415 750 l 1,24,-1
EndSplineSet
Substitution2: "'c2sc' Capitals to Small Capitals lookup 16 subtable" udieresis.smcp
Substitution2: "'aalt' Access All Alternates lookup 0 subtable" udieresis.smcp
EndChar

StartChar: Yacute
Encoding: 221 221 155
Width: 645
Flags: W
HStem: 0 21G<277 368> 678 20G<-7 117.542 527.458 652>
VStem: 277 91<0 295>
LayerCount: 2
Fore
SplineSet
541 698 m 1,0,-1
 652 698 l 1,1,-1
 368 295 l 1,2,-1
 368 0 l 1,3,-1
 277 0 l 1,4,-1
 277 295 l 1,5,-1
 -7 698 l 1,6,-1
 104 698 l 1,7,-1
 320 379 l 1,8,-1
 325 379 l 1,9,-1
 541 698 l 1,0,-1
345 883 m 1,10,-1
 444 883 l 1,11,-1
 331 750 l 1,12,-1
 269 750 l 1,13,-1
 345 883 l 1,10,-1
EndSplineSet
Substitution2: "'c2sc' Capitals to Small Capitals lookup 16 subtable" yacute.smcp
Substitution2: "'aalt' Access All Alternates lookup 0 subtable" yacute.smcp
EndChar

StartChar: Thorn
Encoding: 222 222 156
Width: 671
Flags: W
HStem: 0 21G<97 188> 142 86<188 478.686> 500 86<188 478.686> 678 20G<97 188>
VStem: 97 91<0 142 228 500 586 698> 546 91<290.414 437.586>
LayerCount: 2
Fore
SplineSet
370 586 m 2,0,1
 442 586 442 586 496 566.5 c 128,-1,2
 550 547 550 547 579.5 514 c 128,-1,3
 609 481 609 481 623 443.5 c 128,-1,4
 637 406 637 406 637 364 c 128,-1,5
 637 322 637 322 623 284.5 c 128,-1,6
 609 247 609 247 579.5 214 c 128,-1,7
 550 181 550 181 496 161.5 c 128,-1,8
 442 142 442 142 370 142 c 2,9,-1
 188 142 l 1,10,-1
 188 0 l 1,11,-1
 97 0 l 1,12,-1
 97 698 l 1,13,-1
 188 698 l 1,14,-1
 188 586 l 1,15,-1
 370 586 l 2,0,1
361 228 m 2,16,17
 463 228 463 228 504.5 267 c 128,-1,18
 546 306 546 306 546 364 c 128,-1,19
 546 422 546 422 504.5 461 c 128,-1,20
 463 500 463 500 361 500 c 2,21,-1
 188 500 l 1,22,-1
 188 228 l 1,23,-1
 361 228 l 2,16,17
EndSplineSet
Substitution2: "'c2sc' Capitals to Small Capitals lookup 16 subtable" thorn.smcp
Substitution2: "'aalt' Access All Alternates lookup 0 subtable" thorn.smcp
EndChar

StartChar: germandbls
Encoding: 223 223 157
Width: 610
Flags: W
HStem: -10 81<252.835 427.799> 0 21G<79 170> 13 82<244 316.577> 309 70<270 370.59> 623 85<223.843 384.413>
VStem: 79 91<0 568.975> 433 91<435.964 575.462> 472 91<111.966 249.874>
LayerCount: 2
Fore
SplineSet
415 351 m 1,0,1
 468.406332454 338.675461741 468.406332454 338.675461741 511.5 302 c 0,2,3
 563 258.170212766 563 258.170212766 563 172.085106383 c 128,-1,4
 563 86 563 86 507 38 c 128,-1,5
 451 -10 451 -10 376.5 -10 c 128,-1,6
 302 -10 302 -10 244 13 c 1,7,-1
 244 95 l 1,8,-1
 248 95 l 1,9,10
 296 71 296 71 347 71 c 128,-1,11
 398 71 398 71 435 97 c 128,-1,12
 472 123 472 123 472 183 c 128,-1,13
 472 243 472 243 421.5 276 c 128,-1,14
 371 309 371 309 291 309 c 2,15,-1
 270 309 l 1,16,-1
 270 379 l 1,17,-1
 278 379 l 2,18,19
 348 379 348 379 390.5 414 c 128,-1,20
 433 449 433 449 433 503.5 c 128,-1,21
 433 558 433 558 398.5 590.5 c 128,-1,22
 364 623 364 623 305 623 c 128,-1,23
 246 623 246 623 208 589.5 c 128,-1,24
 170 556 170 556 170 475 c 2,25,-1
 170 0 l 1,26,-1
 79 0 l 1,27,-1
 79 486 l 2,28,29
 79 591 79 591 141 649.5 c 128,-1,30
 203 708 203 708 297 708 c 128,-1,31
 391 708 391 708 457.5 657.5 c 128,-1,32
 524 607 524 607 524 512 c 0,33,34
 524 387 524 387 415 352 c 1,35,-1
 415 351 l 1,0,1
EndSplineSet
EndChar

StartChar: agrave
Encoding: 224 224 158
Width: 555
Flags: W
HStem: -10 80<153.376 310.243> 0 21G<396.562 480> 229 73<164.427 389> 400 82<88 149.29> 434 86<132.087 345.78>
VStem: 38 91<93.8725 198.023> 389 91<23.2727 64 123.356 229 302 391.684> 400 80<0 40.7273>
LayerCount: 2
Fore
SplineSet
88 482 m 1,0,1
 175 520 175 520 274.5 520 c 128,-1,2
 374 520 374 520 427 462 c 128,-1,3
 480 404 480 404 480 323 c 2,4,-1
 480 0 l 1,5,-1
 400 0 l 1,6,-1
 389 64 l 1,7,-1
 386 64 l 1,8,9
 314 -10 314 -10 201 -10 c 0,10,11
 133 -10 133 -10 85.5 31 c 128,-1,12
 38 72 38 72 38 143 c 128,-1,13
 38 214 38 214 96.5 258 c 128,-1,14
 155 302 155 302 268 302 c 2,15,-1
 389 302 l 1,16,-1
 389 310 l 2,17,18
 389 376 389 376 356.5 405 c 128,-1,19
 324 434 324 434 244 434 c 128,-1,20
 164 434 164 434 94 400 c 1,21,-1
 88 400 l 1,22,-1
 88 482 l 1,0,1
389 145 m 1,23,-1
 389 229 l 1,24,-1
 280 229 l 2,25,26
 129 229 129 229 129 149.5 c 128,-1,27
 129 70 129 70 235 70 c 0,28,29
 279 70 279 70 320 91.5 c 128,-1,30
 361 113 361 113 389 145 c 1,23,-1
155 711 m 1,31,-1
 254 711 l 1,32,-1
 330 578 l 1,33,-1
 268 578 l 1,34,-1
 155 711 l 1,31,-1
EndSplineSet
Substitution2: "'ss01' Style Set 1 lookup 27 subtable" agrave.alt
Substitution2: "'smcp' Lowercase to Small Capitals lookup 22 subtable" agrave.smcp
AlternateSubs2: "'aalt' Access All Alternates lookup 1 subtable" agrave.smcp agrave.alt
EndChar

StartChar: aacute
Encoding: 225 225 159
Width: 555
Flags: W
HStem: -10 80<153.376 310.243> 0 21G<396.562 480> 229 73<164.427 389> 400 82<88 149.29> 434 86<132.087 345.78>
VStem: 38 91<93.8725 198.023> 389 91<23.2727 64 123.356 229 302 391.684> 400 80<0 40.7273>
LayerCount: 2
Fore
SplineSet
88 482 m 1,0,1
 175 520 175 520 274.5 520 c 128,-1,2
 374 520 374 520 427 462 c 128,-1,3
 480 404 480 404 480 323 c 2,4,-1
 480 0 l 1,5,-1
 400 0 l 1,6,-1
 389 64 l 1,7,-1
 386 64 l 1,8,9
 314 -10 314 -10 201 -10 c 0,10,11
 133 -10 133 -10 85.5 31 c 128,-1,12
 38 72 38 72 38 143 c 128,-1,13
 38 214 38 214 96.5 258 c 128,-1,14
 155 302 155 302 268 302 c 2,15,-1
 389 302 l 1,16,-1
 389 310 l 2,17,18
 389 376 389 376 356.5 405 c 128,-1,19
 324 434 324 434 244 434 c 128,-1,20
 164 434 164 434 94 400 c 1,21,-1
 88 400 l 1,22,-1
 88 482 l 1,0,1
389 145 m 1,23,-1
 389 229 l 1,24,-1
 280 229 l 2,25,26
 129 229 129 229 129 149.5 c 128,-1,27
 129 70 129 70 235 70 c 0,28,29
 279 70 279 70 320 91.5 c 128,-1,30
 361 113 361 113 389 145 c 1,23,-1
287 711 m 1,31,-1
 386 711 l 1,32,-1
 273 578 l 1,33,-1
 211 578 l 1,34,-1
 287 711 l 1,31,-1
EndSplineSet
Substitution2: "'ss01' Style Set 1 lookup 27 subtable" aacute.alt
Substitution2: "'smcp' Lowercase to Small Capitals lookup 22 subtable" aacute.smcp
AlternateSubs2: "'aalt' Access All Alternates lookup 1 subtable" aacute.smcp aacute.alt
EndChar

StartChar: acircumflex
Encoding: 226 226 160
Width: 555
Flags: W
HStem: -10 80<153.376 310.243> 0 21G<396.562 480> 229 73<164.427 389> 400 82<88 149.29> 434 86<132.087 345.78> 681 20G<213.626 332.374>
VStem: 38 91<93.8725 198.023> 389 91<23.2727 64 123.356 229 302 391.684> 400 80<0 40.7273>
LayerCount: 2
Fore
SplineSet
88 482 m 1,0,1
 175 520 175 520 274.5 520 c 128,-1,2
 374 520 374 520 427 462 c 128,-1,3
 480 404 480 404 480 323 c 2,4,-1
 480 0 l 1,5,-1
 400 0 l 1,6,-1
 389 64 l 1,7,-1
 386 64 l 1,8,9
 314 -10 314 -10 201 -10 c 0,10,11
 133 -10 133 -10 85.5 31 c 128,-1,12
 38 72 38 72 38 143 c 128,-1,13
 38 214 38 214 96.5 258 c 128,-1,14
 155 302 155 302 268 302 c 2,15,-1
 389 302 l 1,16,-1
 389 310 l 2,17,18
 389 376 389 376 356.5 405 c 128,-1,19
 324 434 324 434 244 434 c 128,-1,20
 164 434 164 434 94 400 c 1,21,-1
 88 400 l 1,22,-1
 88 482 l 1,0,1
389 145 m 1,23,-1
 389 229 l 1,24,-1
 280 229 l 2,25,26
 129 229 129 229 129 149.5 c 128,-1,27
 129 70 129 70 235 70 c 0,28,29
 279 70 279 70 320 91.5 c 128,-1,30
 361 113 361 113 389 145 c 1,23,-1
314 701 m 1,31,-1
 427 578 l 1,32,-1
 348 578 l 1,33,-1
 273 651 l 1,34,-1
 198 578 l 1,35,-1
 119 578 l 1,36,-1
 232 701 l 1,37,-1
 314 701 l 1,31,-1
EndSplineSet
Substitution2: "'ss01' Style Set 1 lookup 27 subtable" acircumflex.alt
Substitution2: "'smcp' Lowercase to Small Capitals lookup 22 subtable" acircumflex.smcp
AlternateSubs2: "'aalt' Access All Alternates lookup 1 subtable" acircumflex.smcp acircumflex.alt
EndChar

StartChar: atilde
Encoding: 227 227 161
Width: 555
Flags: W
HStem: -10 80<153.376 310.243> 0 21G<396.562 480> 229 73<164.427 389> 400 82<88 149.29> 434 86<132.087 345.78> 573 69<275.083 382.467> 621 68<159.112 263.68>
VStem: 38 91<93.8725 198.023> 107 44<578 614.914> 389 91<23.2727 64 123.356 229 302 391.684> 389 45<647.545 683> 400 80<0 40.7273>
LayerCount: 2
Fore
SplineSet
88 482 m 1,0,1
 175 520 175 520 274.5 520 c 128,-1,2
 374 520 374 520 427 462 c 128,-1,3
 480 404 480 404 480 323 c 2,4,-1
 480 0 l 1,5,-1
 400 0 l 1,6,-1
 389 64 l 1,7,-1
 386 64 l 1,8,9
 314 -10 314 -10 201 -10 c 0,10,11
 133 -10 133 -10 85.5 31 c 128,-1,12
 38 72 38 72 38 143 c 128,-1,13
 38 214 38 214 96.5 258 c 128,-1,14
 155 302 155 302 268 302 c 2,15,-1
 389 302 l 1,16,-1
 389 310 l 2,17,18
 389 376 389 376 356.5 405 c 128,-1,19
 324 434 324 434 244 434 c 128,-1,20
 164 434 164 434 94 400 c 1,21,-1
 88 400 l 1,22,-1
 88 482 l 1,0,1
389 145 m 1,23,-1
 389 229 l 1,24,-1
 280 229 l 2,25,26
 129 229 129 229 129 149.5 c 128,-1,27
 129 70 129 70 235 70 c 0,28,29
 279 70 279 70 320 91.5 c 128,-1,30
 361 113 361 113 389 145 c 1,23,-1
389 683 m 1,31,-1
 434 683 l 1,32,33
 430 629 430 629 406.5 601 c 128,-1,34
 383 573 383 573 350.5 573 c 128,-1,35
 318 573 318 573 268.5 597 c 128,-1,36
 219 621 219 621 194 621 c 0,37,38
 161 621 161 621 151 578 c 1,39,-1
 107 578 l 1,40,41
 111 632 111 632 134.5 660.5 c 128,-1,42
 158 689 158 689 190 689 c 128,-1,43
 222 689 222 689 271 665.5 c 128,-1,44
 320 642 320 642 347 642 c 0,45,46
 381 642 381 642 389 683 c 1,31,-1
EndSplineSet
Substitution2: "'ss01' Style Set 1 lookup 27 subtable" atilde.alt
Substitution2: "'smcp' Lowercase to Small Capitals lookup 22 subtable" atilde.smcp
AlternateSubs2: "'aalt' Access All Alternates lookup 1 subtable" atilde.smcp atilde.alt
EndChar

StartChar: adieresis
Encoding: 228 228 162
Width: 555
Flags: W
HStem: -10 80<153.376 310.243> 0 21G<396.562 480> 229 73<164.427 389> 400 82<88 149.29> 434 86<132.087 345.78> 578 96<142 238 310 406>
VStem: 38 91<93.8725 198.023> 142 96<578 674> 310 96<578 674> 389 91<23.2727 64 123.356 229 302 391.684> 400 80<0 40.7273>
LayerCount: 2
Fore
SplineSet
88 482 m 1,0,1
 175 520 175 520 274.5 520 c 128,-1,2
 374 520 374 520 427 462 c 128,-1,3
 480 404 480 404 480 323 c 2,4,-1
 480 0 l 1,5,-1
 400 0 l 1,6,-1
 389 64 l 1,7,-1
 386 64 l 1,8,9
 314 -10 314 -10 201 -10 c 0,10,11
 133 -10 133 -10 85.5 31 c 128,-1,12
 38 72 38 72 38 143 c 128,-1,13
 38 214 38 214 96.5 258 c 128,-1,14
 155 302 155 302 268 302 c 2,15,-1
 389 302 l 1,16,-1
 389 310 l 2,17,18
 389 376 389 376 356.5 405 c 128,-1,19
 324 434 324 434 244 434 c 128,-1,20
 164 434 164 434 94 400 c 1,21,-1
 88 400 l 1,22,-1
 88 482 l 1,0,1
389 145 m 1,23,-1
 389 229 l 1,24,-1
 280 229 l 2,25,26
 129 229 129 229 129 149.5 c 128,-1,27
 129 70 129 70 235 70 c 0,28,29
 279 70 279 70 320 91.5 c 128,-1,30
 361 113 361 113 389 145 c 1,23,-1
142 578 m 1,31,-1
 142 674 l 1,32,-1
 238 674 l 1,33,-1
 238 578 l 1,34,-1
 142 578 l 1,31,-1
310 578 m 1,35,-1
 310 674 l 1,36,-1
 406 674 l 1,37,-1
 406 578 l 1,38,-1
 310 578 l 1,35,-1
EndSplineSet
Substitution2: "'ss01' Style Set 1 lookup 27 subtable" adieresis.alt
Substitution2: "'smcp' Lowercase to Small Capitals lookup 22 subtable" adieresis.smcp
AlternateSubs2: "'aalt' Access All Alternates lookup 1 subtable" adieresis.smcp adieresis.alt
EndChar

StartChar: aring
Encoding: 229 229 163
Width: 555
Flags: W
HStem: -10 80<153.376 310.243> 0 21G<396.562 480> 229 73<164.427 389> 400 82<88 149.29> 434 86<132.087 345.78> 551 45<231.859 306.141> 694 45<231.859 306.141>
VStem: 38 91<93.8725 198.023> 175 45<607.859 682.141> 318 45<607.859 682.141> 389 91<23.2727 64 123.356 229 302 391.684> 400 80<0 40.7273>
LayerCount: 2
Fore
SplineSet
88 482 m 1,0,1
 175 520 175 520 274.5 520 c 128,-1,2
 374 520 374 520 427 462 c 128,-1,3
 480 404 480 404 480 323 c 2,4,-1
 480 0 l 1,5,-1
 400 0 l 1,6,-1
 389 64 l 1,7,-1
 386 64 l 1,8,9
 314 -10 314 -10 201 -10 c 0,10,11
 133 -10 133 -10 85.5 31 c 128,-1,12
 38 72 38 72 38 143 c 128,-1,13
 38 214 38 214 96.5 258 c 128,-1,14
 155 302 155 302 268 302 c 2,15,-1
 389 302 l 1,16,-1
 389 310 l 2,17,18
 389 376 389 376 356.5 405 c 128,-1,19
 324 434 324 434 244 434 c 128,-1,20
 164 434 164 434 94 400 c 1,21,-1
 88 400 l 1,22,-1
 88 482 l 1,0,1
389 145 m 1,23,-1
 389 229 l 1,24,-1
 280 229 l 2,25,26
 129 229 129 229 129 149.5 c 128,-1,27
 129 70 129 70 235 70 c 0,28,29
 279 70 279 70 320 91.5 c 128,-1,30
 361 113 361 113 389 145 c 1,23,-1
269 739 m 128,-1,32
 308 739 308 739 335.5 711.5 c 128,-1,33
 363 684 363 684 363 645 c 128,-1,34
 363 606 363 606 335.5 578.5 c 128,-1,35
 308 551 308 551 269 551 c 128,-1,36
 230 551 230 551 202.5 578.5 c 128,-1,37
 175 606 175 606 175 645 c 128,-1,38
 175 684 175 684 202.5 711.5 c 128,-1,31
 230 739 230 739 269 739 c 128,-1,32
269 596 m 128,-1,40
 289 596 289 596 303.5 610.5 c 128,-1,41
 318 625 318 625 318 645 c 128,-1,42
 318 665 318 665 303.5 679.5 c 128,-1,43
 289 694 289 694 269 694 c 128,-1,44
 249 694 249 694 234.5 679.5 c 128,-1,45
 220 665 220 665 220 645 c 128,-1,46
 220 625 220 625 234.5 610.5 c 128,-1,39
 249 596 249 596 269 596 c 128,-1,40
EndSplineSet
Substitution2: "'ss01' Style Set 1 lookup 27 subtable" aring.alt
Substitution2: "'smcp' Lowercase to Small Capitals lookup 22 subtable" aring.smcp
AlternateSubs2: "'aalt' Access All Alternates lookup 1 subtable" aring.smcp aring.alt
EndChar

StartChar: ae
Encoding: 230 230 164
Width: 904
Flags: W
HStem: -10 80<162.889 346.879 560.288 756.209> 226 73<162.319 388 473 771> 399 83<87 146.125> 434 86<130.438 344.883> 443 77<543.126 701.757>
VStem: 37 91<102.626 195.778> 388 85<153.007 226 299 375.331>
LayerCount: 2
Fore
SplineSet
861 255 m 2,0,-1
 861 226 l 1,1,-1
 473 226 l 1,2,3
 490 75 490 75 650 75 c 0,4,5
 751 75 751 75 828 126 c 1,6,-1
 831 126 l 1,7,-1
 831 37 l 1,8,9
 747 -10 747 -10 642 -10 c 0,10,11
 506 -10 506 -10 439 77 c 1,12,13
 382 -10 382 -10 233 -10 c 0,14,15
 150 -10 150 -10 93.5 31 c 128,-1,16
 37 72 37 72 37 142.5 c 128,-1,17
 37 213 37 213 95.5 256 c 128,-1,18
 154 299 154 299 267 299 c 2,19,-1
 388 299 l 1,20,-1
 388 310 l 2,21,22
 388 376 388 376 355.5 405 c 128,-1,23
 323 434 323 434 243 434 c 128,-1,24
 163 434 163 434 91 399 c 1,25,-1
 87 399 l 1,26,-1
 87 482 l 1,27,28
 174 520 174 520 270 520 c 0,29,30
 390 520 390 520 441 436 c 1,31,32
 504 520 504 520 621.5 520 c 128,-1,33
 739 520 739 520 800 443 c 128,-1,34
 861 366 861 366 861 255 c 2,0,-1
388 169 m 2,35,-1
 388 226 l 1,36,-1
 279 226 l 2,37,38
 128 226 128 226 128 150 c 0,39,40
 128 116 128 116 160.5 93 c 128,-1,41
 193 70 193 70 250.5 70 c 128,-1,42
 308 70 308 70 348 92 c 128,-1,43
 388 114 388 114 388 169 c 2,35,-1
473 299 m 1,44,-1
 771 299 l 1,45,46
 767 371 767 371 722 407 c 128,-1,47
 677 443 677 443 622 443 c 128,-1,48
 567 443 567 443 522 407 c 128,-1,49
 477 371 477 371 473 299 c 1,44,-1
EndSplineSet
Substitution2: "'smcp' Lowercase to Small Capitals lookup 22 subtable" ae.smcp
Substitution2: "'aalt' Access All Alternates lookup 0 subtable" ae.smcp
EndChar

StartChar: ccedilla
Encoding: 231 231 165
Width: 537
Flags: W
HStem: -221 43<206.196 322.793> -101 42<285.347 340> -10 85<315 430.131> 435 85<225.668 429.879>
VStem: 47 91<162.664 347.544> 329 67<-171.182 -106.26>
LayerCount: 2
Fore
SplineSet
285 -63 m 1,0,1
 301 -59 301 -59 327 -59 c 128,-1,2
 353 -59 353 -59 374.5 -78.5 c 128,-1,3
 396 -98 396 -98 396 -129 c 0,4,5
 396 -221 396 -221 285 -221 c 0,6,7
 233 -221 233 -221 187 -190 c 1,8,-1
 203 -155 l 1,9,10
 240 -178 240 -178 272 -178 c 0,11,12
 329 -178 329 -178 329 -132 c 0,13,14
 329 -117 329 -117 319 -109 c 128,-1,15
 309 -101 309 -101 289.5 -101 c 128,-1,16
 270 -101 270 -101 247 -113 c 1,17,-1
 218 -97 l 1,18,-1
 274 -7 l 1,19,20
 176 6 176 6 111.5 76 c 128,-1,21
 47 146 47 146 47 261 c 128,-1,22
 47 376 47 376 125 448 c 128,-1,23
 203 520 203 520 314 520 c 0,24,25
 404 520 404 520 487 471 c 1,26,-1
 487 385 l 1,27,-1
 483 385 l 1,28,29
 409 435 409 435 322.5 435 c 128,-1,30
 236 435 236 435 187 385.5 c 128,-1,31
 138 336 138 336 138 255 c 128,-1,32
 138 174 138 174 187 124.5 c 128,-1,33
 236 75 236 75 322.5 75 c 128,-1,34
 409 75 409 75 483 125 c 1,35,-1
 487 125 l 1,36,-1
 487 39 l 1,37,38
 406 -9 406 -9 315 -10 c 1,39,-1
 285 -63 l 1,0,1
EndSplineSet
Substitution2: "'smcp' Lowercase to Small Capitals lookup 22 subtable" ccedilla.smcp
Substitution2: "'aalt' Access All Alternates lookup 0 subtable" ccedilla.smcp
EndChar

StartChar: egrave
Encoding: 232 232 166
Width: 570
Flags: W
HStem: -10 85<219.273 438.427> 223 74<141 436> 443 77<210.684 365.463>
VStem: 49 92<153.191 223 297 373.328>
LayerCount: 2
Fore
SplineSet
527 255 m 2,0,-1
 527 223 l 1,1,-1
 141 223 l 1,2,3
 149 153 149 153 193 114 c 128,-1,4
 237 75 237 75 326.5 75 c 128,-1,5
 416 75 416 75 492 125 c 1,6,-1
 497 125 l 1,7,-1
 497 37 l 1,8,9
 413 -10 413 -10 299.5 -10 c 128,-1,10
 186 -10 186 -10 117.5 59.5 c 128,-1,11
 49 129 49 129 49 247.5 c 128,-1,12
 49 366 49 366 110 443 c 128,-1,13
 171 520 171 520 288 520 c 128,-1,14
 405 520 405 520 466 443 c 128,-1,15
 527 366 527 366 527 255 c 2,0,-1
141 297 m 1,16,-1
 436 297 l 1,17,18
 432 369 432 369 387.5 406 c 128,-1,19
 343 443 343 443 288 443 c 128,-1,20
 233 443 233 443 189 406 c 128,-1,21
 145 369 145 369 141 297 c 1,16,-1
175 711 m 1,22,-1
 274 711 l 1,23,-1
 350 578 l 1,24,-1
 288 578 l 1,25,-1
 175 711 l 1,22,-1
EndSplineSet
Substitution2: "'smcp' Lowercase to Small Capitals lookup 22 subtable" egrave.smcp
Substitution2: "'aalt' Access All Alternates lookup 0 subtable" egrave.smcp
EndChar

StartChar: eacute
Encoding: 233 233 167
Width: 570
Flags: W
HStem: -10 85<219.273 438.427> 223 74<141 436> 443 77<210.684 365.463>
VStem: 49 92<153.191 223 297 373.328>
LayerCount: 2
Fore
SplineSet
527 255 m 2,0,-1
 527 223 l 1,1,-1
 141 223 l 1,2,3
 149 153 149 153 193 114 c 128,-1,4
 237 75 237 75 326.5 75 c 128,-1,5
 416 75 416 75 492 125 c 1,6,-1
 497 125 l 1,7,-1
 497 37 l 1,8,9
 413 -10 413 -10 299.5 -10 c 128,-1,10
 186 -10 186 -10 117.5 59.5 c 128,-1,11
 49 129 49 129 49 247.5 c 128,-1,12
 49 366 49 366 110 443 c 128,-1,13
 171 520 171 520 288 520 c 128,-1,14
 405 520 405 520 466 443 c 128,-1,15
 527 366 527 366 527 255 c 2,0,-1
141 297 m 1,16,-1
 436 297 l 1,17,18
 432 369 432 369 387.5 406 c 128,-1,19
 343 443 343 443 288 443 c 128,-1,20
 233 443 233 443 189 406 c 128,-1,21
 145 369 145 369 141 297 c 1,16,-1
301 711 m 1,22,-1
 400 711 l 1,23,-1
 287 578 l 1,24,-1
 225 578 l 1,25,-1
 301 711 l 1,22,-1
EndSplineSet
Substitution2: "'smcp' Lowercase to Small Capitals lookup 22 subtable" eacute.smcp
Substitution2: "'aalt' Access All Alternates lookup 0 subtable" eacute.smcp
EndChar

StartChar: ecircumflex
Encoding: 234 234 168
Width: 570
Flags: W
HStem: -10 85<219.273 438.427> 223 74<141 436> 443 77<210.684 365.463> 681 20G<227.626 346.374>
VStem: 49 92<153.191 223 297 373.328>
LayerCount: 2
Fore
SplineSet
527 255 m 2,0,-1
 527 223 l 1,1,-1
 141 223 l 1,2,3
 149 153 149 153 193 114 c 128,-1,4
 237 75 237 75 326.5 75 c 128,-1,5
 416 75 416 75 492 125 c 1,6,-1
 497 125 l 1,7,-1
 497 37 l 1,8,9
 413 -10 413 -10 299.5 -10 c 128,-1,10
 186 -10 186 -10 117.5 59.5 c 128,-1,11
 49 129 49 129 49 247.5 c 128,-1,12
 49 366 49 366 110 443 c 128,-1,13
 171 520 171 520 288 520 c 128,-1,14
 405 520 405 520 466 443 c 128,-1,15
 527 366 527 366 527 255 c 2,0,-1
141 297 m 1,16,-1
 436 297 l 1,17,18
 432 369 432 369 387.5 406 c 128,-1,19
 343 443 343 443 288 443 c 128,-1,20
 233 443 233 443 189 406 c 128,-1,21
 145 369 145 369 141 297 c 1,16,-1
328 701 m 1,22,-1
 441 578 l 1,23,-1
 362 578 l 1,24,-1
 287 651 l 1,25,-1
 212 578 l 1,26,-1
 133 578 l 1,27,-1
 246 701 l 1,28,-1
 328 701 l 1,22,-1
EndSplineSet
Substitution2: "'smcp' Lowercase to Small Capitals lookup 22 subtable" ecircumflex.smcp
Substitution2: "'aalt' Access All Alternates lookup 0 subtable" ecircumflex.smcp
EndChar

StartChar: edieresis
Encoding: 235 235 169
Width: 570
Flags: W
HStem: -10 85<219.273 438.427> 223 74<141 436> 443 77<210.684 365.463> 578 96<155 251 323 419>
VStem: 49 92<153.191 223 297 373.328> 155 96<578 674> 323 96<578 674>
LayerCount: 2
Fore
SplineSet
527 255 m 2,0,-1
 527 223 l 1,1,-1
 141 223 l 1,2,3
 149 153 149 153 193 114 c 128,-1,4
 237 75 237 75 326.5 75 c 128,-1,5
 416 75 416 75 492 125 c 1,6,-1
 497 125 l 1,7,-1
 497 37 l 1,8,9
 413 -10 413 -10 299.5 -10 c 128,-1,10
 186 -10 186 -10 117.5 59.5 c 128,-1,11
 49 129 49 129 49 247.5 c 128,-1,12
 49 366 49 366 110 443 c 128,-1,13
 171 520 171 520 288 520 c 128,-1,14
 405 520 405 520 466 443 c 128,-1,15
 527 366 527 366 527 255 c 2,0,-1
141 297 m 1,16,-1
 436 297 l 1,17,18
 432 369 432 369 387.5 406 c 128,-1,19
 343 443 343 443 288 443 c 128,-1,20
 233 443 233 443 189 406 c 128,-1,21
 145 369 145 369 141 297 c 1,16,-1
155 578 m 1,22,-1
 155 674 l 1,23,-1
 251 674 l 1,24,-1
 251 578 l 1,25,-1
 155 578 l 1,22,-1
323 578 m 1,26,-1
 323 674 l 1,27,-1
 419 674 l 1,28,-1
 419 578 l 1,29,-1
 323 578 l 1,26,-1
EndSplineSet
Substitution2: "'smcp' Lowercase to Small Capitals lookup 22 subtable" edieresis.smcp
Substitution2: "'aalt' Access All Alternates lookup 0 subtable" edieresis.smcp
EndChar

StartChar: igrave
Encoding: 236 236 170
Width: 257
Flags: W
HStem: 0 21G<83 174> 490 20G<83 174>
VStem: 83 91<0 510>
LayerCount: 2
Fore
SplineSet
83 0 m 1,0,-1
 83 510 l 1,1,-1
 174 510 l 1,2,-1
 174 0 l 1,3,-1
 83 0 l 1,0,-1
8 711 m 1,4,-1
 107 711 l 1,5,-1
 183 578 l 1,6,-1
 121 578 l 1,7,-1
 8 711 l 1,4,-1
EndSplineSet
Substitution2: "'smcp' Lowercase to Small Capitals lookup 22 subtable" igrave.smcp
Substitution2: "'aalt' Access All Alternates lookup 0 subtable" igrave.smcp
EndChar

StartChar: iacute
Encoding: 237 237 171
Width: 257
Flags: W
HStem: 0 21G<83 174> 490 20G<83 174>
VStem: 83 91<0 510>
LayerCount: 2
Fore
SplineSet
83 0 m 1,0,-1
 83 510 l 1,1,-1
 174 510 l 1,2,-1
 174 0 l 1,3,-1
 83 0 l 1,0,-1
150 711 m 1,4,-1
 249 711 l 1,5,-1
 136 578 l 1,6,-1
 74 578 l 1,7,-1
 150 711 l 1,4,-1
EndSplineSet
Substitution2: "'smcp' Lowercase to Small Capitals lookup 22 subtable" iacute.smcp
Substitution2: "'aalt' Access All Alternates lookup 0 subtable" iacute.smcp
EndChar

StartChar: icircumflex
Encoding: 238 238 172
Width: 257
Flags: W
HStem: 0 21G<83 174> 490 20G<83 174> 681 20G<68.626 187.374>
VStem: 83 91<0 510>
LayerCount: 2
Fore
SplineSet
83 0 m 1,0,-1
 83 510 l 1,1,-1
 174 510 l 1,2,-1
 174 0 l 1,3,-1
 83 0 l 1,0,-1
169 701 m 1,4,-1
 282 578 l 1,5,-1
 203 578 l 1,6,-1
 128 651 l 1,7,-1
 53 578 l 1,8,-1
 -26 578 l 1,9,-1
 87 701 l 1,10,-1
 169 701 l 1,4,-1
EndSplineSet
Substitution2: "'smcp' Lowercase to Small Capitals lookup 22 subtable" icircumflex.smcp
Substitution2: "'aalt' Access All Alternates lookup 0 subtable" icircumflex.smcp
EndChar

StartChar: idieresis
Encoding: 239 239 173
Width: 257
Flags: W
HStem: 0 21G<83 174> 490 20G<83 174> 578 96<-4 92 164 260>
VStem: -4 96<578 674> 83 91<0 510> 164 96<578 674>
LayerCount: 2
Fore
SplineSet
83 0 m 1,0,-1
 83 510 l 1,1,-1
 174 510 l 1,2,-1
 174 0 l 1,3,-1
 83 0 l 1,0,-1
-4 578 m 1,4,-1
 -4 674 l 1,5,-1
 92 674 l 1,6,-1
 92 578 l 1,7,-1
 -4 578 l 1,4,-1
164 578 m 1,8,-1
 164 674 l 1,9,-1
 260 674 l 1,10,-1
 260 578 l 1,11,-1
 164 578 l 1,8,-1
EndSplineSet
Substitution2: "'smcp' Lowercase to Small Capitals lookup 22 subtable" idieresis.smcp
Substitution2: "'aalt' Access All Alternates lookup 0 subtable" idieresis.smcp
EndChar

StartChar: eth
Encoding: 240 240 174
Width: 599
Flags: W
HStem: -10 80<216.234 377.149> 431 74<216.766 377.717>
VStem: 49 88<150.412 351.631> 458 88<150.547 349.565>
LayerCount: 2
Fore
SplineSet
362 637 m 1,0,1
 546 471 546 471 546 274 c 0,2,3
 546 149 546 149 485 69.5 c 128,-1,4
 424 -10 424 -10 304.5 -10 c 128,-1,5
 185 -10 185 -10 117 61 c 128,-1,6
 49 132 49 132 49 243 c 128,-1,7
 49 354 49 354 112 429.5 c 128,-1,8
 175 505 175 505 283 505 c 0,9,10
 342 505 342 505 392 479 c 1,11,-1
 395 479 l 1,12,13
 356 537 356 537 289 594 c 1,14,-1
 186 534 l 1,15,-1
 161 577 l 1,16,-1
 246 627 l 1,17,18
 194 663 194 663 144 689 c 1,19,20
 192 758 192 758 193 758 c 0,21,22
 266 716 266 716 322 671 c 1,23,-1
 408 723 l 1,24,-1
 434 680 l 1,25,-1
 362 637 l 1,0,1
297 70 m 128,-1,27
 361 70 361 70 409.5 115.5 c 128,-1,28
 458 161 458 161 458 251.5 c 128,-1,29
 458 342 458 342 409.5 386.5 c 128,-1,30
 361 431 361 431 297 431 c 128,-1,31
 233 431 233 431 185 386.5 c 128,-1,32
 137 342 137 342 137 251.5 c 128,-1,33
 137 161 137 161 185 115.5 c 128,-1,26
 233 70 233 70 297 70 c 128,-1,27
EndSplineSet
Substitution2: "'smcp' Lowercase to Small Capitals lookup 22 subtable" eth.smcp
Substitution2: "'aalt' Access All Alternates lookup 0 subtable" eth.smcp
EndChar

StartChar: ntilde
Encoding: 241 241 175
Width: 609
Flags: W
HStem: 0 21G<79 170 444 535> 436 84<260.585 406.968> 490 20G<79 162.438> 573 69<315.083 422.467> 621 68<199.112 303.68>
VStem: 79 91<0 365.102 431 486.727> 79 80<469.273 510> 147 44<578 614.914> 429 45<647.545 683> 444 91<0 396.598>
LayerCount: 2
Fore
SplineSet
356 520 m 0,0,1
 439 520 439 520 487 464 c 128,-1,2
 535 408 535 408 535 324 c 2,3,-1
 535 0 l 1,4,-1
 444 0 l 1,5,-1
 444 314 l 2,6,7
 444 436 444 436 334 436 c 0,8,9
 247 436 247 436 170 340 c 1,10,-1
 170 0 l 1,11,-1
 79 0 l 1,12,-1
 79 510 l 1,13,-1
 159 510 l 1,14,-1
 170 446 l 1,15,-1
 170 431 l 1,16,-1
 172 431 l 1,17,18
 253 520 253 520 356 520 c 0,0,1
429 683 m 1,19,-1
 474 683 l 1,20,21
 470 629 470 629 446.5 601 c 128,-1,22
 423 573 423 573 390.5 573 c 128,-1,23
 358 573 358 573 308.5 597 c 128,-1,24
 259 621 259 621 234 621 c 0,25,26
 201 621 201 621 191 578 c 1,27,-1
 147 578 l 1,28,29
 151 632 151 632 174.5 660.5 c 128,-1,30
 198 689 198 689 230 689 c 128,-1,31
 262 689 262 689 311 665.5 c 128,-1,32
 360 642 360 642 387 642 c 0,33,34
 421 642 421 642 429 683 c 1,19,-1
EndSplineSet
Substitution2: "'smcp' Lowercase to Small Capitals lookup 22 subtable" ntilde.smcp
Substitution2: "'aalt' Access All Alternates lookup 0 subtable" ntilde.smcp
EndChar

StartChar: ograve
Encoding: 242 242 176
Width: 608
Flags: W
HStem: -10 83<220.629 386.91> 437 83<220.629 386.91>
VStem: 48 91<155.909 356.011> 469 91<155.909 356.011>
LayerCount: 2
Fore
SplineSet
118 447 m 128,-1,1
 188 520 188 520 303.5 520 c 128,-1,2
 419 520 419 520 489.5 447 c 128,-1,3
 560 374 560 374 560 255 c 128,-1,4
 560 136 560 136 489.5 63 c 128,-1,5
 419 -10 419 -10 303.5 -10 c 128,-1,6
 188 -10 188 -10 118 63 c 128,-1,7
 48 136 48 136 48 255 c 128,-1,0
 48 374 48 374 118 447 c 128,-1,1
304 73 m 128,-1,9
 370 73 370 73 419.5 118.5 c 128,-1,10
 469 164 469 164 469 255.5 c 128,-1,11
 469 347 469 347 419.5 392 c 128,-1,12
 370 437 370 437 304 437 c 128,-1,13
 238 437 238 437 188.5 392 c 128,-1,14
 139 347 139 347 139 255.5 c 128,-1,15
 139 164 139 164 188.5 118.5 c 128,-1,8
 238 73 238 73 304 73 c 128,-1,9
184 711 m 1,16,-1
 283 711 l 1,17,-1
 359 578 l 1,18,-1
 297 578 l 1,19,-1
 184 711 l 1,16,-1
EndSplineSet
Substitution2: "'smcp' Lowercase to Small Capitals lookup 22 subtable" ograve.smcp
Substitution2: "'aalt' Access All Alternates lookup 0 subtable" ograve.smcp
EndChar

StartChar: oacute
Encoding: 243 243 177
Width: 608
Flags: W
HStem: -10 83<220.629 386.91> 437 83<220.629 386.91>
VStem: 48 91<155.909 356.011> 469 91<155.909 356.011>
LayerCount: 2
Fore
SplineSet
118 447 m 128,-1,1
 188 520 188 520 303.5 520 c 128,-1,2
 419 520 419 520 489.5 447 c 128,-1,3
 560 374 560 374 560 255 c 128,-1,4
 560 136 560 136 489.5 63 c 128,-1,5
 419 -10 419 -10 303.5 -10 c 128,-1,6
 188 -10 188 -10 118 63 c 128,-1,7
 48 136 48 136 48 255 c 128,-1,0
 48 374 48 374 118 447 c 128,-1,1
304 73 m 128,-1,9
 370 73 370 73 419.5 118.5 c 128,-1,10
 469 164 469 164 469 255.5 c 128,-1,11
 469 347 469 347 419.5 392 c 128,-1,12
 370 437 370 437 304 437 c 128,-1,13
 238 437 238 437 188.5 392 c 128,-1,14
 139 347 139 347 139 255.5 c 128,-1,15
 139 164 139 164 188.5 118.5 c 128,-1,8
 238 73 238 73 304 73 c 128,-1,9
325 711 m 1,16,-1
 424 711 l 1,17,-1
 311 578 l 1,18,-1
 249 578 l 1,19,-1
 325 711 l 1,16,-1
EndSplineSet
Substitution2: "'smcp' Lowercase to Small Capitals lookup 22 subtable" oacute.smcp
Substitution2: "'aalt' Access All Alternates lookup 0 subtable" oacute.smcp
EndChar

StartChar: ocircumflex
Encoding: 244 244 178
Width: 608
Flags: W
HStem: -10 83<220.629 386.91> 437 83<220.629 386.91> 681 20G<244.626 363.374>
VStem: 48 91<155.909 356.011> 469 91<155.909 356.011>
LayerCount: 2
Fore
SplineSet
118 447 m 128,-1,1
 188 520 188 520 303.5 520 c 128,-1,2
 419 520 419 520 489.5 447 c 128,-1,3
 560 374 560 374 560 255 c 128,-1,4
 560 136 560 136 489.5 63 c 128,-1,5
 419 -10 419 -10 303.5 -10 c 128,-1,6
 188 -10 188 -10 118 63 c 128,-1,7
 48 136 48 136 48 255 c 128,-1,0
 48 374 48 374 118 447 c 128,-1,1
304 73 m 128,-1,9
 370 73 370 73 419.5 118.5 c 128,-1,10
 469 164 469 164 469 255.5 c 128,-1,11
 469 347 469 347 419.5 392 c 128,-1,12
 370 437 370 437 304 437 c 128,-1,13
 238 437 238 437 188.5 392 c 128,-1,14
 139 347 139 347 139 255.5 c 128,-1,15
 139 164 139 164 188.5 118.5 c 128,-1,8
 238 73 238 73 304 73 c 128,-1,9
345 701 m 1,16,-1
 458 578 l 1,17,-1
 379 578 l 1,18,-1
 304 651 l 1,19,-1
 229 578 l 1,20,-1
 150 578 l 1,21,-1
 263 701 l 1,22,-1
 345 701 l 1,16,-1
EndSplineSet
Substitution2: "'smcp' Lowercase to Small Capitals lookup 22 subtable" ocircumflex.smcp
Substitution2: "'aalt' Access All Alternates lookup 0 subtable" ocircumflex.smcp
EndChar

StartChar: otilde
Encoding: 245 245 179
Width: 608
Flags: W
HStem: -10 83<220.629 386.91> 437 83<220.629 386.91> 573 69<311.337 417.467> 621 68<193.796 298.433>
VStem: 48 91<155.909 356.011> 142 44<578 614.914> 424 45<647.545 683> 469 91<155.909 356.011>
LayerCount: 2
Fore
SplineSet
118 447 m 128,-1,1
 188 520 188 520 303.5 520 c 128,-1,2
 419 520 419 520 489.5 447 c 128,-1,3
 560 374 560 374 560 255 c 128,-1,4
 560 136 560 136 489.5 63 c 128,-1,5
 419 -10 419 -10 303.5 -10 c 128,-1,6
 188 -10 188 -10 118 63 c 128,-1,7
 48 136 48 136 48 255 c 128,-1,0
 48 374 48 374 118 447 c 128,-1,1
304 73 m 128,-1,9
 370 73 370 73 419.5 118.5 c 128,-1,10
 469 164 469 164 469 255.5 c 128,-1,11
 469 347 469 347 419.5 392 c 128,-1,12
 370 437 370 437 304 437 c 128,-1,13
 238 437 238 437 188.5 392 c 128,-1,14
 139 347 139 347 139 255.5 c 128,-1,15
 139 164 139 164 188.5 118.5 c 128,-1,8
 238 73 238 73 304 73 c 128,-1,9
424 683 m 1,16,-1
 469 683 l 1,17,18
 465 629 465 629 441.5 601 c 128,-1,19
 418 573 418 573 385.5 573 c 128,-1,20
 353 573 353 573 303.5 597 c 128,-1,21
 254 621 254 621 229 621 c 0,22,23
 196 621 196 621 186 578 c 1,24,-1
 142 578 l 1,25,26
 146 632 146 632 169 660.5 c 128,-1,27
 192 689 192 689 225 689 c 128,-1,28
 258 689 258 689 307 665.5 c 128,-1,29
 356 642 356 642 382 642 c 0,30,31
 416 642 416 642 424 683 c 1,16,-1
EndSplineSet
Substitution2: "'smcp' Lowercase to Small Capitals lookup 22 subtable" otilde.smcp
Substitution2: "'aalt' Access All Alternates lookup 0 subtable" otilde.smcp
EndChar

StartChar: odieresis
Encoding: 246 246 180
Width: 608
Flags: W
HStem: -10 83<220.629 386.91> 437 83<220.629 386.91> 578 96<172 268 340 436>
VStem: 48 91<155.909 356.011> 172 96<578 674> 340 96<578 674> 469 91<155.909 356.011>
LayerCount: 2
Fore
SplineSet
118 447 m 128,-1,1
 188 520 188 520 303.5 520 c 128,-1,2
 419 520 419 520 489.5 447 c 128,-1,3
 560 374 560 374 560 255 c 128,-1,4
 560 136 560 136 489.5 63 c 128,-1,5
 419 -10 419 -10 303.5 -10 c 128,-1,6
 188 -10 188 -10 118 63 c 128,-1,7
 48 136 48 136 48 255 c 128,-1,0
 48 374 48 374 118 447 c 128,-1,1
304 73 m 128,-1,9
 370 73 370 73 419.5 118.5 c 128,-1,10
 469 164 469 164 469 255.5 c 128,-1,11
 469 347 469 347 419.5 392 c 128,-1,12
 370 437 370 437 304 437 c 128,-1,13
 238 437 238 437 188.5 392 c 128,-1,14
 139 347 139 347 139 255.5 c 128,-1,15
 139 164 139 164 188.5 118.5 c 128,-1,8
 238 73 238 73 304 73 c 128,-1,9
172 578 m 1,16,-1
 172 674 l 1,17,-1
 268 674 l 1,18,-1
 268 578 l 1,19,-1
 172 578 l 1,16,-1
340 578 m 1,20,-1
 340 674 l 1,21,-1
 436 674 l 1,22,-1
 436 578 l 1,23,-1
 340 578 l 1,20,-1
EndSplineSet
Substitution2: "'smcp' Lowercase to Small Capitals lookup 22 subtable" odieresis.smcp
Substitution2: "'aalt' Access All Alternates lookup 0 subtable" odieresis.smcp
EndChar

StartChar: divide
Encoding: 247 247 181
Width: 712
Flags: W
HStem: 100 92<310 402> 291 81<78 634> 470 92<310 402>
VStem: 310 92<100 192 470 562>
LayerCount: 2
Fore
SplineSet
78 372 m 1,0,-1
 634 372 l 1,1,-1
 634 291 l 1,2,-1
 78 291 l 1,3,-1
 78 372 l 1,0,-1
310 100 m 1,4,-1
 310 192 l 1,5,-1
 402 192 l 1,6,-1
 402 100 l 1,7,-1
 310 100 l 1,4,-1
402 562 m 1,8,-1
 402 470 l 1,9,-1
 310 470 l 1,10,-1
 310 562 l 1,11,-1
 402 562 l 1,8,-1
EndSplineSet
EndChar

StartChar: oslash
Encoding: 248 248 182
Width: 608
Flags: W
HStem: -10 83<222.592 387.002> 437 83<220.721 385.016>
VStem: 48 91<157.368 355.531> 469 91<154.791 353.132>
LayerCount: 2
Fore
SplineSet
477 459 m 1,0,1
 560 384 560 384 560 260 c 128,-1,2
 560 136 560 136 489.5 63 c 128,-1,3
 419 -10 419 -10 304 -10 c 0,4,5
 229 -10 229 -10 171 23 c 1,6,-1
 134 -30 l 1,7,-1
 93 -1 l 1,8,-1
 130 52 l 1,9,10
 48 125 48 125 48 249.5 c 128,-1,11
 48 374 48 374 118 447 c 128,-1,12
 188 520 188 520 304 520 c 0,13,14
 380 520 380 520 436 488 c 1,15,-1
 473 541 l 1,16,-1
 514 512 l 1,17,-1
 477 459 l 1,0,1
188.5 392 m 128,-1,19
 139 347 139 347 139 260.5 c 128,-1,20
 139 174 139 174 182 126 c 1,21,-1
 386 417 l 1,22,23
 349 437 349 437 304 437 c 0,24,18
 238 437 238 437 188.5 392 c 128,-1,19
304 73 m 0,25,26
 370 73 370 73 419.5 118.5 c 128,-1,27
 469 164 469 164 469 250.5 c 128,-1,28
 469 337 469 337 425 386 c 1,29,-1
 221 94 l 1,30,31
 260 73 260 73 304 73 c 0,25,26
EndSplineSet
Substitution2: "'smcp' Lowercase to Small Capitals lookup 22 subtable" oslash.smcp
Substitution2: "'aalt' Access All Alternates lookup 0 subtable" oslash.smcp
EndChar

StartChar: ugrave
Encoding: 249 249 183
Width: 610
Flags: W
HStem: -10 84<203.032 349.415> 0 21G<447.562 531> 490 20G<75 166 440 531>
VStem: 75 91<113.402 510> 440 91<23.2727 79 144.898 510> 451 80<0 40.7273>
LayerCount: 2
Fore
SplineSet
254 -10 m 0,0,1
 171 -10 171 -10 123 46 c 128,-1,2
 75 102 75 102 75 186 c 2,3,-1
 75 510 l 1,4,-1
 166 510 l 1,5,-1
 166 196 l 2,6,7
 166 74 166 74 276 74 c 0,8,9
 363 74 363 74 440 170 c 1,10,-1
 440 510 l 1,11,-1
 531 510 l 1,12,-1
 531 0 l 1,13,-1
 451 0 l 1,14,-1
 440 64 l 1,15,-1
 440 79 l 1,16,-1
 438 79 l 1,17,18
 357 -10 357 -10 254 -10 c 0,0,1
183 711 m 1,19,-1
 282 711 l 1,20,-1
 358 578 l 1,21,-1
 296 578 l 1,22,-1
 183 711 l 1,19,-1
EndSplineSet
Substitution2: "'smcp' Lowercase to Small Capitals lookup 22 subtable" ugrave.smcp
Substitution2: "'aalt' Access All Alternates lookup 0 subtable" ugrave.smcp
EndChar

StartChar: uacute
Encoding: 250 250 184
Width: 610
Flags: W
HStem: -10 84<203.032 349.415> 0 21G<447.562 531> 490 20G<75 166 440 531>
VStem: 75 91<113.402 510> 440 91<23.2727 79 144.898 510> 451 80<0 40.7273>
LayerCount: 2
Fore
SplineSet
254 -10 m 0,0,1
 171 -10 171 -10 123 46 c 128,-1,2
 75 102 75 102 75 186 c 2,3,-1
 75 510 l 1,4,-1
 166 510 l 1,5,-1
 166 196 l 2,6,7
 166 74 166 74 276 74 c 0,8,9
 363 74 363 74 440 170 c 1,10,-1
 440 510 l 1,11,-1
 531 510 l 1,12,-1
 531 0 l 1,13,-1
 451 0 l 1,14,-1
 440 64 l 1,15,-1
 440 79 l 1,16,-1
 438 79 l 1,17,18
 357 -10 357 -10 254 -10 c 0,0,1
324 711 m 1,19,-1
 423 711 l 1,20,-1
 310 578 l 1,21,-1
 248 578 l 1,22,-1
 324 711 l 1,19,-1
EndSplineSet
Substitution2: "'smcp' Lowercase to Small Capitals lookup 22 subtable" uacute.smcp
Substitution2: "'aalt' Access All Alternates lookup 0 subtable" uacute.smcp
EndChar

StartChar: ucircumflex
Encoding: 251 251 185
Width: 610
Flags: W
HStem: -10 84<203.032 349.415> 0 21G<447.562 531> 490 20G<75 166 440 531> 681 20G<243.626 362.374>
VStem: 75 91<113.402 510> 440 91<23.2727 79 144.898 510> 451 80<0 40.7273>
LayerCount: 2
Fore
SplineSet
254 -10 m 0,0,1
 171 -10 171 -10 123 46 c 128,-1,2
 75 102 75 102 75 186 c 2,3,-1
 75 510 l 1,4,-1
 166 510 l 1,5,-1
 166 196 l 2,6,7
 166 74 166 74 276 74 c 0,8,9
 363 74 363 74 440 170 c 1,10,-1
 440 510 l 1,11,-1
 531 510 l 1,12,-1
 531 0 l 1,13,-1
 451 0 l 1,14,-1
 440 64 l 1,15,-1
 440 79 l 1,16,-1
 438 79 l 1,17,18
 357 -10 357 -10 254 -10 c 0,0,1
344 701 m 1,19,-1
 457 578 l 1,20,-1
 378 578 l 1,21,-1
 303 651 l 1,22,-1
 228 578 l 1,23,-1
 149 578 l 1,24,-1
 262 701 l 1,25,-1
 344 701 l 1,19,-1
EndSplineSet
Substitution2: "'smcp' Lowercase to Small Capitals lookup 22 subtable" ucircumflex.smcp
Substitution2: "'aalt' Access All Alternates lookup 0 subtable" ucircumflex.smcp
EndChar

StartChar: udieresis
Encoding: 252 252 186
Width: 610
Flags: W
HStem: -10 84<203.032 349.415> 0 21G<447.562 531> 490 20G<75 166 440 531> 578 96<171 267 339 435>
VStem: 75 91<113.402 510> 171 96<578 674> 339 96<578 674> 440 91<23.2727 79 144.898 510> 451 80<0 40.7273>
LayerCount: 2
Fore
SplineSet
254 -10 m 0,0,1
 171 -10 171 -10 123 46 c 128,-1,2
 75 102 75 102 75 186 c 2,3,-1
 75 510 l 1,4,-1
 166 510 l 1,5,-1
 166 196 l 2,6,7
 166 74 166 74 276 74 c 0,8,9
 363 74 363 74 440 170 c 1,10,-1
 440 510 l 1,11,-1
 531 510 l 1,12,-1
 531 0 l 1,13,-1
 451 0 l 1,14,-1
 440 64 l 1,15,-1
 440 79 l 1,16,-1
 438 79 l 1,17,18
 357 -10 357 -10 254 -10 c 0,0,1
171 578 m 1,19,-1
 171 674 l 1,20,-1
 267 674 l 1,21,-1
 267 578 l 1,22,-1
 171 578 l 1,19,-1
339 578 m 1,23,-1
 339 674 l 1,24,-1
 435 674 l 1,25,-1
 435 578 l 1,26,-1
 339 578 l 1,23,-1
EndSplineSet
Substitution2: "'smcp' Lowercase to Small Capitals lookup 22 subtable" udieresis.smcp
Substitution2: "'aalt' Access All Alternates lookup 0 subtable" udieresis.smcp
EndChar

StartChar: yacute
Encoding: 253 253 187
Width: 533
Flags: W
HStem: 490 20G<5 110.94 422.861 529>
LayerCount: 2
Fore
SplineSet
529 510 m 1,0,-1
 222 -230 l 1,1,-1
 130 -230 l 1,2,-1
 216 -8 l 1,3,-1
 5 510 l 1,4,-1
 103 510 l 1,5,-1
 263 107 l 1,6,-1
 267 107 l 1,7,-1
 431 510 l 1,8,-1
 529 510 l 1,0,-1
287 711 m 1,9,-1
 386 711 l 1,10,-1
 273 578 l 1,11,-1
 211 578 l 1,12,-1
 287 711 l 1,9,-1
EndSplineSet
Substitution2: "'smcp' Lowercase to Small Capitals lookup 22 subtable" yacute.smcp
Substitution2: "'aalt' Access All Alternates lookup 0 subtable" yacute.smcp
EndChar

StartChar: thorn
Encoding: 254 254 188
Width: 631
Flags: W
HStem: -10 85<244.388 413.695> 435 85<244.388 413.695>
VStem: 79 91<-230 64 128.394 381.606 446 730> 492 91<155.294 354.706>
LayerCount: 2
Fore
SplineSet
341 520 m 128,-1,1
 438 520 438 520 510.5 448 c 128,-1,2
 583 376 583 376 583 255 c 128,-1,3
 583 134 583 134 510.5 62 c 128,-1,4
 438 -10 438 -10 341 -10 c 128,-1,5
 244 -10 244 -10 173 64 c 1,6,-1
 170 64 l 1,7,-1
 170 -230 l 1,8,-1
 79 -230 l 1,9,-1
 79 730 l 1,10,-1
 170 730 l 1,11,-1
 170 446 l 1,12,-1
 173 446 l 1,13,0
 244 520 244 520 341 520 c 128,-1,1
328 75 m 0,14,15
 402 75 402 75 447 122 c 128,-1,16
 492 169 492 169 492 255 c 128,-1,17
 492 341 492 341 447 388 c 128,-1,18
 402 435 402 435 328 435 c 0,19,20
 238 435 238 435 170 360 c 1,21,-1
 170 150 l 1,22,23
 238 75 238 75 328 75 c 0,14,15
EndSplineSet
Substitution2: "'smcp' Lowercase to Small Capitals lookup 22 subtable" thorn.smcp
Substitution2: "'aalt' Access All Alternates lookup 0 subtable" thorn.smcp
EndChar

StartChar: ydieresis
Encoding: 255 255 189
Width: 533
Flags: W
HStem: 490 20G<5 110.94 422.861 529> 578 96<133 229 301 397>
VStem: 133 96<578 674> 301 96<578 674>
LayerCount: 2
Fore
SplineSet
529 510 m 1,0,-1
 222 -230 l 1,1,-1
 130 -230 l 1,2,-1
 216 -8 l 1,3,-1
 5 510 l 1,4,-1
 103 510 l 1,5,-1
 263 107 l 1,6,-1
 267 107 l 1,7,-1
 431 510 l 1,8,-1
 529 510 l 1,0,-1
133 578 m 1,9,-1
 133 674 l 1,10,-1
 229 674 l 1,11,-1
 229 578 l 1,12,-1
 133 578 l 1,9,-1
301 578 m 1,13,-1
 301 674 l 1,14,-1
 397 674 l 1,15,-1
 397 578 l 1,16,-1
 301 578 l 1,13,-1
EndSplineSet
Substitution2: "'smcp' Lowercase to Small Capitals lookup 22 subtable" ydieresis.smcp
Substitution2: "'aalt' Access All Alternates lookup 0 subtable" ydieresis.smcp
EndChar

StartChar: Amacron
Encoding: 256 256 190
Width: 697
Flags: W
HStem: 0 21G<5 112.38 584.62 692> 179 83<215 482> 678 20G<292.519 404.481> 768 60<207 491>
LayerCount: 2
Fore
SplineSet
491 828 m 1,0,-1
 491 768 l 1,1,-1
 207 768 l 1,2,-1
 207 828 l 1,3,-1
 491 828 l 1,0,-1
593 0 m 1,4,-1
 518 179 l 1,5,-1
 179 179 l 1,6,-1
 104 0 l 1,7,-1
 5 0 l 1,8,-1
 301 698 l 1,9,-1
 396 698 l 1,10,-1
 692 0 l 1,11,-1
 593 0 l 1,4,-1
215 267 m 1,12,-1
 215 262 l 1,13,-1
 482 262 l 1,14,-1
 482 267 l 1,15,-1
 350 586 l 1,16,-1
 348 586 l 1,17,-1
 215 267 l 1,12,-1
EndSplineSet
Substitution2: "'c2sc' Capitals to Small Capitals lookup 16 subtable" amacron.smcp
Substitution2: "'aalt' Access All Alternates lookup 0 subtable" amacron.smcp
EndChar

StartChar: amacron
Encoding: 257 257 191
Width: 555
Flags: W
HStem: -10 80<153.376 310.243> 0 21G<396.562 480> 229 73<164.427 389> 400 82<88 149.29> 434 86<132.087 345.78> 588 60<125 409>
VStem: 38 91<93.8725 198.023> 389 91<23.2727 64 123.356 229 302 391.684> 400 80<0 40.7273>
LayerCount: 2
Fore
SplineSet
88 482 m 1,0,1
 175 520 175 520 274.5 520 c 128,-1,2
 374 520 374 520 427 462 c 128,-1,3
 480 404 480 404 480 323 c 2,4,-1
 480 0 l 1,5,-1
 400 0 l 1,6,-1
 389 64 l 1,7,-1
 386 64 l 1,8,9
 314 -10 314 -10 201 -10 c 0,10,11
 133 -10 133 -10 85.5 31 c 128,-1,12
 38 72 38 72 38 143 c 128,-1,13
 38 214 38 214 96.5 258 c 128,-1,14
 155 302 155 302 268 302 c 2,15,-1
 389 302 l 1,16,-1
 389 310 l 2,17,18
 389 376 389 376 356.5 405 c 128,-1,19
 324 434 324 434 244 434 c 128,-1,20
 164 434 164 434 94 400 c 1,21,-1
 88 400 l 1,22,-1
 88 482 l 1,0,1
389 145 m 1,23,-1
 389 229 l 1,24,-1
 280 229 l 2,25,26
 129 229 129 229 129 149.5 c 128,-1,27
 129 70 129 70 235 70 c 0,28,29
 279 70 279 70 320 91.5 c 128,-1,30
 361 113 361 113 389 145 c 1,23,-1
409 648 m 1,31,-1
 409 588 l 1,32,-1
 125 588 l 1,33,-1
 125 648 l 1,34,-1
 409 648 l 1,31,-1
EndSplineSet
Substitution2: "'ss01' Style Set 1 lookup 27 subtable" amacron.alt
Substitution2: "'smcp' Lowercase to Small Capitals lookup 22 subtable" amacron.smcp
AlternateSubs2: "'aalt' Access All Alternates lookup 1 subtable" amacron.smcp amacron.alt
EndChar

StartChar: Abreve
Encoding: 258 258 192
Width: 697
Flags: W
HStem: 0 21G<5 112.38 584.62 692> 179 83<215 482> 678 20G<292.519 404.481> 748 58<288.154 409.846>
LayerCount: 2
Fore
SplineSet
432 864 m 1,0,-1
 496 864 l 1,1,2
 486 811 486 811 446.5 779.5 c 128,-1,3
 407 748 407 748 349 748 c 128,-1,4
 291 748 291 748 251.5 779.5 c 128,-1,5
 212 811 212 811 202 864 c 1,6,-1
 266 864 l 1,7,8
 286 806 286 806 349 806 c 128,-1,9
 412 806 412 806 432 864 c 1,0,-1
593 0 m 1,10,-1
 518 179 l 1,11,-1
 179 179 l 1,12,-1
 104 0 l 1,13,-1
 5 0 l 1,14,-1
 301 698 l 1,15,-1
 396 698 l 1,16,-1
 692 0 l 1,17,-1
 593 0 l 1,10,-1
215 267 m 1,18,-1
 215 262 l 1,19,-1
 482 262 l 1,20,-1
 482 267 l 1,21,-1
 350 586 l 1,22,-1
 348 586 l 1,23,-1
 215 267 l 1,18,-1
EndSplineSet
Substitution2: "'c2sc' Capitals to Small Capitals lookup 16 subtable" abreve.smcp
Substitution2: "'aalt' Access All Alternates lookup 0 subtable" abreve.smcp
EndChar

StartChar: abreve
Encoding: 259 259 193
Width: 555
Flags: W
HStem: -10 80<153.376 310.243> 0 21G<396.562 480> 229 73<164.427 389> 400 82<88 149.29> 434 86<132.087 345.78> 576 58<208.154 329.846>
VStem: 38 91<93.8725 198.023> 389 91<23.2727 64 123.356 229 302 391.684> 400 80<0 40.7273>
LayerCount: 2
Fore
SplineSet
88 482 m 1,0,1
 175 520 175 520 274.5 520 c 128,-1,2
 374 520 374 520 427 462 c 128,-1,3
 480 404 480 404 480 323 c 2,4,-1
 480 0 l 1,5,-1
 400 0 l 1,6,-1
 389 64 l 1,7,-1
 386 64 l 1,8,9
 314 -10 314 -10 201 -10 c 0,10,11
 133 -10 133 -10 85.5 31 c 128,-1,12
 38 72 38 72 38 143 c 128,-1,13
 38 214 38 214 96.5 258 c 128,-1,14
 155 302 155 302 268 302 c 2,15,-1
 389 302 l 1,16,-1
 389 310 l 2,17,18
 389 376 389 376 356.5 405 c 128,-1,19
 324 434 324 434 244 434 c 128,-1,20
 164 434 164 434 94 400 c 1,21,-1
 88 400 l 1,22,-1
 88 482 l 1,0,1
389 145 m 1,23,-1
 389 229 l 1,24,-1
 280 229 l 2,25,26
 129 229 129 229 129 149.5 c 128,-1,27
 129 70 129 70 235 70 c 0,28,29
 279 70 279 70 320 91.5 c 128,-1,30
 361 113 361 113 389 145 c 1,23,-1
352 692 m 1,31,-1
 416 692 l 1,32,33
 406 639 406 639 366.5 607.5 c 128,-1,34
 327 576 327 576 269 576 c 128,-1,35
 211 576 211 576 171.5 607.5 c 128,-1,36
 132 639 132 639 122 692 c 1,37,-1
 186 692 l 1,38,39
 206 634 206 634 269 634 c 128,-1,40
 332 634 332 634 352 692 c 1,31,-1
EndSplineSet
Substitution2: "'ss01' Style Set 1 lookup 27 subtable" abreve.alt
Substitution2: "'smcp' Lowercase to Small Capitals lookup 22 subtable" abreve.smcp
AlternateSubs2: "'aalt' Access All Alternates lookup 1 subtable" abreve.smcp abreve.alt
EndChar

StartChar: Aogonek
Encoding: 260 260 194
Width: 697
Flags: W
HStem: -203 56<585.402 682.258> 0 21G<5 112.38> 179 83<215 482> 678 20G<292.519 404.481>
VStem: 507 73<-141.285 -58.7689>
LayerCount: 2
Fore
SplineSet
692 0 m 1,0,1
 578.243648208 -42.0403908795 578.243648208 -42.0403908795 580 -100 c 1,2,3
 580 -147 580 -147 631 -147 c 0,4,5
 660 -147 660 -147 691 -129 c 1,6,-1
 691 -176 l 1,7,8
 651 -203 651 -203 606.5 -203 c 128,-1,9
 562 -203 562 -203 534.5 -180 c 128,-1,10
 507 -157 507 -157 507 -119 c 0,11,12
 507 -44 507 -44 614 0 c 1,13,-1
 593 0 l 1,14,-1
 518 179 l 1,15,-1
 179 179 l 1,16,-1
 104 0 l 1,17,-1
 5 0 l 1,18,-1
 301 698 l 1,19,-1
 396 698 l 1,20,-1
 692 0 l 1,0,1
215 267 m 1,21,-1
 215 262 l 1,22,-1
 482 262 l 1,23,-1
 482 267 l 1,24,-1
 350 586 l 1,25,-1
 348 586 l 1,26,-1
 215 267 l 1,21,-1
EndSplineSet
Substitution2: "'c2sc' Capitals to Small Capitals lookup 16 subtable" aogonek.smcp
Substitution2: "'aalt' Access All Alternates lookup 0 subtable" aogonek.smcp
EndChar

StartChar: aogonek
Encoding: 261 261 195
Width: 555
Flags: W
HStem: -203 56<373.402 470.258> -10 80<153.376 312.059> 229 73<164.427 389> 434 86<131.956 345.76>
VStem: 38 91<93.8725 198.023> 295 73<-141.285 -58.7689> 389 91<0 66 123.356 229 302 391.684>
LayerCount: 2
Fore
SplineSet
480 0 m 1,0,1
 366.243648208 -42.0403908795 366.243648208 -42.0403908795 368 -100 c 1,2,3
 368 -147 368 -147 419 -147 c 0,4,5
 448 -147 448 -147 479 -129 c 1,6,-1
 479 -176 l 1,7,8
 439 -203 439 -203 394.5 -203 c 128,-1,9
 350 -203 350 -203 322.5 -180 c 128,-1,10
 295 -157 295 -157 295 -119 c 0,11,12
 295 -44 295 -44 402 0 c 1,13,-1
 389 0 l 1,14,-1
 389 66 l 1,15,16
 317 -10 317 -10 201 -10 c 0,17,18
 133 -10 133 -10 85.5 31 c 128,-1,19
 38 72 38 72 38 143 c 128,-1,20
 38 214 38 214 96.5 258 c 128,-1,21
 155 302 155 302 268 302 c 2,22,-1
 389 302 l 1,23,-1
 389 310 l 2,24,25
 389 376 389 376 356.5 405 c 128,-1,26
 324 434 324 434 242 434 c 128,-1,27
 160 434 160 434 88 397 c 1,28,-1
 88 482 l 1,29,30
 175 520 175 520 274.5 520 c 128,-1,31
 374 520 374 520 427 462 c 128,-1,32
 480 404 480 404 480 323 c 2,33,-1
 480 0 l 1,0,1
389 145 m 1,34,-1
 389 229 l 1,35,-1
 280 229 l 2,36,37
 129 229 129 229 129 149.5 c 128,-1,38
 129 70 129 70 235 70 c 0,39,40
 279 70 279 70 320 91.5 c 128,-1,41
 361 113 361 113 389 145 c 1,34,-1
EndSplineSet
Substitution2: "'ss01' Style Set 1 lookup 27 subtable" aogonek.alt
Substitution2: "'smcp' Lowercase to Small Capitals lookup 22 subtable" aogonek.smcp
AlternateSubs2: "'aalt' Access All Alternates lookup 1 subtable" aogonek.smcp aogonek.alt
EndChar

StartChar: Cacute
Encoding: 262 262 196
Width: 698
Flags: W
HStem: -10 87<294.638 544.168> 621 87<294.638 544.168>
VStem: 56 91<230.966 467.034>
LayerCount: 2
Fore
SplineSet
638 553 m 1,0,1
 535 621 535 621 411 621 c 128,-1,2
 287 621 287 621 217 545 c 128,-1,3
 147 469 147 469 147 349 c 128,-1,4
 147 229 147 229 217 153 c 128,-1,5
 287 77 287 77 411 77 c 128,-1,6
 535 77 535 77 638 145 c 1,7,-1
 643 145 l 1,8,-1
 643 55 l 1,9,10
 535 -10 535 -10 406 -10 c 0,11,12
 253 -10 253 -10 154.5 87.5 c 128,-1,13
 56 185 56 185 56 349 c 128,-1,14
 56 513 56 513 154.5 610.5 c 128,-1,15
 253 708 253 708 406 708 c 0,16,17
 535 708 535 708 643 643 c 1,18,-1
 643 553 l 1,19,-1
 638 553 l 1,0,1
416 883 m 1,20,-1
 515 883 l 1,21,-1
 402 750 l 1,22,-1
 340 750 l 1,23,-1
 416 883 l 1,20,-1
EndSplineSet
Substitution2: "'c2sc' Capitals to Small Capitals lookup 16 subtable" cacute.smcp
Substitution2: "'aalt' Access All Alternates lookup 0 subtable" cacute.smcp
EndChar

StartChar: cacute
Encoding: 263 263 197
Width: 536
Flags: W
HStem: -10 85<224.668 428.879> 435 85<224.668 428.879>
VStem: 46 91<161.94 348.06>
LayerCount: 2
Fore
SplineSet
482 385 m 1,0,1
 408 435 408 435 321.5 435 c 128,-1,2
 235 435 235 435 186 385.5 c 128,-1,3
 137 336 137 336 137 255 c 128,-1,4
 137 174 137 174 186 124.5 c 128,-1,5
 235 75 235 75 321.5 75 c 128,-1,6
 408 75 408 75 482 125 c 1,7,-1
 486 125 l 1,8,-1
 486 39 l 1,9,10
 403 -10 403 -10 313 -10 c 0,11,12
 202 -10 202 -10 124 62 c 128,-1,13
 46 134 46 134 46 255 c 128,-1,14
 46 376 46 376 124 448 c 128,-1,15
 202 520 202 520 313 520 c 0,16,17
 403 520 403 520 486 471 c 1,18,-1
 486 385 l 1,19,-1
 482 385 l 1,0,1
319 711 m 1,20,-1
 418 711 l 1,21,-1
 305 578 l 1,22,-1
 243 578 l 1,23,-1
 319 711 l 1,20,-1
EndSplineSet
Substitution2: "'smcp' Lowercase to Small Capitals lookup 22 subtable" cacute.smcp
Substitution2: "'aalt' Access All Alternates lookup 0 subtable" cacute.smcp
EndChar

StartChar: Ccircumflex
Encoding: 264 264 198
Width: 698
Flags: W
HStem: -10 87<294.638 544.168> 621 87<294.638 544.168>
VStem: 56 91<230.966 467.034>
LayerCount: 2
Fore
SplineSet
638 553 m 1,0,1
 535 621 535 621 411 621 c 128,-1,2
 287 621 287 621 217 545 c 128,-1,3
 147 469 147 469 147 349 c 128,-1,4
 147 229 147 229 217 153 c 128,-1,5
 287 77 287 77 411 77 c 128,-1,6
 535 77 535 77 638 145 c 1,7,-1
 643 145 l 1,8,-1
 643 55 l 1,9,10
 535 -10 535 -10 406 -10 c 0,11,12
 253 -10 253 -10 154.5 87.5 c 128,-1,13
 56 185 56 185 56 349 c 128,-1,14
 56 513 56 513 154.5 610.5 c 128,-1,15
 253 708 253 708 406 708 c 0,16,17
 535 708 535 708 643 643 c 1,18,-1
 643 553 l 1,19,-1
 638 553 l 1,0,1
438 873 m 1,20,-1
 551 750 l 1,21,-1
 472 750 l 1,22,-1
 397 823 l 1,23,-1
 322 750 l 1,24,-1
 243 750 l 1,25,-1
 356 873 l 1,26,-1
 438 873 l 1,20,-1
EndSplineSet
Substitution2: "'c2sc' Capitals to Small Capitals lookup 16 subtable" ccircumflex.smcp
Substitution2: "'aalt' Access All Alternates lookup 0 subtable" ccircumflex.smcp
EndChar

StartChar: ccircumflex
Encoding: 265 265 199
Width: 536
Flags: W
HStem: -10 85<224.668 428.879> 435 85<224.668 428.879> 681 20G<237.626 356.374>
VStem: 46 91<161.94 348.06>
LayerCount: 2
Fore
SplineSet
482 385 m 1,0,1
 408 435 408 435 321.5 435 c 128,-1,2
 235 435 235 435 186 385.5 c 128,-1,3
 137 336 137 336 137 255 c 128,-1,4
 137 174 137 174 186 124.5 c 128,-1,5
 235 75 235 75 321.5 75 c 128,-1,6
 408 75 408 75 482 125 c 1,7,-1
 486 125 l 1,8,-1
 486 39 l 1,9,10
 403 -10 403 -10 313 -10 c 0,11,12
 202 -10 202 -10 124 62 c 128,-1,13
 46 134 46 134 46 255 c 128,-1,14
 46 376 46 376 124 448 c 128,-1,15
 202 520 202 520 313 520 c 0,16,17
 403 520 403 520 486 471 c 1,18,-1
 486 385 l 1,19,-1
 482 385 l 1,0,1
338 701 m 1,20,-1
 451 578 l 1,21,-1
 372 578 l 1,22,-1
 297 651 l 1,23,-1
 222 578 l 1,24,-1
 143 578 l 1,25,-1
 256 701 l 1,26,-1
 338 701 l 1,20,-1
EndSplineSet
Substitution2: "'smcp' Lowercase to Small Capitals lookup 22 subtable" ccircumflex.smcp
Substitution2: "'aalt' Access All Alternates lookup 0 subtable" ccircumflex.smcp
EndChar

StartChar: Cdotaccent
Encoding: 266 266 200
Width: 698
Flags: W
HStem: -10 87<294.638 544.168> 621 87<294.638 544.168> 750 96<347 443>
VStem: 56 91<230.966 467.034> 347 96<750 846>
LayerCount: 2
Fore
SplineSet
638 553 m 1,0,1
 535 621 535 621 411 621 c 128,-1,2
 287 621 287 621 217 545 c 128,-1,3
 147 469 147 469 147 349 c 128,-1,4
 147 229 147 229 217 153 c 128,-1,5
 287 77 287 77 411 77 c 128,-1,6
 535 77 535 77 638 145 c 1,7,-1
 643 145 l 1,8,-1
 643 55 l 1,9,10
 535 -10 535 -10 406 -10 c 0,11,12
 253 -10 253 -10 154.5 87.5 c 128,-1,13
 56 185 56 185 56 349 c 128,-1,14
 56 513 56 513 154.5 610.5 c 128,-1,15
 253 708 253 708 406 708 c 0,16,17
 535 708 535 708 643 643 c 1,18,-1
 643 553 l 1,19,-1
 638 553 l 1,0,1
347 750 m 1,20,-1
 347 846 l 1,21,-1
 443 846 l 1,22,-1
 443 750 l 1,23,-1
 347 750 l 1,20,-1
EndSplineSet
Substitution2: "'c2sc' Capitals to Small Capitals lookup 16 subtable" cdotaccent.smcp
Substitution2: "'aalt' Access All Alternates lookup 0 subtable" cdotaccent.smcp
EndChar

StartChar: cdotaccent
Encoding: 267 267 201
Width: 536
Flags: W
HStem: -10 85<224.668 428.879> 435 85<224.668 428.879> 578 96<253 349>
VStem: 46 91<161.94 348.06> 253 96<578 674>
LayerCount: 2
Fore
SplineSet
482 385 m 1,0,1
 408 435 408 435 321.5 435 c 128,-1,2
 235 435 235 435 186 385.5 c 128,-1,3
 137 336 137 336 137 255 c 128,-1,4
 137 174 137 174 186 124.5 c 128,-1,5
 235 75 235 75 321.5 75 c 128,-1,6
 408 75 408 75 482 125 c 1,7,-1
 486 125 l 1,8,-1
 486 39 l 1,9,10
 403 -10 403 -10 313 -10 c 0,11,12
 202 -10 202 -10 124 62 c 128,-1,13
 46 134 46 134 46 255 c 128,-1,14
 46 376 46 376 124 448 c 128,-1,15
 202 520 202 520 313 520 c 0,16,17
 403 520 403 520 486 471 c 1,18,-1
 486 385 l 1,19,-1
 482 385 l 1,0,1
253 578 m 1,20,-1
 253 674 l 1,21,-1
 349 674 l 1,22,-1
 349 578 l 1,23,-1
 253 578 l 1,20,-1
EndSplineSet
Substitution2: "'smcp' Lowercase to Small Capitals lookup 22 subtable" cdotaccent.smcp
Substitution2: "'aalt' Access All Alternates lookup 0 subtable" cdotaccent.smcp
EndChar

StartChar: Ccaron
Encoding: 268 268 202
Width: 698
Flags: W
HStem: -10 87<294.638 544.168> 621 87<294.638 544.168>
VStem: 56 91<230.966 467.034>
LayerCount: 2
Fore
SplineSet
638 553 m 1,0,1
 535 621 535 621 411 621 c 128,-1,2
 287 621 287 621 217 545 c 128,-1,3
 147 469 147 469 147 349 c 128,-1,4
 147 229 147 229 217 153 c 128,-1,5
 287 77 287 77 411 77 c 128,-1,6
 535 77 535 77 638 145 c 1,7,-1
 643 145 l 1,8,-1
 643 55 l 1,9,10
 535 -10 535 -10 406 -10 c 0,11,12
 253 -10 253 -10 154.5 87.5 c 128,-1,13
 56 185 56 185 56 349 c 128,-1,14
 56 513 56 513 154.5 610.5 c 128,-1,15
 253 708 253 708 406 708 c 0,16,17
 535 708 535 708 643 643 c 1,18,-1
 643 553 l 1,19,-1
 638 553 l 1,0,1
552 873 m 1,20,-1
 439 750 l 1,21,-1
 357 750 l 1,22,-1
 244 873 l 1,23,-1
 323 873 l 1,24,-1
 398 800 l 1,25,-1
 473 873 l 1,26,-1
 552 873 l 1,20,-1
EndSplineSet
Substitution2: "'c2sc' Capitals to Small Capitals lookup 16 subtable" ccaron.smcp
Substitution2: "'aalt' Access All Alternates lookup 0 subtable" ccaron.smcp
EndChar

StartChar: ccaron
Encoding: 269 269 203
Width: 536
Flags: W
HStem: -10 85<224.668 428.879> 435 85<224.668 428.879> 681 20G<140 239.548 348.452 448>
VStem: 46 91<161.94 348.06>
LayerCount: 2
Fore
SplineSet
482 385 m 1,0,1
 408 435 408 435 321.5 435 c 128,-1,2
 235 435 235 435 186 385.5 c 128,-1,3
 137 336 137 336 137 255 c 128,-1,4
 137 174 137 174 186 124.5 c 128,-1,5
 235 75 235 75 321.5 75 c 128,-1,6
 408 75 408 75 482 125 c 1,7,-1
 486 125 l 1,8,-1
 486 39 l 1,9,10
 403 -10 403 -10 313 -10 c 0,11,12
 202 -10 202 -10 124 62 c 128,-1,13
 46 134 46 134 46 255 c 128,-1,14
 46 376 46 376 124 448 c 128,-1,15
 202 520 202 520 313 520 c 0,16,17
 403 520 403 520 486 471 c 1,18,-1
 486 385 l 1,19,-1
 482 385 l 1,0,1
448 701 m 1,20,-1
 335 578 l 1,21,-1
 253 578 l 1,22,-1
 140 701 l 1,23,-1
 219 701 l 1,24,-1
 294 628 l 1,25,-1
 369 701 l 1,26,-1
 448 701 l 1,20,-1
EndSplineSet
Substitution2: "'smcp' Lowercase to Small Capitals lookup 22 subtable" ccaron.smcp
Substitution2: "'aalt' Access All Alternates lookup 0 subtable" ccaron.smcp
EndChar

StartChar: Dcaron
Encoding: 270 270 204
Width: 750
Flags: W
HStem: 0 85<188 452.318> 613 85<188 451.114>
VStem: 97 91<85 613> 606 90<235.39 461.067>
LayerCount: 2
Fore
SplineSet
343 698 m 2,0,1
 429 698 429 698 498.5 667.5 c 128,-1,2
 568 637 568 637 610 586.5 c 0,3,4
 696 483.095238095 696 483.095238095 696 349 c 0,5,6
 696 241.631578947 696 241.631578947 640.5 154 c 0,7,8
 578.770503597 56.5323741007 578.770503597 56.5323741007 471 20 c 0,9,10
 412 0 412 0 343 0 c 2,11,-1
 97 0 l 1,12,-1
 97 698 l 1,13,-1
 343 698 l 2,0,1
332 85 m 2,14,15
 456 85 456 85 531 158 c 128,-1,16
 606 231 606 231 606 349 c 128,-1,17
 606 467 606 467 531 540 c 128,-1,18
 456 613 456 613 332 613 c 2,19,-1
 188 613 l 1,20,-1
 188 85 l 1,21,-1
 332 85 l 2,14,15
527 873 m 1,22,-1
 414 750 l 1,23,-1
 332 750 l 1,24,-1
 219 873 l 1,25,-1
 298 873 l 1,26,-1
 373 800 l 1,27,-1
 448 873 l 1,28,-1
 527 873 l 1,22,-1
EndSplineSet
Substitution2: "'c2sc' Capitals to Small Capitals lookup 16 subtable" dcaron.smcp
Substitution2: "'aalt' Access All Alternates lookup 0 subtable" dcaron.smcp
EndChar

StartChar: dcaron
Encoding: 271 271 205
Width: 649
Flags: W
HStem: -10 85<217.305 386.612> 0 21G<468.562 552> 435 85<217.305 386.612> 636 94<611 658>
VStem: 48 91<155.294 354.706> 461 91<128.394 381.606 446 730> 472 80<0 40.7273> 611 95<636 730> 658 48<574.744 636>
LayerCount: 2
Fore
SplineSet
290 520 m 128,-1,1
 387 520 387 520 458 446 c 1,2,-1
 461 446 l 1,3,-1
 461 730 l 1,4,-1
 552 730 l 1,5,-1
 552 0 l 1,6,-1
 472 0 l 1,7,-1
 461 64 l 1,8,-1
 458 64 l 1,9,10
 387 -10 387 -10 290 -10 c 128,-1,11
 193 -10 193 -10 120.5 62 c 128,-1,12
 48 134 48 134 48 255 c 128,-1,13
 48 376 48 376 120.5 448 c 128,-1,0
 193 520 193 520 290 520 c 128,-1,1
303 75 m 0,14,15
 393 75 393 75 461 150 c 1,16,-1
 461 360 l 1,17,18
 393 435 393 435 303 435 c 0,19,20
 229 435 229 435 184 388 c 128,-1,21
 139 341 139 341 139 255 c 128,-1,22
 139 169 139 169 184 122 c 128,-1,23
 229 75 229 75 303 75 c 0,14,15
611 730 m 1,24,-1
 706 730 l 1,25,-1
 706 636 l 2,26,27
 706 541 706 541 611 500 c 1,28,-1
 611 555 l 1,29,30
 658 580 658 580 658 636 c 1,31,-1
 611 636 l 1,32,-1
 611 730 l 1,24,-1
EndSplineSet
Substitution2: "'smcp' Lowercase to Small Capitals lookup 22 subtable" dcaron.smcp
Substitution2: "'aalt' Access All Alternates lookup 0 subtable" dcaron.smcp
EndChar

StartChar: Dcroat
Encoding: 272 272 206
Width: 757
Flags: W
HStem: 0 85<195 459.318> 315 67<22 104 195 341> 613 85<195 458.114>
VStem: 104 91<85 315 382 613> 613 90<235.39 461.067>
LayerCount: 2
Fore
SplineSet
22 315 m 1,0,-1
 22 382 l 1,1,-1
 104 382 l 1,2,-1
 104 698 l 1,3,-1
 350 698 l 2,4,5
 436 698 436 698 505.5 667.5 c 128,-1,6
 575 637 575 637 617 586.5 c 0,7,8
 703 483.095238095 703 483.095238095 703 349 c 0,9,10
 703 241.631578947 703 241.631578947 647.5 154 c 0,11,12
 585.770503597 56.5323741007 585.770503597 56.5323741007 478 20 c 0,13,14
 419 0 419 0 350 0 c 2,15,-1
 104 0 l 1,16,-1
 104 315 l 1,17,-1
 22 315 l 1,0,-1
339 85 m 2,18,19
 463 85 463 85 538 158 c 128,-1,20
 613 231 613 231 613 349 c 128,-1,21
 613 467 613 467 538 540 c 128,-1,22
 463 613 463 613 339 613 c 2,23,-1
 195 613 l 1,24,-1
 195 382 l 1,25,-1
 341 382 l 1,26,-1
 341 315 l 1,27,-1
 195 315 l 1,28,-1
 195 85 l 1,29,-1
 339 85 l 2,18,19
EndSplineSet
Substitution2: "'c2sc' Capitals to Small Capitals lookup 16 subtable" dcroat.smcp
Substitution2: "'aalt' Access All Alternates lookup 0 subtable" dcroat.smcp
EndChar

StartChar: dcroat
Encoding: 273 273 207
Width: 631
Flags: W
HStem: -10 85<217.305 386.612> 0 21G<468.562 552> 435 85<217.305 386.612> 587 67<324 461 552 629>
VStem: 48 91<155.294 354.706> 461 91<23.2727 64 128.394 381.606 446 587 654 730> 472 80<0 40.7273>
LayerCount: 2
Fore
SplineSet
324 587 m 1,0,-1
 324 654 l 1,1,-1
 461 654 l 1,2,-1
 461 730 l 1,3,-1
 552 730 l 1,4,-1
 552 654 l 1,5,-1
 629 654 l 1,6,-1
 629 587 l 1,7,-1
 552 587 l 1,8,-1
 552 0 l 1,9,-1
 472 0 l 1,10,-1
 461 64 l 1,11,-1
 458 64 l 1,12,13
 387 -10 387 -10 290 -10 c 128,-1,14
 193 -10 193 -10 120.5 62 c 128,-1,15
 48 134 48 134 48 255 c 128,-1,16
 48 376 48 376 120.5 448 c 128,-1,17
 193 520 193 520 290 520 c 128,-1,18
 387 520 387 520 458 446 c 1,19,-1
 461 446 l 1,20,-1
 461 587 l 1,21,-1
 324 587 l 1,0,-1
303 75 m 0,22,23
 393 75 393 75 461 150 c 1,24,-1
 461 360 l 1,25,26
 393 435 393 435 303 435 c 0,27,28
 229 435 229 435 184 388 c 128,-1,29
 139 341 139 341 139 255 c 128,-1,30
 139 169 139 169 184 122 c 128,-1,31
 229 75 229 75 303 75 c 0,22,23
EndSplineSet
Substitution2: "'smcp' Lowercase to Small Capitals lookup 22 subtable" dcroat.smcp
Substitution2: "'aalt' Access All Alternates lookup 0 subtable" dcroat.smcp
EndChar

StartChar: Emacron
Encoding: 274 274 208
Width: 638
Flags: W
HStem: 0 85<188 581> 307 85<188 545> 613 85<188 581> 768 60<205 489>
VStem: 97 91<85 307 392 613>
LayerCount: 2
Fore
SplineSet
581 613 m 1,0,-1
 188 613 l 1,1,-1
 188 392 l 1,2,-1
 545 392 l 1,3,-1
 545 307 l 1,4,-1
 188 307 l 1,5,-1
 188 85 l 1,6,-1
 581 85 l 1,7,-1
 581 0 l 1,8,-1
 97 0 l 1,9,-1
 97 698 l 1,10,-1
 581 698 l 1,11,-1
 581 613 l 1,0,-1
489 828 m 1,12,-1
 489 768 l 1,13,-1
 205 768 l 1,14,-1
 205 828 l 1,15,-1
 489 828 l 1,12,-1
EndSplineSet
Substitution2: "'c2sc' Capitals to Small Capitals lookup 16 subtable" emacron.smcp
Substitution2: "'aalt' Access All Alternates lookup 0 subtable" emacron.smcp
EndChar

StartChar: emacron
Encoding: 275 275 209
Width: 570
Flags: W
HStem: -10 85<219.273 438.427> 223 74<141 436> 443 77<210.684 365.463> 588 60<146 430>
VStem: 49 92<153.191 223 297 373.328>
LayerCount: 2
Fore
SplineSet
527 255 m 2,0,-1
 527 223 l 1,1,-1
 141 223 l 1,2,3
 149 153 149 153 193 114 c 128,-1,4
 237 75 237 75 326.5 75 c 128,-1,5
 416 75 416 75 492 125 c 1,6,-1
 497 125 l 1,7,-1
 497 37 l 1,8,9
 413 -10 413 -10 299.5 -10 c 128,-1,10
 186 -10 186 -10 117.5 59.5 c 128,-1,11
 49 129 49 129 49 247.5 c 128,-1,12
 49 366 49 366 110 443 c 128,-1,13
 171 520 171 520 288 520 c 128,-1,14
 405 520 405 520 466 443 c 128,-1,15
 527 366 527 366 527 255 c 2,0,-1
141 297 m 1,16,-1
 436 297 l 1,17,18
 432 369 432 369 387.5 406 c 128,-1,19
 343 443 343 443 288 443 c 128,-1,20
 233 443 233 443 189 406 c 128,-1,21
 145 369 145 369 141 297 c 1,16,-1
430 648 m 1,22,-1
 430 588 l 1,23,-1
 146 588 l 1,24,-1
 146 648 l 1,25,-1
 430 648 l 1,22,-1
EndSplineSet
Substitution2: "'smcp' Lowercase to Small Capitals lookup 22 subtable" emacron.smcp
Substitution2: "'aalt' Access All Alternates lookup 0 subtable" emacron.smcp
EndChar

StartChar: Ebreve
Encoding: 276 276 210
Width: 638
Flags: W
HStem: 0 85<188 581> 307 85<188 545> 613 85<188 581> 748 58<284.154 405.846>
VStem: 97 91<85 307 392 613>
LayerCount: 2
Fore
SplineSet
581 613 m 1,0,-1
 188 613 l 1,1,-1
 188 392 l 1,2,-1
 545 392 l 1,3,-1
 545 307 l 1,4,-1
 188 307 l 1,5,-1
 188 85 l 1,6,-1
 581 85 l 1,7,-1
 581 0 l 1,8,-1
 97 0 l 1,9,-1
 97 698 l 1,10,-1
 581 698 l 1,11,-1
 581 613 l 1,0,-1
428 864 m 1,12,-1
 492 864 l 1,13,14
 482 811 482 811 442.5 779.5 c 128,-1,15
 403 748 403 748 345 748 c 128,-1,16
 287 748 287 748 247.5 779.5 c 128,-1,17
 208 811 208 811 198 864 c 1,18,-1
 262 864 l 1,19,20
 282 806 282 806 345 806 c 128,-1,21
 408 806 408 806 428 864 c 1,12,-1
EndSplineSet
Substitution2: "'c2sc' Capitals to Small Capitals lookup 16 subtable" ebreve.smcp
Substitution2: "'aalt' Access All Alternates lookup 0 subtable" ebreve.smcp
EndChar

StartChar: ebreve
Encoding: 277 277 211
Width: 570
Flags: W
HStem: -10 85<219.273 438.427> 223 74<141 436> 443 77<210.684 365.463> 576 58<223.154 344.846>
VStem: 49 92<153.191 223 297 373.328>
LayerCount: 2
Fore
SplineSet
527 255 m 2,0,-1
 527 223 l 1,1,-1
 141 223 l 1,2,3
 149 153 149 153 193 114 c 128,-1,4
 237 75 237 75 326.5 75 c 128,-1,5
 416 75 416 75 492 125 c 1,6,-1
 497 125 l 1,7,-1
 497 37 l 1,8,9
 413 -10 413 -10 299.5 -10 c 128,-1,10
 186 -10 186 -10 117.5 59.5 c 128,-1,11
 49 129 49 129 49 247.5 c 128,-1,12
 49 366 49 366 110 443 c 128,-1,13
 171 520 171 520 288 520 c 128,-1,14
 405 520 405 520 466 443 c 128,-1,15
 527 366 527 366 527 255 c 2,0,-1
141 297 m 1,16,-1
 436 297 l 1,17,18
 432 369 432 369 387.5 406 c 128,-1,19
 343 443 343 443 288 443 c 128,-1,20
 233 443 233 443 189 406 c 128,-1,21
 145 369 145 369 141 297 c 1,16,-1
367 692 m 1,22,-1
 431 692 l 1,23,24
 421 639 421 639 381.5 607.5 c 128,-1,25
 342 576 342 576 284 576 c 128,-1,26
 226 576 226 576 186.5 607.5 c 128,-1,27
 147 639 147 639 137 692 c 1,28,-1
 201 692 l 1,29,30
 221 634 221 634 284 634 c 128,-1,31
 347 634 347 634 367 692 c 1,22,-1
EndSplineSet
Substitution2: "'smcp' Lowercase to Small Capitals lookup 22 subtable" ebreve.smcp
Substitution2: "'aalt' Access All Alternates lookup 0 subtable" ebreve.smcp
EndChar

StartChar: Edotaccent
Encoding: 278 278 212
Width: 638
Flags: W
HStem: 0 85<188 581> 307 85<188 545> 613 85<188 581> 750 96<299 395>
VStem: 97 91<85 307 392 613> 299 96<750 846>
LayerCount: 2
Fore
SplineSet
581 613 m 1,0,-1
 188 613 l 1,1,-1
 188 392 l 1,2,-1
 545 392 l 1,3,-1
 545 307 l 1,4,-1
 188 307 l 1,5,-1
 188 85 l 1,6,-1
 581 85 l 1,7,-1
 581 0 l 1,8,-1
 97 0 l 1,9,-1
 97 698 l 1,10,-1
 581 698 l 1,11,-1
 581 613 l 1,0,-1
299 750 m 1,12,-1
 299 846 l 1,13,-1
 395 846 l 1,14,-1
 395 750 l 1,15,-1
 299 750 l 1,12,-1
EndSplineSet
Substitution2: "'c2sc' Capitals to Small Capitals lookup 16 subtable" edotaccent.smcp
Substitution2: "'aalt' Access All Alternates lookup 0 subtable" edotaccent.smcp
EndChar

StartChar: edotaccent
Encoding: 279 279 213
Width: 570
Flags: W
HStem: -10 85<219.273 438.427> 223 74<141 436> 443 77<210.684 365.463> 578 96<238 334>
VStem: 49 92<153.191 223 297 373.328> 238 96<578 674>
LayerCount: 2
Fore
SplineSet
527 255 m 2,0,-1
 527 223 l 1,1,-1
 141 223 l 1,2,3
 149 153 149 153 193 114 c 128,-1,4
 237 75 237 75 326.5 75 c 128,-1,5
 416 75 416 75 492 125 c 1,6,-1
 497 125 l 1,7,-1
 497 37 l 1,8,9
 413 -10 413 -10 299.5 -10 c 128,-1,10
 186 -10 186 -10 117.5 59.5 c 128,-1,11
 49 129 49 129 49 247.5 c 128,-1,12
 49 366 49 366 110 443 c 128,-1,13
 171 520 171 520 288 520 c 128,-1,14
 405 520 405 520 466 443 c 128,-1,15
 527 366 527 366 527 255 c 2,0,-1
141 297 m 1,16,-1
 436 297 l 1,17,18
 432 369 432 369 387.5 406 c 128,-1,19
 343 443 343 443 288 443 c 128,-1,20
 233 443 233 443 189 406 c 128,-1,21
 145 369 145 369 141 297 c 1,16,-1
238 578 m 1,22,-1
 238 674 l 1,23,-1
 334 674 l 1,24,-1
 334 578 l 1,25,-1
 238 578 l 1,22,-1
EndSplineSet
Substitution2: "'smcp' Lowercase to Small Capitals lookup 22 subtable" edotaccent.smcp
Substitution2: "'aalt' Access All Alternates lookup 0 subtable" edotaccent.smcp
EndChar

StartChar: Eogonek
Encoding: 280 280 214
Width: 638
Flags: W
HStem: -203 56<474.402 571.629> 0 85<188 503 534.022 581> 307 85<188 545> 613 85<188 581>
VStem: 97 91<85 307 392 613> 396 73<-141.285 -58.7689>
LayerCount: 2
Fore
SplineSet
581 0 m 1,0,1
 467.243648208 -42.0403908795 467.243648208 -42.0403908795 469 -100 c 1,2,3
 469 -147 469 -147 520 -147 c 0,4,5
 548 -147 548 -147 580 -129 c 1,6,-1
 580 -176 l 1,7,8
 540 -203 540 -203 495.5 -203 c 128,-1,9
 451 -203 451 -203 423.5 -180 c 128,-1,10
 396 -157 396 -157 396 -119 c 0,11,12
 396 -44 396 -44 503 0 c 1,13,-1
 97 0 l 1,14,-1
 97 698 l 1,15,-1
 581 698 l 1,16,-1
 581 613 l 1,17,-1
 188 613 l 1,18,-1
 188 392 l 1,19,-1
 545 392 l 1,20,-1
 545 307 l 1,21,-1
 188 307 l 1,22,-1
 188 85 l 1,23,-1
 581 85 l 1,24,-1
 581 0 l 1,0,1
EndSplineSet
Substitution2: "'c2sc' Capitals to Small Capitals lookup 16 subtable" eogonek.smcp
Substitution2: "'aalt' Access All Alternates lookup 0 subtable" eogonek.smcp
EndChar

StartChar: eogonek
Encoding: 281 281 215
Width: 571
Flags: W
HStem: -203 56<357.402 454.258> -10 85<218.375 397.733> 37 88<453.729 497> 223 74<139 437> 443 77<210.391 365.609>
VStem: 49 90<153.191 223 297 373.328> 279 73<-141.366 -56.1578>
LayerCount: 2
Fore
SplineSet
527 255 m 2,0,-1
 527 223 l 1,1,-1
 139 223 l 1,2,3
 147 154 147 154 192 114.5 c 128,-1,4
 237 75 237 75 326.5 75 c 128,-1,5
 416 75 416 75 492 125 c 1,6,-1
 497 125 l 1,7,-1
 497 37 l 1,8,9
 447 17 447 17 399.5 -22.5 c 128,-1,10
 352 -62 352 -62 352 -100 c 0,11,12
 352 -147 352 -147 403 -147 c 0,13,14
 432 -147 432 -147 463 -129 c 1,15,-1
 463 -176 l 1,16,17
 423 -203 423 -203 378.5 -203 c 128,-1,18
 334 -203 334 -203 306.5 -180 c 128,-1,19
 279 -157 279 -157 279 -119 c 0,20,21
 279 -54 279 -54 358 -7 c 1,22,23
 336 -10 336 -10 308 -10 c 0,24,25
 186 -10 186 -10 117.5 59.5 c 128,-1,26
 49 129 49 129 49 247.5 c 128,-1,27
 49 366 49 366 110 443 c 128,-1,28
 171 520 171 520 288 520 c 128,-1,29
 405 520 405 520 466 443 c 128,-1,30
 527 366 527 366 527 255 c 2,0,-1
139 297 m 1,31,-1
 437 297 l 1,32,33
 433 369 433 369 388 406 c 128,-1,34
 343 443 343 443 288 443 c 128,-1,35
 233 443 233 443 188 406 c 128,-1,36
 143 369 143 369 139 297 c 1,31,-1
EndSplineSet
Substitution2: "'smcp' Lowercase to Small Capitals lookup 22 subtable" eogonek.smcp
Substitution2: "'aalt' Access All Alternates lookup 0 subtable" eogonek.smcp
EndChar

